<svg width="78" height="16" viewBox="0 0 78 16" fill="none" xmlns="http://www.w3.org/2000/svg">
<path d="M7.35275 1.71791L7.36083 1.70243C7.393 1.64828 7.44106 1.59946 7.50332 1.56295C7.57211 1.52259 7.65384 1.5 7.73901 1.5C7.82418 1.5 7.90591 1.52259 7.9747 1.56295C8.04316 1.6031 8.09445 1.65813 8.12633 1.71877C8.1264 1.7189 8.12647 1.71903 8.12654 1.71916L10.0147 5.3389L10.1341 5.56778L10.3899 5.60298L14.6183 6.18494C14.6185 6.18496 14.6186 6.18498 14.6187 6.18499C14.7025 6.19667 14.7783 6.22991 14.8384 6.27784C14.8983 6.32566 14.9393 6.3854 14.9608 6.44811C14.9822 6.51052 14.9845 6.57635 14.968 6.63938C14.9515 6.70266 14.9156 6.76404 14.8603 6.81495L14.8602 6.81498L11.8019 9.63161L11.5995 9.81797L11.6486 10.0886L12.3702 14.0661C12.3702 14.0662 12.3702 14.0663 12.3702 14.0664C12.3815 14.1297 12.3741 14.1952 12.3476 14.2566C12.3209 14.3183 12.2747 14.3759 12.2104 14.42C12.1459 14.4643 12.0669 14.4923 11.9822 14.4982C11.8976 14.5041 11.8142 14.4873 11.7417 14.4516C11.7416 14.4516 11.7415 14.4515 11.7413 14.4514L7.96216 12.5731L7.73967 12.4626L7.51717 12.5731L3.73549 14.4518C3.66309 14.4878 3.5795 14.5047 3.49477 14.4989C3.41007 14.4931 3.33108 14.4651 3.26657 14.4208C3.20227 14.3767 3.15615 14.3191 3.12955 14.2574C3.1031 14.196 3.09582 14.1306 3.10722 14.0673C3.10724 14.0672 3.10725 14.0671 3.10726 14.0671L3.8302 10.0884L3.8794 9.81764L3.67698 9.63122L0.618598 6.81459L0.618559 6.81456C0.563278 6.76366 0.527371 6.70227 0.510808 6.639C0.494308 6.57596 0.496676 6.51013 0.518079 6.44772C0.53958 6.38502 0.580566 6.32528 0.640457 6.27746C0.700577 6.22945 0.776572 6.19619 0.860504 6.18456L5.08897 5.60259L5.34471 5.56739L5.46411 5.33851L7.35275 1.71791Z" fill="white" stroke="#F89818"/>
<path d="M22.8316 1.71791L22.8397 1.70243C22.8718 1.64828 22.9199 1.59946 22.9822 1.56295C23.051 1.52259 23.1327 1.5 23.2178 1.5C23.303 1.5 23.3847 1.52259 23.4535 1.56295C23.522 1.6031 23.5733 1.65813 23.6052 1.71877C23.6052 1.7189 23.6053 1.71903 23.6054 1.71916L25.4936 5.3389L25.613 5.56778L25.8687 5.60298L30.0972 6.18494C30.0973 6.18496 30.0974 6.18498 30.0975 6.18499C30.1813 6.19667 30.2572 6.22991 30.3172 6.27784C30.3771 6.32566 30.4181 6.3854 30.4396 6.44811C30.461 6.51052 30.4634 6.57635 30.4469 6.63938C30.4303 6.70266 30.3944 6.76404 30.3391 6.81495L30.3391 6.81498L27.2807 9.63161L27.0783 9.81797L27.1275 10.0886L27.849 14.0661C27.849 14.0662 27.8491 14.0663 27.8491 14.0664C27.8603 14.1297 27.853 14.1952 27.8264 14.2566C27.7998 14.3183 27.7536 14.3759 27.6893 14.42C27.6247 14.4643 27.5458 14.4923 27.461 14.4982C27.3765 14.5041 27.293 14.4873 27.2206 14.4516C27.2204 14.4516 27.2203 14.4515 27.2202 14.4514L23.441 12.5731L23.2185 12.4626L22.996 12.5731L19.2143 14.4518C19.1419 14.4878 19.0583 14.5047 18.9736 14.4989C18.8889 14.4931 18.8099 14.4651 18.7454 14.4208C18.6811 14.3767 18.635 14.3191 18.6084 14.2574C18.5819 14.196 18.5747 14.1306 18.5861 14.0673C18.5861 14.0672 18.5861 14.0671 18.5861 14.0671L19.309 10.0884L19.3582 9.81764L19.1558 9.63122L16.0974 6.81459L16.0974 6.81456C16.0421 6.76366 16.0062 6.70227 15.9896 6.639C15.9731 6.57596 15.9755 6.51013 15.9969 6.44772C16.0184 6.38502 16.0594 6.32528 16.1193 6.27746C16.1794 6.22945 16.2554 6.19619 16.3393 6.18456L20.5678 5.60259L20.8235 5.56739L20.9429 5.33851L22.8316 1.71791Z" fill="white" stroke="#F89818"/>
<path d="M38.3104 1.71791L38.3185 1.70243C38.3507 1.64828 38.3987 1.59946 38.461 1.56295C38.5298 1.52259 38.6115 1.5 38.6967 1.5C38.7819 1.5 38.8636 1.52259 38.9324 1.56295C39.0008 1.6031 39.0521 1.65813 39.084 1.71877C39.0841 1.7189 39.0841 1.71903 39.0842 1.71916L40.9724 5.3389L41.0918 5.56778L41.3475 5.60298L45.576 6.18494C45.5761 6.18496 45.5762 6.18498 45.5764 6.18499C45.6601 6.19667 45.736 6.22991 45.7961 6.27784C45.8559 6.32566 45.8969 6.3854 45.9184 6.44811C45.9398 6.51052 45.9422 6.57635 45.9257 6.63938C45.9091 6.70266 45.8732 6.76404 45.818 6.81495L45.8179 6.81498L42.7595 9.63161L42.5572 9.81797L42.6063 10.0886L43.3279 14.0661C43.3279 14.0662 43.3279 14.0663 43.3279 14.0664C43.3392 14.1297 43.3318 14.1952 43.3053 14.2566C43.2786 14.3183 43.2324 14.3759 43.1681 14.42C43.1036 14.4643 43.0246 14.4923 42.9399 14.4982C42.8553 14.5041 42.7718 14.4873 42.6994 14.4516C42.6993 14.4516 42.6992 14.4515 42.699 14.4514L38.9198 12.5731L38.6973 12.4626L38.4748 12.5731L34.6932 14.4518C34.6208 14.4878 34.5372 14.5047 34.4524 14.4989C34.3677 14.4931 34.2888 14.4651 34.2242 14.4208C34.1599 14.3767 34.1138 14.3191 34.0872 14.2574C34.0608 14.196 34.0535 14.1306 34.0649 14.0673C34.0649 14.0672 34.0649 14.0671 34.0649 14.0671L34.7879 10.0884L34.8371 9.81764L34.6346 9.63122L31.5763 6.81459L31.5762 6.81456C31.5209 6.76366 31.485 6.70227 31.4685 6.639C31.452 6.57596 31.4543 6.51013 31.4758 6.44772C31.4973 6.38502 31.5382 6.32528 31.5981 6.27746C31.6582 6.22945 31.7342 6.19619 31.8182 6.18456L36.0466 5.60259L36.3024 5.56739L36.4218 5.33851L38.3104 1.71791Z" fill="white" stroke="#F89818"/>
<path d="M53.7893 1.71791L53.7974 1.70243C53.8295 1.64828 53.8776 1.59946 53.9398 1.56295C54.0086 1.52259 54.0904 1.5 54.1755 1.5C54.2607 1.5 54.3424 1.52259 54.4112 1.56295C54.4797 1.6031 54.531 1.65813 54.5629 1.71877C54.5629 1.7189 54.563 1.71903 54.5631 1.71916L56.4513 5.3389L56.5707 5.56778L56.8264 5.60298L61.0549 6.18494C61.055 6.18496 61.0551 6.18498 61.0552 6.18499C61.139 6.19667 61.2149 6.22991 61.2749 6.27784C61.3348 6.32566 61.3758 6.3854 61.3973 6.44811C61.4187 6.51052 61.4211 6.57635 61.4046 6.63938C61.388 6.70266 61.3521 6.76404 61.2968 6.81495L61.2968 6.81498L58.2384 9.63161L58.036 9.81797L58.0851 10.0886L58.8067 14.0661C58.8067 14.0662 58.8067 14.0663 58.8068 14.0664C58.818 14.1297 58.8106 14.1952 58.7841 14.2566C58.7574 14.3183 58.7113 14.3759 58.647 14.42C58.5824 14.4643 58.5034 14.4923 58.4187 14.4982C58.3342 14.5041 58.2507 14.4873 58.1783 14.4516C58.1781 14.4516 58.178 14.4515 58.1779 14.4514L54.3987 12.5731L54.1762 12.4626L53.9537 12.5731L50.172 14.4518C50.0996 14.4878 50.016 14.5047 49.9313 14.4989C49.8466 14.4931 49.7676 14.4651 49.7031 14.4208C49.6388 14.3767 49.5927 14.3191 49.5661 14.2574C49.5396 14.196 49.5323 14.1306 49.5437 14.0673C49.5438 14.0672 49.5438 14.0671 49.5438 14.0671L50.2667 10.0884L50.3159 9.81764L50.1135 9.63122L47.0551 6.81459L47.0551 6.81456C46.9998 6.76366 46.9639 6.70227 46.9473 6.639C46.9308 6.57596 46.9332 6.51013 46.9546 6.44772C46.9761 6.38502 47.0171 6.32528 47.077 6.27746C47.1371 6.22945 47.2131 6.19619 47.297 6.18456L51.5255 5.60259L51.7812 5.56739L51.9006 5.33851L53.7893 1.71791Z" fill="white" stroke="#F89818"/>
<path d="M69.2681 1.71791L69.2762 1.70243C69.3084 1.64828 69.3564 1.59946 69.4187 1.56295C69.4875 1.52259 69.5692 1.5 69.6544 1.5C69.7396 1.5 69.8213 1.52259 69.8901 1.56295C69.9585 1.6031 70.0098 1.65813 70.0417 1.71877C70.0418 1.7189 70.0418 1.71903 70.0419 1.71916L71.9301 5.3389L72.0495 5.56778L72.3052 5.60298L76.5337 6.18494C76.5338 6.18496 76.5339 6.18498 76.5341 6.18499C76.6179 6.19667 76.6937 6.22991 76.7538 6.27784C76.8137 6.32566 76.8546 6.3854 76.8761 6.44811C76.8975 6.51052 76.8999 6.57635 76.8834 6.63938C76.8668 6.70266 76.8309 6.76404 76.7757 6.81495L76.7756 6.81498L73.7172 9.63161L73.5149 9.81797L73.564 10.0886L74.2856 14.0661C74.2856 14.0662 74.2856 14.0663 74.2856 14.0664C74.2969 14.1297 74.2895 14.1952 74.263 14.2566C74.2363 14.3183 74.1901 14.3759 74.1258 14.42C74.0613 14.4643 73.9823 14.4923 73.8976 14.4982C73.813 14.5041 73.7295 14.4873 73.6571 14.4516C73.657 14.4516 73.6569 14.4515 73.6567 14.4514L69.8775 12.5731L69.655 12.4626L69.4325 12.5731L65.6509 14.4518C65.5785 14.4878 65.4949 14.5047 65.4101 14.4989C65.3254 14.4931 65.2465 14.4651 65.1819 14.4208C65.1176 14.3767 65.0715 14.3191 65.0449 14.2574C65.0185 14.196 65.0112 14.1306 65.0226 14.0673C65.0226 14.0672 65.0226 14.0671 65.0226 14.0671L65.7456 10.0884L65.7948 9.81764L65.5924 9.63122L62.534 6.81459L62.5339 6.81456C62.4787 6.76366 62.4427 6.70227 62.4262 6.639C62.4097 6.57596 62.4121 6.51013 62.4335 6.44772C62.455 6.38502 62.4959 6.32528 62.5558 6.27746C62.616 6.22945 62.6919 6.19619 62.7759 6.18456L67.0043 5.60259L67.2601 5.56739L67.3795 5.33851L69.2681 1.71791Z" fill="white" stroke="#F89818"/>
</svg>
