<svg width="78" height="16" viewBox="0 0 78 16" fill="none" xmlns="http://www.w3.org/2000/svg">
<path d="M6.90944 1.48666L5.0208 5.10726L0.791867 5.68929C0.620945 5.71298 0.460438 5.78136 0.328479 5.88673C0.19652 5.99209 0.0983688 6.13023 0.0451132 6.28554C-0.00814249 6.44084 -0.0143799 6.60713 0.0271057 6.76561C0.0685913 6.9241 0.156146 7.06845 0.27988 7.18238L3.33826 9.99901L2.61523 13.9781C2.58617 14.1389 2.60526 14.3042 2.67036 14.4553C2.73546 14.6063 2.84396 14.7372 2.98362 14.833C3.12327 14.9289 3.28851 14.9859 3.46066 14.9977C3.63281 15.0095 3.80501 14.9755 3.95782 14.8997L7.73963 13.0209L11.5198 14.8997C11.6726 14.9752 11.8447 15.0089 12.0168 14.997C12.1888 14.9851 12.3538 14.928 12.4934 14.8323C12.6329 14.7365 12.7414 14.6058 12.8066 14.4549C12.8718 14.304 12.8911 14.1389 12.8624 13.9781L12.1406 9.9994L15.199 7.18277C15.3227 7.06884 15.4103 6.92448 15.4517 6.766C15.4932 6.60752 15.487 6.44123 15.4337 6.28592C15.3805 6.13062 15.2823 5.99248 15.1504 5.88712C15.0184 5.78175 14.8579 5.71337 14.687 5.68968L10.458 5.10765L8.5694 1.48705C8.49275 1.34081 8.37439 1.21772 8.22767 1.13166C8.08095 1.0456 7.9117 1 7.73901 1C7.56633 1 7.39708 1.0456 7.25035 1.13166C7.10363 1.21772 6.98527 1.34081 6.90862 1.48705L6.90944 1.48666Z" fill="#F89818"/>
<path d="M22.8316 1.71791L22.8397 1.70243C22.8718 1.64828 22.9199 1.59946 22.9822 1.56295C23.0509 1.5226 23.1327 1.5 23.2178 1.5C23.303 1.5 23.3847 1.5226 23.4535 1.56295C23.522 1.60309 23.5733 1.65809 23.6051 1.71871C23.6052 1.71886 23.6053 1.71901 23.6054 1.71916L25.4936 5.3389L25.613 5.56778L25.8687 5.60298L30.0972 6.18494C30.0973 6.18496 30.0974 6.18498 30.0975 6.18499C30.1813 6.19667 30.2572 6.22991 30.3172 6.27784C30.3771 6.32566 30.4181 6.3854 30.4396 6.44811C30.461 6.51052 30.4634 6.57635 30.4469 6.63938C30.4303 6.70266 30.3944 6.76404 30.3391 6.81495L30.3391 6.81498L27.2807 9.63161L27.0783 9.81797L27.1275 10.0886L27.849 14.0661C27.8491 14.0663 27.8491 14.0665 27.8491 14.0667C27.8603 14.1299 27.8529 14.1953 27.8264 14.2566C27.7998 14.3183 27.7536 14.3759 27.6893 14.42C27.6247 14.4643 27.5458 14.4923 27.4611 14.4982C27.3766 14.5041 27.2932 14.4874 27.2208 14.4517C27.2206 14.4516 27.2204 14.4515 27.2202 14.4514L23.441 12.5731L23.2185 12.4626L22.996 12.5731L19.2143 14.4518C19.2143 14.4518 19.2143 14.4519 19.2142 14.4519C19.2142 14.4519 19.2142 14.4519 19.2142 14.4519C19.1418 14.4878 19.0583 14.5047 18.9736 14.4989C18.8889 14.4931 18.8099 14.4651 18.7454 14.4208C18.6811 14.3767 18.635 14.3191 18.6084 14.2574C18.5819 14.196 18.5747 14.1306 18.5861 14.0673C18.5861 14.0672 18.5861 14.0671 18.5861 14.0671L19.309 10.0884L19.3582 9.81764L19.1558 9.63122L16.0974 6.81459L16.0974 6.81456C16.0421 6.76366 16.0062 6.70227 15.9896 6.639C15.9731 6.57596 15.9755 6.51014 15.9969 6.44772C16.0184 6.38502 16.0594 6.32528 16.1193 6.27746L15.81 5.89012L16.1193 6.27746C16.1793 6.22952 16.2552 6.19628 16.339 6.1846C16.3391 6.18459 16.3392 6.18457 16.3393 6.18456L20.5678 5.60259L20.8235 5.56739L20.9429 5.33851L22.8316 1.71791Z" fill="white" stroke="#F89818"/>
<path d="M38.3104 1.71791L38.3185 1.70243C38.3507 1.64828 38.3987 1.59946 38.461 1.56295C38.5298 1.5226 38.6115 1.5 38.6967 1.5C38.7819 1.5 38.8636 1.5226 38.9324 1.56295C39.0008 1.60309 39.0521 1.65809 39.084 1.71871C39.0841 1.71886 39.0841 1.71901 39.0842 1.71916L40.9724 5.3389L41.0918 5.56778L41.3475 5.60298L45.576 6.18494C45.5761 6.18496 45.5762 6.18498 45.5764 6.18499C45.6601 6.19667 45.736 6.22991 45.7961 6.27784C45.8559 6.32566 45.8969 6.3854 45.9184 6.44811C45.9398 6.51052 45.9422 6.57635 45.9257 6.63938C45.9091 6.70266 45.8732 6.76404 45.818 6.81495L45.8179 6.81498L42.7595 9.63161L42.5572 9.81797L42.6063 10.0886L43.3279 14.0661C43.3279 14.0663 43.3279 14.0665 43.328 14.0667C43.3391 14.1299 43.3318 14.1953 43.3053 14.2566C43.2786 14.3183 43.2324 14.3759 43.1681 14.42C43.1036 14.4643 43.0246 14.4923 42.9399 14.4982C42.8554 14.5041 42.772 14.4874 42.6996 14.4517C42.6994 14.4516 42.6992 14.4515 42.699 14.4514L38.9198 12.5731L38.6973 12.4626L38.4748 12.5731L34.6932 14.4518C34.6931 14.4518 34.6931 14.4519 34.6931 14.4519C34.6931 14.4519 34.693 14.4519 34.693 14.4519C34.6207 14.4878 34.5371 14.5047 34.4524 14.4989C34.3677 14.4931 34.2888 14.4651 34.2242 14.4208C34.1599 14.3767 34.1138 14.3191 34.0872 14.2574C34.0608 14.196 34.0535 14.1306 34.0649 14.0673C34.0649 14.0672 34.0649 14.0671 34.0649 14.0671L34.7879 10.0884L34.8371 9.81764L34.6346 9.63122L31.5763 6.81459L31.5762 6.81456C31.521 6.76366 31.485 6.70227 31.4685 6.639C31.452 6.57596 31.4543 6.51014 31.4758 6.44772C31.4973 6.38502 31.5382 6.32528 31.5981 6.27746L31.2889 5.89012L31.5981 6.27746C31.6582 6.22952 31.734 6.19628 31.8178 6.1846C31.8179 6.18459 31.8181 6.18457 31.8182 6.18456L36.0466 5.60259L36.3024 5.56739L36.4218 5.33851L38.3104 1.71791Z" fill="white" stroke="#F89818"/>
<path d="M53.7893 1.71791L53.7974 1.70243C53.8295 1.64828 53.8776 1.59946 53.9398 1.56295C54.0086 1.5226 54.0904 1.5 54.1755 1.5C54.2607 1.5 54.3424 1.5226 54.4112 1.56295C54.4797 1.60309 54.5309 1.65809 54.5628 1.71871C54.5629 1.71886 54.563 1.71901 54.5631 1.71916L56.4513 5.3389L56.5707 5.56778L56.8264 5.60298L61.0549 6.18494C61.055 6.18496 61.0551 6.18498 61.0552 6.18499C61.139 6.19667 61.2149 6.22991 61.2749 6.27784C61.3348 6.32566 61.3758 6.3854 61.3973 6.44811C61.4187 6.51052 61.4211 6.57635 61.4046 6.63938C61.388 6.70266 61.3521 6.76404 61.2968 6.81495L61.2968 6.81498L58.2384 9.63161L58.036 9.81797L58.0851 10.0886L58.8067 14.0661C58.8067 14.0663 58.8068 14.0665 58.8068 14.0667C58.818 14.1299 58.8106 14.1953 58.7841 14.2566C58.7574 14.3183 58.7113 14.3759 58.647 14.42C58.5824 14.4643 58.5034 14.4923 58.4187 14.4982C58.3342 14.5041 58.2509 14.4874 58.1785 14.4517C58.1783 14.4516 58.1781 14.4515 58.1779 14.4514L54.3987 12.5731L54.1762 12.4626L53.9537 12.5731L50.172 14.4518C50.172 14.4518 50.1719 14.4519 50.1719 14.4519C50.1719 14.4519 50.1719 14.4519 50.1719 14.4519C50.0995 14.4878 50.016 14.5047 49.9313 14.4989C49.8466 14.4931 49.7676 14.4651 49.7031 14.4208C49.6388 14.3767 49.5927 14.3191 49.5661 14.2574C49.5396 14.196 49.5323 14.1306 49.5437 14.0673C49.5438 14.0672 49.5438 14.0671 49.5438 14.0671L50.2667 10.0884L50.3159 9.81764L50.1135 9.63122L47.0551 6.81459L47.0551 6.81456C46.9998 6.76366 46.9639 6.70227 46.9473 6.639C46.9308 6.57596 46.9332 6.51014 46.9546 6.44772C46.9761 6.38502 47.0171 6.32528 47.077 6.27746L46.7677 5.89012L47.077 6.27746C47.137 6.22952 47.2129 6.19628 47.2967 6.1846C47.2968 6.18459 47.2969 6.18457 47.297 6.18456L51.5255 5.60259L51.7812 5.56739L51.9006 5.33851L53.7893 1.71791Z" fill="white" stroke="#F89818"/>
<path d="M69.2681 1.71791L69.2762 1.70243C69.3084 1.64828 69.3564 1.59946 69.4187 1.56295C69.4875 1.5226 69.5692 1.5 69.6544 1.5C69.7396 1.5 69.8213 1.5226 69.8901 1.56295C69.9585 1.60309 70.0098 1.65809 70.0417 1.71871C70.0418 1.71886 70.0418 1.71901 70.0419 1.71916L71.9301 5.3389L72.0495 5.56778L72.3052 5.60298L76.5337 6.18494C76.5338 6.18496 76.5339 6.18498 76.5341 6.18499C76.6179 6.19667 76.6937 6.22991 76.7538 6.27784C76.8137 6.32566 76.8546 6.3854 76.8761 6.44811C76.8975 6.51052 76.8999 6.57635 76.8834 6.63938C76.8668 6.70266 76.8309 6.76404 76.7757 6.81495L76.7756 6.81498L73.7172 9.63161L73.5149 9.81797L73.564 10.0886L74.2856 14.0661C74.2856 14.0663 74.2856 14.0665 74.2857 14.0667C74.2969 14.1299 74.2895 14.1953 74.263 14.2566C74.2363 14.3183 74.1901 14.3759 74.1258 14.42C74.0613 14.4643 73.9823 14.4923 73.8976 14.4982C73.8131 14.5041 73.7297 14.4874 73.6573 14.4517C73.6571 14.4516 73.6569 14.4515 73.6567 14.4514L69.8775 12.5731L69.655 12.4626L69.4325 12.5731L65.6509 14.4518C65.6508 14.4518 65.6508 14.4519 65.6508 14.4519C65.6508 14.4519 65.6507 14.4519 65.6507 14.4519C65.5784 14.4878 65.4948 14.5047 65.4101 14.4989C65.3254 14.4931 65.2465 14.4651 65.1819 14.4208C65.1177 14.3767 65.0715 14.3191 65.0449 14.2574C65.0185 14.196 65.0112 14.1306 65.0226 14.0673C65.0226 14.0672 65.0226 14.0671 65.0226 14.0671L65.7456 10.0884L65.7948 9.81764L65.5923 9.63122L62.534 6.81459L62.5339 6.81456C62.4787 6.76366 62.4427 6.70227 62.4262 6.639C62.4097 6.57596 62.4121 6.51014 62.4335 6.44772C62.455 6.38502 62.4959 6.32528 62.5558 6.27746L62.2466 5.89012L62.5558 6.27746C62.6159 6.22952 62.6917 6.19628 62.7755 6.1846C62.7756 6.18459 62.7758 6.18457 62.7759 6.18456L67.0043 5.60259L67.2601 5.56739L67.3795 5.33851L69.2681 1.71791Z" fill="white" stroke="#F89818"/>
</svg>
