<svg width="78" height="16" viewBox="0 0 78 16" fill="none" xmlns="http://www.w3.org/2000/svg">
<path d="M6.90944 1.48666L5.0208 5.10726L0.791867 5.68929C0.620945 5.71298 0.460438 5.78136 0.328479 5.88673C0.19652 5.99209 0.0983688 6.13023 0.0451132 6.28554C-0.00814249 6.44084 -0.0143799 6.60713 0.0271057 6.76561C0.0685913 6.9241 0.156146 7.06845 0.27988 7.18238L3.33826 9.99901L2.61523 13.9781C2.58617 14.1389 2.60526 14.3042 2.67036 14.4553C2.73546 14.6063 2.84396 14.7372 2.98362 14.833C3.12327 14.9289 3.28851 14.9859 3.46066 14.9977C3.63281 15.0095 3.80501 14.9755 3.95782 14.8997L7.73963 13.0209L11.5198 14.8997C11.6726 14.9752 11.8447 15.0089 12.0168 14.997C12.1888 14.9851 12.3538 14.928 12.4934 14.8323C12.6329 14.7365 12.7414 14.6058 12.8066 14.4549C12.8718 14.304 12.8911 14.1389 12.8624 13.9781L12.1406 9.9994L15.199 7.18277C15.3227 7.06884 15.4103 6.92448 15.4517 6.766C15.4932 6.60752 15.487 6.44123 15.4337 6.28592C15.3805 6.13062 15.2823 5.99248 15.1504 5.88712C15.0184 5.78175 14.8579 5.71337 14.687 5.68968L10.458 5.10765L8.5694 1.48705C8.49275 1.34081 8.37439 1.21772 8.22767 1.13166C8.08095 1.0456 7.9117 1 7.73901 1C7.56633 1 7.39708 1.0456 7.25035 1.13166C7.10363 1.21772 6.98527 1.34081 6.90862 1.48705L6.90944 1.48666Z" fill="#F89818"/>
<path d="M22.3883 1.48666L20.4996 5.10726L16.2707 5.68929C16.0998 5.71298 15.9393 5.78136 15.8073 5.88673C15.6754 5.99209 15.5772 6.13023 15.5239 6.28554C15.4707 6.44084 15.4645 6.60713 15.5059 6.76561C15.5474 6.9241 15.635 7.06845 15.7587 7.18238L18.8171 9.99901L18.0941 13.9781C18.065 14.1389 18.0841 14.3042 18.1492 14.4553C18.2143 14.6063 18.3228 14.7372 18.4625 14.833C18.6021 14.9289 18.7673 14.9859 18.9395 14.9977C19.1116 15.0095 19.2838 14.9755 19.4367 14.8997L23.2185 13.0209L26.9986 14.8997C27.1515 14.9752 27.3236 15.0089 27.4956 14.997C27.6676 14.9851 27.8327 14.928 27.9722 14.8323C28.1118 14.7365 28.2203 14.6058 28.2854 14.4549C28.3506 14.304 28.37 14.1389 28.3412 13.9781L27.6194 9.9994L30.6778 7.18277C30.8015 7.06884 30.8891 6.92448 30.9306 6.766C30.9721 6.60752 30.9658 6.44123 30.9126 6.28592C30.8593 6.13062 30.7612 5.99248 30.6292 5.88712C30.4972 5.78175 30.3367 5.71337 30.1658 5.68968L25.9369 5.10765L24.0482 1.48705C23.9716 1.34081 23.8532 1.21772 23.7065 1.13166C23.5598 1.0456 23.3905 1 23.2178 1C23.0452 1 22.8759 1.0456 22.7292 1.13166C22.5825 1.21772 22.4641 1.34081 22.3875 1.48705L22.3883 1.48666Z" fill="#F89818"/>
<path d="M37.8671 1.48666L35.9785 5.10726L31.7495 5.68929C31.5786 5.71298 31.4181 5.78136 31.2862 5.88673C31.1542 5.99209 31.056 6.13023 31.0028 6.28554C30.9495 6.44084 30.9433 6.60713 30.9848 6.76561C31.0263 6.9241 31.1138 7.06845 31.2376 7.18238L34.2959 9.99901L33.5729 13.9781C33.5438 14.1389 33.5629 14.3042 33.628 14.4553C33.6931 14.6063 33.8016 14.7372 33.9413 14.833C34.0809 14.9289 34.2462 14.9859 34.4183 14.9977C34.5905 15.0095 34.7627 14.9755 34.9155 14.8997L38.6973 13.0209L42.4775 14.8997C42.6303 14.9752 42.8024 15.0089 42.9744 14.997C43.1464 14.9851 43.3115 14.928 43.4511 14.8323C43.5906 14.7365 43.6991 14.6058 43.7643 14.4549C43.8295 14.304 43.8488 14.1389 43.82 13.9781L43.0983 9.9994L46.1566 7.18277C46.2804 7.06884 46.3679 6.92448 46.4094 6.766C46.4509 6.60752 46.4447 6.44123 46.3914 6.28592C46.3381 6.13062 46.24 5.99248 46.108 5.88712C45.9761 5.78175 45.8156 5.71337 45.6446 5.68968L41.4157 5.10765L39.5271 1.48705C39.4504 1.34081 39.3321 1.21772 39.1853 1.13166C39.0386 1.0456 38.8694 1 38.6967 1C38.524 1 38.3547 1.0456 38.208 1.13166C38.0613 1.21772 37.9429 1.34081 37.8663 1.48705L37.8671 1.48666Z" fill="#F89818"/>
<path d="M53.7893 1.71791L53.7974 1.70243C53.8295 1.64828 53.8776 1.59946 53.9398 1.56295C54.0086 1.5226 54.0904 1.5 54.1755 1.5C54.2607 1.5 54.3424 1.5226 54.4112 1.56295C54.4797 1.60309 54.5309 1.65809 54.5628 1.71871C54.5629 1.71886 54.563 1.71901 54.5631 1.71916L56.4513 5.3389L56.5707 5.56778L56.8264 5.60298L61.0549 6.18494C61.055 6.18496 61.0551 6.18498 61.0552 6.18499C61.139 6.19667 61.2149 6.22991 61.2749 6.27784C61.3348 6.32566 61.3758 6.3854 61.3973 6.44811C61.4187 6.51052 61.4211 6.57635 61.4046 6.63938C61.388 6.70266 61.3521 6.76404 61.2968 6.81495L61.2968 6.81498L58.2384 9.63161L58.036 9.81797L58.0851 10.0886L58.8067 14.0661C58.8067 14.0663 58.8068 14.0665 58.8068 14.0667C58.818 14.1299 58.8106 14.1953 58.7841 14.2566C58.7574 14.3183 58.7113 14.3759 58.647 14.42C58.5824 14.4643 58.5034 14.4923 58.4187 14.4982C58.3342 14.5041 58.2509 14.4874 58.1785 14.4517C58.1783 14.4516 58.1781 14.4515 58.1779 14.4514L54.3987 12.5731L54.1762 12.4626L53.9537 12.5731L50.172 14.4518C50.172 14.4518 50.1719 14.4519 50.1719 14.4519C50.1719 14.4519 50.1719 14.4519 50.1719 14.4519C50.0995 14.4878 50.016 14.5047 49.9313 14.4989C49.8466 14.4931 49.7676 14.4651 49.7031 14.4208C49.6388 14.3767 49.5927 14.3191 49.5661 14.2574C49.5396 14.196 49.5323 14.1306 49.5437 14.0673C49.5438 14.0672 49.5438 14.0671 49.5438 14.0671L50.2667 10.0884L50.3159 9.81764L50.1135 9.63122L47.0551 6.81459L47.0551 6.81456C46.9998 6.76366 46.9639 6.70227 46.9473 6.639C46.9308 6.57596 46.9332 6.51014 46.9546 6.44772C46.9761 6.38502 47.0171 6.32528 47.077 6.27746L46.7677 5.89012L47.077 6.27746C47.137 6.22952 47.2129 6.19628 47.2967 6.1846C47.2968 6.18459 47.2969 6.18457 47.297 6.18456L51.5255 5.60259L51.7812 5.56739L51.9006 5.33851L53.7893 1.71791Z" fill="white" stroke="#F89818"/>
<path d="M69.2681 1.71791L69.2762 1.70243C69.3084 1.64828 69.3564 1.59946 69.4187 1.56295C69.4875 1.5226 69.5692 1.5 69.6544 1.5C69.7396 1.5 69.8213 1.5226 69.8901 1.56295C69.9585 1.60309 70.0098 1.65809 70.0417 1.71871C70.0418 1.71886 70.0418 1.71901 70.0419 1.71916L71.9301 5.3389L72.0495 5.56778L72.3052 5.60298L76.5337 6.18494C76.5338 6.18496 76.5339 6.18498 76.5341 6.18499C76.6179 6.19667 76.6937 6.22991 76.7538 6.27784C76.8137 6.32566 76.8546 6.3854 76.8761 6.44811C76.8975 6.51052 76.8999 6.57635 76.8834 6.63938C76.8668 6.70266 76.8309 6.76404 76.7757 6.81495L76.7756 6.81498L73.7172 9.63161L73.5149 9.81797L73.564 10.0886L74.2856 14.0661C74.2856 14.0663 74.2856 14.0665 74.2857 14.0667C74.2969 14.1299 74.2895 14.1953 74.263 14.2566C74.2363 14.3183 74.1901 14.3759 74.1258 14.42C74.0613 14.4643 73.9823 14.4923 73.8976 14.4982C73.8131 14.5041 73.7297 14.4874 73.6573 14.4517C73.6571 14.4516 73.6569 14.4515 73.6567 14.4514L69.8775 12.5731L69.655 12.4626L69.4325 12.5731L65.6509 14.4518C65.6508 14.4518 65.6508 14.4519 65.6508 14.4519C65.6508 14.4519 65.6507 14.4519 65.6507 14.4519C65.5784 14.4878 65.4948 14.5047 65.4101 14.4989C65.3254 14.4931 65.2465 14.4651 65.1819 14.4208C65.1177 14.3767 65.0715 14.3191 65.0449 14.2574C65.0185 14.196 65.0112 14.1306 65.0226 14.0673C65.0226 14.0672 65.0226 14.0671 65.0226 14.0671L65.7456 10.0884L65.7948 9.81764L65.5923 9.63122L62.534 6.81459L62.5339 6.81456C62.4787 6.76366 62.4427 6.70227 62.4262 6.639C62.4097 6.57596 62.4121 6.51014 62.4335 6.44772C62.455 6.38502 62.4959 6.32528 62.5558 6.27746L62.2466 5.89012L62.5558 6.27746C62.6159 6.22952 62.6917 6.19628 62.7755 6.1846C62.7756 6.18459 62.7758 6.18457 62.7759 6.18456L67.0043 5.60259L67.2601 5.56739L67.3795 5.33851L69.2681 1.71791Z" fill="white" stroke="#F89818"/>
</svg>
