<svg width="78" height="16" viewBox="0 0 78 16" fill="none" xmlns="http://www.w3.org/2000/svg">
<path d="M6.90944 1.48666L5.0208 5.10726L0.791867 5.68929C0.620945 5.71298 0.460438 5.78136 0.328479 5.88673C0.19652 5.99209 0.0983688 6.13023 0.0451132 6.28554C-0.00814249 6.44084 -0.0143799 6.60713 0.0271057 6.76561C0.0685913 6.9241 0.156146 7.06845 0.27988 7.18238L3.33826 9.99901L2.61523 13.9781C2.58617 14.1389 2.60526 14.3042 2.67036 14.4553C2.73546 14.6063 2.84396 14.7372 2.98362 14.833C3.12327 14.9289 3.28851 14.9859 3.46066 14.9977C3.63281 15.0095 3.80501 14.9755 3.95782 14.8997L7.73963 13.0209L11.5198 14.8997C11.6726 14.9752 11.8447 15.0089 12.0168 14.997C12.1888 14.9851 12.3538 14.928 12.4934 14.8323C12.6329 14.7365 12.7414 14.6058 12.8066 14.4549C12.8718 14.304 12.8911 14.1389 12.8624 13.9781L12.1406 9.9994L15.199 7.18277C15.3227 7.06884 15.4103 6.92448 15.4517 6.766C15.4932 6.60752 15.487 6.44123 15.4337 6.28592C15.3805 6.13062 15.2823 5.99248 15.1504 5.88712C15.0184 5.78175 14.8579 5.71337 14.687 5.68968L10.458 5.10765L8.5694 1.48705C8.49275 1.34081 8.37439 1.21772 8.22767 1.13166C8.08095 1.0456 7.9117 1 7.73901 1C7.56633 1 7.39708 1.0456 7.25035 1.13166C7.10363 1.21772 6.98527 1.34081 6.90862 1.48705L6.90944 1.48666Z" fill="#F89818"/>
<path d="M22.3883 1.48666L20.4996 5.10726L16.2707 5.68929C16.0998 5.71298 15.9393 5.78136 15.8073 5.88673C15.6754 5.99209 15.5772 6.13023 15.5239 6.28554C15.4707 6.44084 15.4645 6.60713 15.5059 6.76561C15.5474 6.9241 15.635 7.06845 15.7587 7.18238L18.8171 9.99901L18.0941 13.9781C18.065 14.1389 18.0841 14.3042 18.1492 14.4553C18.2143 14.6063 18.3228 14.7372 18.4625 14.833C18.6021 14.9289 18.7673 14.9859 18.9395 14.9977C19.1116 15.0095 19.2838 14.9755 19.4367 14.8997L23.2185 13.0209L26.9986 14.8997C27.1515 14.9752 27.3236 15.0089 27.4956 14.997C27.6676 14.9851 27.8327 14.928 27.9722 14.8323C28.1118 14.7365 28.2203 14.6058 28.2854 14.4549C28.3506 14.304 28.37 14.1389 28.3412 13.9781L27.6194 9.9994L30.6778 7.18277C30.8015 7.06884 30.8891 6.92448 30.9306 6.766C30.9721 6.60752 30.9658 6.44123 30.9126 6.28592C30.8593 6.13062 30.7612 5.99248 30.6292 5.88712C30.4972 5.78175 30.3367 5.71337 30.1658 5.68968L25.9369 5.10765L24.0482 1.48705C23.9716 1.34081 23.8532 1.21772 23.7065 1.13166C23.5598 1.0456 23.3905 1 23.2178 1C23.0452 1 22.8759 1.0456 22.7292 1.13166C22.5825 1.21772 22.4641 1.34081 22.3875 1.48705L22.3883 1.48666Z" fill="#F89818"/>
<path d="M37.8671 1.48666L35.9785 5.10726L31.7495 5.68929C31.5786 5.71298 31.4181 5.78136 31.2862 5.88673C31.1542 5.99209 31.056 6.13023 31.0028 6.28554C30.9495 6.44084 30.9433 6.60713 30.9848 6.76561C31.0263 6.9241 31.1138 7.06845 31.2376 7.18238L34.2959 9.99901L33.5729 13.9781C33.5438 14.1389 33.5629 14.3042 33.628 14.4553C33.6931 14.6063 33.8016 14.7372 33.9413 14.833C34.0809 14.9289 34.2462 14.9859 34.4183 14.9977C34.5905 15.0095 34.7627 14.9755 34.9155 14.8997L38.6973 13.0209L42.4775 14.8997C42.6303 14.9752 42.8024 15.0089 42.9744 14.997C43.1464 14.9851 43.3115 14.928 43.4511 14.8323C43.5906 14.7365 43.6991 14.6058 43.7643 14.4549C43.8295 14.304 43.8488 14.1389 43.82 13.9781L43.0983 9.9994L46.1566 7.18277C46.2804 7.06884 46.3679 6.92448 46.4094 6.766C46.4509 6.60752 46.4447 6.44123 46.3914 6.28592C46.3381 6.13062 46.24 5.99248 46.108 5.88712C45.9761 5.78175 45.8156 5.71337 45.6446 5.68968L41.4157 5.10765L39.5271 1.48705C39.4504 1.34081 39.3321 1.21772 39.1853 1.13166C39.0386 1.0456 38.8694 1 38.6967 1C38.524 1 38.3547 1.0456 38.208 1.13166C38.0613 1.21772 37.9429 1.34081 37.8663 1.48705L37.8671 1.48666Z" fill="#F89818"/>
<path d="M53.346 1.48666L51.4573 5.10726L47.2284 5.68929C47.0575 5.71298 46.897 5.78136 46.765 5.88673C46.633 5.99209 46.5349 6.13023 46.4816 6.28554C46.4284 6.44084 46.4221 6.60713 46.4636 6.76561C46.5051 6.9241 46.5927 7.06845 46.7164 7.18238L49.7748 9.99901L49.0518 13.9781C49.0227 14.1389 49.0418 14.3042 49.1069 14.4553C49.172 14.6063 49.2805 14.7372 49.4201 14.833C49.5598 14.9289 49.725 14.9859 49.8972 14.9977C50.0693 15.0095 50.2415 14.9755 50.3943 14.8997L54.1761 13.0209L57.9563 14.8997C58.1091 14.9752 58.2813 15.0089 58.4533 14.997C58.6253 14.9851 58.7904 14.928 58.9299 14.8323C59.0695 14.7365 59.1779 14.6058 59.2431 14.4549C59.3083 14.304 59.3276 14.1389 59.2989 13.9781L58.5771 9.9994L61.6355 7.18277C61.7592 7.06884 61.8468 6.92448 61.8883 6.766C61.9297 6.60752 61.9235 6.44123 61.8703 6.28592C61.817 6.13062 61.7188 5.99248 61.5869 5.88712C61.4549 5.78175 61.2944 5.71337 61.1235 5.68968L56.8946 5.10765L55.0059 1.48705C54.9293 1.34081 54.8109 1.21772 54.6642 1.13166C54.5175 1.0456 54.3482 1 54.1755 1C54.0028 1 53.8336 1.0456 53.6869 1.13166C53.5402 1.21772 53.4218 1.34081 53.3451 1.48705L53.346 1.48666Z" fill="#F89818"/>
<path d="M68.8248 1.48666L66.9362 5.10726L62.7072 5.68929C62.5363 5.71298 62.3758 5.78136 62.2439 5.88673C62.1119 5.99209 62.0137 6.13023 61.9605 6.28554C61.9072 6.44084 61.901 6.60713 61.9425 6.76561C61.984 6.9241 62.0715 7.06845 62.1953 7.18238L65.2536 9.99901L64.5306 13.9781C64.5015 14.1389 64.5206 14.3042 64.5857 14.4553C64.6508 14.6063 64.7593 14.7372 64.899 14.833C65.0386 14.9289 65.2039 14.9859 65.376 14.9977C65.5482 15.0095 65.7204 14.9755 65.8732 14.8997L69.655 13.0209L73.4352 14.8997C73.588 14.9752 73.7601 15.0089 73.9321 14.997C74.1041 14.9851 74.2692 14.928 74.4088 14.8323C74.5483 14.7365 74.6568 14.6058 74.722 14.4549C74.7872 14.304 74.8065 14.1389 74.7778 13.9781L74.056 9.9994L77.1143 7.18277C77.2381 7.06884 77.3256 6.92448 77.3671 6.766C77.4086 6.60752 77.4024 6.44123 77.3491 6.28592C77.2958 6.13062 77.1977 5.99248 77.0657 5.88712C76.9338 5.78175 76.7733 5.71337 76.6024 5.68968L72.3734 5.10765L70.4848 1.48705C70.4081 1.34081 70.2898 1.21772 70.143 1.13166C69.9963 1.0456 69.8271 1 69.6544 1C69.4817 1 69.3124 1.0456 69.1657 1.13166C69.019 1.21772 68.9006 1.34081 68.824 1.48705L68.8248 1.48666Z" fill="#F89818"/>
</svg>
