<svg width="20" height="21" viewBox="0 0 20 21" fill="none" xmlns="http://www.w3.org/2000/svg">
<g clip-path="url(#clip0_125_15817)">
<path d="M18.7979 9.09622C18.7161 9.08294 18.6333 9.07681 18.5504 9.07789H4.44077L4.74844 8.93479C5.04916 8.79244 5.32276 8.59874 5.55695 8.36239L9.51363 4.4057C10.0347 3.90826 10.1223 3.10802 9.72112 2.50964C9.25422 1.872 8.35882 1.73356 7.72114 2.20046C7.66961 2.2382 7.62067 2.27934 7.57464 2.32362L0.419694 9.47856C-0.139465 10.0371 -0.139957 10.9431 0.418576 11.5023L0.419694 11.5034L7.57464 18.6584C8.13425 19.2164 9.04029 19.2151 9.59837 18.6555C9.64229 18.6115 9.68329 18.5646 9.72112 18.5153C10.1223 17.9169 10.0347 17.1166 9.51363 16.6192L5.5641 12.6554C5.35416 12.4452 5.11277 12.269 4.84861 12.133L4.41931 11.9399H18.4716C19.2026 11.967 19.844 11.4564 19.9813 10.7378C20.1078 9.95772 19.578 9.22277 18.7979 9.09622Z" fill="black"/>
</g>
<defs>
<clipPath id="clip0_125_15817">
<rect width="20" height="20" fill="white" transform="translate(0 0.5)"/>
</clipPath>
</defs>
</svg>
