<svg width="30" height="31" viewBox="0 0 30 31" fill="none" xmlns="http://www.w3.org/2000/svg">
<g clip-path="url(#clip0_177_3124)">
<path d="M27.3633 0.5H2.63672C1.18283 0.5 0 1.68289 0 3.13672V4.47588C0 6.64502 0.746133 8.7725 2.10135 10.4662C3.2284 11.875 4.83146 12.9784 6.61541 13.573L7.54693 13.8834C8.62887 15.6462 10.3258 17.0042 12.3633 17.6492V19.0156C12.3633 19.5002 11.9689 19.8945 11.4844 19.8945C10.0305 19.8945 8.84766 21.0774 8.84766 22.5312V23.4102H7.96875C7.4833 23.4102 7.08984 23.8036 7.08984 24.2891V28.7422H6.21094C5.72549 28.7422 5.33203 29.1356 5.33203 29.6211C5.33203 30.1065 5.72549 30.5 6.21094 30.5H23.7891C24.2745 30.5 24.668 30.1065 24.668 29.6211C24.668 29.1356 24.2745 28.7422 23.7891 28.7422H22.9102V24.2891C22.9102 23.8036 22.5167 23.4102 22.0312 23.4102H21.1523V22.5312C21.1523 21.0774 19.9695 19.8945 18.5156 19.8945C18.0311 19.8945 17.6367 19.5002 17.6367 19.0156V17.6492C19.6719 17.0049 21.3673 15.6494 22.4494 13.8894L23.4318 13.5767L23.443 13.573C25.2006 12.9871 26.7414 11.9127 27.8987 10.4662C29.2539 8.7725 30 6.64502 30 4.47588V3.13672C30 1.68283 28.8171 0.5 27.3633 0.5ZM3.47402 9.36805C2.36725 7.98465 1.75781 6.24746 1.75781 4.47588V3.13672C1.75781 2.65215 2.15215 2.25781 2.63672 2.25781H5.42426L6.31875 10.308C6.37092 10.7735 6.46079 11.234 6.58746 11.685C5.35834 11.1684 4.26826 10.3607 3.47402 9.36805ZM8.84766 28.7422V25.168H21.1523V28.7422H8.84766ZM16.5608 16.1221C16.367 16.1666 16.194 16.2756 16.0702 16.4312C15.9463 16.5867 15.8789 16.7797 15.8789 16.9786V19.0156C15.8789 20.4695 17.0618 21.6523 18.5156 21.6523C19.0002 21.6523 19.3945 22.0467 19.3945 22.5312V23.4102H10.6055V22.5312C10.6055 22.0467 10.9998 21.6523 11.4844 21.6523C12.9383 21.6523 14.1211 20.4695 14.1211 19.0156V16.9786C14.1211 16.5691 13.8384 16.2139 13.4392 16.1221C10.5506 15.4574 8.39127 13.043 8.06578 10.1139L7.19285 2.25781H22.8071L21.9342 10.1139C21.6087 13.0429 19.4495 15.4574 16.5608 16.1221V16.1221ZM28.2422 4.47588C28.2422 6.24746 27.6327 7.98465 26.526 9.36805C25.7007 10.401 24.6268 11.2075 23.4047 11.7122C23.5355 11.2526 23.628 10.7829 23.6813 10.3081L24.5757 2.25781H27.3633C27.8479 2.25781 28.2422 2.65215 28.2422 3.13672V4.47588Z" fill="#A3B7D5"/>
<path d="M18.6389 6.51819L16.6639 6.23812L15.7844 4.49812C15.711 4.35301 15.5989 4.23108 15.4604 4.1459C15.322 4.06072 15.1626 4.01562 15 4.01562C14.8374 4.01562 14.678 4.06072 14.5395 4.1459C14.401 4.23108 14.2889 4.35301 14.2156 4.49812L13.336 6.23812L11.3608 6.51819C11.1973 6.54143 11.0437 6.61024 10.9175 6.71675C10.7913 6.82325 10.6977 6.96314 10.6473 7.12039C10.597 7.27764 10.5919 7.44589 10.6328 7.60588C10.6736 7.76587 10.7587 7.91112 10.8783 8.02499L12.2951 9.37335L11.9616 11.2714C11.9333 11.4325 11.9505 11.5984 12.0112 11.7502C12.072 11.9021 12.1739 12.034 12.3055 12.1311C12.4372 12.2281 12.5934 12.2865 12.7564 12.2996C12.9194 12.3128 13.0829 12.2802 13.2284 12.2055L15 11.2961L16.7713 12.2055C16.9168 12.2802 17.0802 12.3128 17.2433 12.2997C17.4063 12.2865 17.5625 12.2281 17.6941 12.1311C17.8258 12.034 17.9278 11.9021 17.9886 11.7502C18.0494 11.5983 18.0666 11.4325 18.0384 11.2714L17.705 9.37329L19.1215 8.02493C19.2411 7.91112 19.3263 7.76589 19.3672 7.6059C19.408 7.4459 19.403 7.27762 19.3526 7.12036C19.3022 6.96308 19.2086 6.82318 19.0823 6.71668C18.9561 6.61018 18.8025 6.54139 18.6389 6.51819ZM16.1519 8.4246C16.0469 8.52448 15.9682 8.64879 15.9229 8.78645C15.8776 8.92411 15.867 9.07084 15.8922 9.21357L16.0011 9.83431L15.4012 9.52646C15.277 9.46271 15.1395 9.42946 14.9999 9.42946C14.8603 9.42946 14.7227 9.46271 14.5985 9.52646L13.9986 9.83431L14.1078 9.21357C14.1586 8.92353 14.0611 8.62763 13.848 8.4246L13.4056 8.00366L14.037 7.91401C14.1772 7.89416 14.3105 7.84073 14.4256 7.75826C14.5406 7.6758 14.634 7.56675 14.6979 7.4404L15 6.8428L15.3019 7.44017C15.3657 7.56655 15.4592 7.67563 15.5743 7.75813C15.6894 7.84062 15.8227 7.89408 15.9629 7.91396L16.5944 8.00349L16.1519 8.4246Z" fill="#A3B7D5"/>
</g>
<defs>
<clipPath id="clip0_177_3124">
<rect width="30" height="30" fill="white" transform="translate(0 0.5)"/>
</clipPath>
</defs>
</svg>
