<svg width="14" height="8" viewBox="0 0 14 8" fill="none" xmlns="http://www.w3.org/2000/svg">
<path d="M7.70997 7.53876L13.36 1.87876C13.4537 1.7858 13.5281 1.6752 13.5789 1.55334C13.6296 1.43148 13.6558 1.30077 13.6558 1.16876C13.6558 1.03675 13.6296 0.906044 13.5789 0.784184C13.5281 0.662325 13.4537 0.551724 13.36 0.458761C13.1726 0.27251 12.9192 0.167969 12.655 0.167969C12.3908 0.167969 12.1373 0.27251 11.95 0.458761L6.94997 5.40876L1.99998 0.458761C1.81262 0.27251 1.55917 0.167968 1.29498 0.167968C1.0308 0.167968 0.777345 0.27251 0.589983 0.458761C0.495495 0.551375 0.420324 0.66182 0.368828 0.783696C0.317331 0.905571 0.290533 1.03645 0.289984 1.16876C0.290533 1.30107 0.317331 1.43195 0.368828 1.55383C0.420324 1.6757 0.495495 1.78615 0.589983 1.87876L6.23997 7.53876C6.33362 7.64026 6.44727 7.72127 6.57377 7.77668C6.70027 7.83209 6.83687 7.86069 6.97497 7.86069C7.11307 7.86069 7.24968 7.83209 7.37618 7.77668C7.50268 7.72127 7.61633 7.64026 7.70997 7.53876Z" fill="#B2B2B2"/>
</svg>
