<svg width="12" height="11" viewBox="0 0 12 11" fill="none" xmlns="http://www.w3.org/2000/svg">
<g clip-path="url(#clip0_128_29840)">
<path d="M9.78281 0.8125H9.29531V0H8.48281V0.8125H3.12031V0H2.30781V0.8125H1.82031C1.14829 0.8125 0.601562 1.35923 0.601562 2.03125V9.18125C0.601562 9.85327 1.14829 10.4 1.82031 10.4H9.78281C10.4548 10.4 11.0016 9.85327 11.0016 9.18125V2.03125C11.0016 1.35923 10.4548 0.8125 9.78281 0.8125ZM10.1891 9.18125C10.1891 9.40526 10.0068 9.5875 9.78281 9.5875H1.82031C1.59631 9.5875 1.41406 9.40526 1.41406 9.18125V3.81875H10.1891V9.18125ZM10.1891 3.00625H1.41406V2.03125C1.41406 1.80724 1.59631 1.625 1.82031 1.625H2.30781V2.4375H3.12031V1.625H8.48281V2.4375H9.29531V1.625H9.78281C10.0068 1.625 10.1891 1.80724 10.1891 2.03125V3.00625Z" fill="#A3B7D5"/>
<path d="M2.95703 4.67188H2.14453V5.48438H2.95703V4.67188Z" fill="#A3B7D5"/>
<path d="M4.58203 4.67188H3.76953V5.48438H4.58203V4.67188Z" fill="#A3B7D5"/>
<path d="M6.20703 4.67188H5.39453V5.48438H6.20703V4.67188Z" fill="#A3B7D5"/>
<path d="M7.83203 4.67188H7.01953V5.48438H7.83203V4.67188Z" fill="#A3B7D5"/>
<path d="M9.45703 4.67188H8.64453V5.48438H9.45703V4.67188Z" fill="#A3B7D5"/>
<path d="M2.95703 6.29688H2.14453V7.10937H2.95703V6.29688Z" fill="#A3B7D5"/>
<path d="M4.58203 6.29688H3.76953V7.10937H4.58203V6.29688Z" fill="#A3B7D5"/>
<path d="M6.20703 6.29688H5.39453V7.10937H6.20703V6.29688Z" fill="#A3B7D5"/>
<path d="M7.83203 6.29688H7.01953V7.10937H7.83203V6.29688Z" fill="#A3B7D5"/>
<path d="M2.95703 7.92188H2.14453V8.73438H2.95703V7.92188Z" fill="#A3B7D5"/>
<path d="M4.58203 7.92188H3.76953V8.73438H4.58203V7.92188Z" fill="#A3B7D5"/>
<path d="M6.20703 7.92188H5.39453V8.73438H6.20703V7.92188Z" fill="#A3B7D5"/>
<path d="M7.83203 7.92188H7.01953V8.73438H7.83203V7.92188Z" fill="#A3B7D5"/>
<path d="M9.45703 6.29688H8.64453V7.10937H9.45703V6.29688Z" fill="#A3B7D5"/>
</g>
<defs>
<clipPath id="clip0_128_29840">
<rect width="10.4" height="10.4" fill="white" transform="translate(0.601562)"/>
</clipPath>
</defs>
</svg>
