<svg xmlns="http://www.w3.org/2000/svg" width="120" height="120" viewBox="0 0 120 120" version="1.1"><path d="M 35.473 37.398 C 34.388 38.166, 31.250 41.538, 28.500 44.891 C 23.649 50.805, 23.358 50.986, 18.705 50.993 C 14.898 50.999, 13.381 51.528, 11.348 53.561 C 8.967 55.942, 8.814 56.651, 9.169 63.669 C 9.511 70.448, 9.833 71.459, 12.331 73.608 C 13.860 74.924, 16.211 76, 17.556 76 C 19.614 76, 20 75.518, 20 72.950 C 20 64.030, 29.200 58.395, 38.132 61.844 C 41.707 63.225, 45.105 68.260, 45.321 72.500 L 45.500 75.991 61.750 75.996 L 78 76 78 72.904 C 78 62.181, 91.885 56.685, 99.567 64.367 C 101.843 66.643, 103.148 69.073, 103.595 71.867 C 104.360 76.650, 105.167 76.924, 108.545 73.545 C 110.600 71.491, 111 70.124, 111 65.156 C 111 56.303, 109.741 55.225, 96.607 52.838 L 85.792 50.871 76.858 43.436 L 67.924 36 52.685 36 C 41.241 36, 36.954 36.348, 35.473 37.398 M 34.187 44.643 C 31.953 47.256, 30.349 49.756, 30.622 50.197 C 30.895 50.639, 34.008 51, 37.540 51 C 43.469 51, 44.008 50.817, 44.559 48.621 C 44.887 47.312, 45.009 44.950, 44.828 43.371 C 44.554 40.973, 43.985 40.450, 41.374 40.196 C 38.713 39.937, 37.644 40.599, 34.187 44.643 M 50.667 40.667 C 50.300 41.033, 50 42.797, 50 44.585 C 50 51.025, 49.945 51, 64.107 51 C 71.536 51, 77 50.599, 77 50.055 C 77 49.535, 74.484 47.060, 71.408 44.555 C 65.918 40.082, 65.686 40, 58.575 40 C 54.592 40, 51.033 40.300, 50.667 40.667 M 51.323 56.601 C 50.549 58.617, 52.741 60.097, 56 59.759 C 57.731 59.580, 58.598 58.808, 58.820 57.250 C 59.100 55.274, 58.700 55, 55.538 55 C 53.159 55, 51.729 55.543, 51.323 56.601 M 25.766 65.918 C 21.029 70.151, 21.029 76.849, 25.766 81.082 C 30.436 85.255, 35.108 85.092, 39.600 80.600 C 44.330 75.870, 44.330 71.130, 39.600 66.400 C 35.108 61.908, 30.436 61.745, 25.766 65.918 M 86 64.273 C 82.872 65.828, 79.603 72.283, 80.379 75.373 C 83.407 87.437, 101 85.921, 101 73.597 C 101 65.742, 93.021 60.782, 86 64.273 M 29.200 70.200 C 26.395 73.005, 28.508 78, 32.500 78 C 36.492 78, 38.605 73.005, 35.800 70.200 C 35.140 69.540, 33.655 69, 32.500 69 C 31.345 69, 29.860 69.540, 29.200 70.200 M 87.046 70.445 C 85.492 72.317, 86.059 76.020, 88.095 77.295 C 88.973 77.845, 90.855 78.002, 92.279 77.645 C 97.507 76.333, 96.497 69, 91.087 69 C 89.524 69, 87.705 69.650, 87.046 70.445" stroke="none" fill="#f7f8f9" fill-rule="evenodd"/><path d="M 45 1.576 C 23.922 7.112, 6.343 24.717, 1.537 45.103 C -0.404 53.341, -0.415 66.948, 1.515 74.540 C 5.653 90.818, 17.259 105.748, 31.603 113.243 C 61.447 128.838, 98.869 116.990, 113.765 87.231 C 116.025 82.714, 118.180 76.984, 118.553 74.497 C 118.926 72.010, 119.629 69.729, 120.115 69.429 C 120.602 69.128, 121 64.334, 121 58.774 C 121 53.215, 120.688 48.979, 120.307 49.360 C 119.926 49.741, 119.021 47.679, 118.297 44.776 C 113.163 24.212, 95.210 6.326, 74.897 1.537 C 66.904 -0.347, 52.249 -0.328, 45 1.576 M 35.473 37.398 C 34.388 38.166, 31.250 41.538, 28.500 44.891 C 23.649 50.805, 23.358 50.986, 18.705 50.993 C 14.898 50.999, 13.381 51.528, 11.348 53.561 C 8.967 55.942, 8.814 56.651, 9.169 63.669 C 9.511 70.448, 9.833 71.459, 12.331 73.608 C 13.860 74.924, 16.211 76, 17.556 76 C 19.614 76, 20 75.518, 20 72.950 C 20 64.030, 29.200 58.395, 38.132 61.844 C 41.707 63.225, 45.105 68.260, 45.321 72.500 L 45.500 75.991 61.750 75.996 L 78 76 78 72.904 C 78 62.181, 91.885 56.685, 99.567 64.367 C 101.843 66.643, 103.148 69.073, 103.595 71.867 C 104.360 76.650, 105.167 76.924, 108.545 73.545 C 110.600 71.491, 111 70.124, 111 65.156 C 111 56.303, 109.741 55.225, 96.607 52.838 L 85.792 50.871 76.858 43.436 L 67.924 36 52.685 36 C 41.241 36, 36.954 36.348, 35.473 37.398 M 34.187 44.643 C 31.953 47.256, 30.349 49.756, 30.622 50.197 C 30.895 50.639, 34.008 51, 37.540 51 C 43.469 51, 44.008 50.817, 44.559 48.621 C 44.887 47.312, 45.009 44.950, 44.828 43.371 C 44.554 40.973, 43.985 40.450, 41.374 40.196 C 38.713 39.937, 37.644 40.599, 34.187 44.643 M 50.667 40.667 C 50.300 41.033, 50 42.797, 50 44.585 C 50 51.025, 49.945 51, 64.107 51 C 71.536 51, 77 50.599, 77 50.055 C 77 49.535, 74.484 47.060, 71.408 44.555 C 65.918 40.082, 65.686 40, 58.575 40 C 54.592 40, 51.033 40.300, 50.667 40.667 M 0.370 60 C 0.370 65.775, 0.535 68.138, 0.737 65.250 C 0.939 62.362, 0.939 57.638, 0.737 54.750 C 0.535 51.862, 0.370 54.225, 0.370 60 M 51.323 56.601 C 50.549 58.617, 52.741 60.097, 56 59.759 C 57.731 59.580, 58.598 58.808, 58.820 57.250 C 59.100 55.274, 58.700 55, 55.538 55 C 53.159 55, 51.729 55.543, 51.323 56.601 M 25.766 65.918 C 21.029 70.151, 21.029 76.849, 25.766 81.082 C 30.436 85.255, 35.108 85.092, 39.600 80.600 C 44.330 75.870, 44.330 71.130, 39.600 66.400 C 35.108 61.908, 30.436 61.745, 25.766 65.918 M 86 64.273 C 82.872 65.828, 79.603 72.283, 80.379 75.373 C 83.407 87.437, 101 85.921, 101 73.597 C 101 65.742, 93.021 60.782, 86 64.273 M 29.200 70.200 C 26.395 73.005, 28.508 78, 32.500 78 C 36.492 78, 38.605 73.005, 35.800 70.200 C 35.140 69.540, 33.655 69, 32.500 69 C 31.345 69, 29.860 69.540, 29.200 70.200 M 87.046 70.445 C 85.492 72.317, 86.059 76.020, 88.095 77.295 C 88.973 77.845, 90.855 78.002, 92.279 77.645 C 97.507 76.333, 96.497 69, 91.087 69 C 89.524 69, 87.705 69.650, 87.046 70.445" stroke="none" fill="#758ca4" fill-rule="evenodd"/></svg>