<svg width="20" height="21" viewBox="0 0 20 21" fill="none" xmlns="http://www.w3.org/2000/svg">
<circle cx="10" cy="10.5" r="10" fill="#FF6368"/>
<g clip-path="url(#clip0_927_4470)">
<path d="M13.2164 8.35538H5.32115L6.93649 6.74004C6.99055 6.68598 7.03344 6.6218 7.0627 6.55116C7.09196 6.48052 7.10702 6.40481 7.10702 6.32835C7.10702 6.25189 7.09196 6.17618 7.0627 6.10554C7.03344 6.0349 6.99055 5.97072 6.93649 5.91666C6.88242 5.86258 6.81823 5.81969 6.74759 5.79042C6.67694 5.76116 6.60123 5.74609 6.52476 5.74609C6.44829 5.74609 6.37258 5.76116 6.30193 5.79042C6.23129 5.81969 6.1671 5.86258 6.11303 5.91666L3.50385 8.52597C3.44979 8.58003 3.4069 8.64422 3.37764 8.71485C3.34838 8.78549 3.33332 8.8612 3.33332 8.93766C3.33332 9.01412 3.34838 9.08983 3.37764 9.16047C3.4069 9.23111 3.44979 9.29529 3.50385 9.34935L6.11303 11.9585C6.16703 12.0127 6.23121 12.0556 6.30186 12.0849C6.37251 12.1142 6.44825 12.1292 6.52473 12.1291C6.63988 12.1291 6.75245 12.0949 6.84819 12.0309C6.94394 11.967 7.01856 11.876 7.06263 11.7696C7.1067 11.6633 7.11823 11.5462 7.09576 11.4333C7.0733 11.3203 7.01785 11.2166 6.93642 11.1351L5.32109 9.51982H13.2164C14.4767 9.51982 15.5022 10.5452 15.5022 11.8056C15.5022 13.066 14.4767 14.0914 13.2164 14.0914H8.41357C8.092 14.0914 7.83136 14.352 7.83136 14.6736C7.83136 14.9952 8.092 15.2558 8.41357 15.2558H13.2164C15.1188 15.2558 16.6666 13.708 16.6666 11.8056C16.6666 9.90317 15.1189 8.35538 13.2164 8.35538Z" fill="white"/>
</g>
<defs>
<clipPath id="clip0_927_4470">
<rect width="13.3333" height="13.3333" fill="white" transform="translate(3.33333 3.83398)"/>
</clipPath>
</defs>
</svg>
