<svg width="20" height="20" viewBox="0 0 20 20" fill="none" xmlns="http://www.w3.org/2000/svg">
<circle cx="10" cy="10" r="10" fill="#FF6368"/>
<g clip-path="url(#clip0_1079_5069)">
<path d="M6.78352 7.8544H14.6788L13.0635 6.23907C13.0094 6.185 12.9665 6.12082 12.9373 6.05018C12.908 5.97954 12.8929 5.90383 12.8929 5.82737C12.8929 5.75091 12.908 5.6752 12.9373 5.60457C12.9665 5.53393 13.0094 5.46974 13.0635 5.41568C13.1175 5.36161 13.1817 5.31871 13.2524 5.28945C13.323 5.26018 13.3987 5.24512 13.4752 5.24512C13.5517 5.24512 13.6274 5.26018 13.698 5.28945C13.7687 5.31871 13.8328 5.36161 13.8869 5.41568L16.4961 8.02499C16.5502 8.07906 16.593 8.14324 16.6223 8.21388C16.6516 8.28452 16.6666 8.36023 16.6666 8.43668C16.6666 8.51314 16.6516 8.58885 16.6223 8.65949C16.593 8.73013 16.5502 8.79431 16.4961 8.84838L13.8869 11.4576C13.8329 11.5117 13.7687 11.5547 13.6981 11.5839C13.6274 11.6132 13.5517 11.6282 13.4752 11.6281C13.3601 11.6281 13.2475 11.5939 13.1518 11.53C13.056 11.466 12.9814 11.3751 12.9373 11.2687C12.8932 11.1623 12.8817 11.0452 12.9042 10.9323C12.9266 10.8193 12.9821 10.7156 13.0635 10.6342L14.6789 9.01884H6.78358C5.52321 9.01884 4.49779 10.0443 4.49779 11.3046C4.49779 12.565 5.52321 13.5904 6.78358 13.5904H11.5864C11.908 13.5904 12.1686 13.8511 12.1686 14.1726C12.1686 14.4942 11.908 14.7549 11.5864 14.7549H6.78358C4.88115 14.7549 3.33335 13.2071 3.33335 11.3046C3.33335 9.4022 4.88109 7.8544 6.78352 7.8544Z" fill="white"/>
</g>
<defs>
<clipPath id="clip0_1079_5069">
<rect width="13.3333" height="13.3333" fill="white" transform="matrix(-1 0 0 1 16.6666 3.33301)"/>
</clipPath>
</defs>
</svg>
