<svg width="20" height="20" viewBox="0 0 20 20" fill="none" xmlns="http://www.w3.org/2000/svg">
<path d="M9.99935 -0.000976562C8.02147 -0.000976563 6.08801 0.585532 4.44347 1.68438C2.79892 2.78323 1.51716 4.34507 0.760257 6.17239C0.00335645 7.99971 -0.194683 10.0104 0.191181 11.9503C0.577046 13.8902 1.52948 15.6721 2.92805 17.0706C4.32662 18.4692 6.10851 19.4216 8.04838 19.8075C9.98826 20.1934 11.999 19.9953 13.8263 19.2384C15.6536 18.4815 17.2155 17.1998 18.3143 15.5552C19.4132 13.9107 19.9997 11.9772 19.9997 9.99934C19.9965 7.34805 18.9419 4.80625 17.0672 2.9315C15.1924 1.05676 12.6506 0.00215124 9.99935 -0.000976562V-0.000976562ZM9.99935 18.1814C8.38109 18.1814 6.79916 17.7016 5.45363 16.8025C4.10809 15.9034 3.05937 14.6256 2.44009 13.1305C1.82081 11.6354 1.65878 9.99027 1.97448 8.4031C2.29019 6.81593 3.06946 5.35802 4.21374 4.21374C5.35803 3.06945 6.81594 2.29019 8.4031 1.97448C9.99027 1.65877 11.6354 1.8208 13.1305 2.44009C14.6256 3.05937 15.9034 4.10809 16.8025 5.45362C17.7016 6.79916 18.1814 8.38108 18.1814 9.99934C18.1788 12.1686 17.3159 14.2482 15.782 15.782C14.2482 17.3159 12.1686 18.1788 9.99935 18.1814V18.1814Z" fill="#0E1826"/>
<path d="M10.9081 9.62247V4.54413C10.9081 4.30302 10.8123 4.07178 10.6418 3.90129C10.4713 3.73079 10.2401 3.63501 9.99896 3.63501C9.75785 3.63501 9.52661 3.73079 9.35612 3.90129C9.18563 4.07178 9.08984 4.30302 9.08984 4.54413V9.99885C9.0899 10.2399 9.18571 10.4711 9.35622 10.6416L12.0836 13.369C12.255 13.5346 12.4847 13.6262 12.7231 13.6241C12.9614 13.6221 13.1894 13.5264 13.358 13.3579C13.5266 13.1893 13.6222 12.9613 13.6242 12.7229C13.6263 12.4846 13.5347 12.2549 13.3691 12.0835L10.9081 9.62247Z" fill="#0E1826"/>
</svg>
