<svg width="20" height="20" viewBox="0 0 20 20" fill="none" xmlns="http://www.w3.org/2000/svg">
<g clip-path="url(#clip0_613_2)">
<path d="M9.99935 0C8.02147 -1e-09 6.08801 0.586509 4.44347 1.68536C2.79892 2.78421 1.51716 4.34605 0.760257 6.17337C0.0033564 8.00069 -0.194683 10.0114 0.191181 11.9513C0.577046 13.8912 1.52948 15.6731 2.92805 17.0716C4.32662 18.4702 6.10851 19.4226 8.04838 19.8085C9.98826 20.1944 11.999 19.9963 13.8263 19.2394C15.6536 18.4825 17.2155 17.2008 18.3143 15.5562C19.4132 13.9117 19.9997 11.9782 19.9997 10.0003C19.9965 7.34903 18.9419 4.80723 17.0672 2.93248C15.1924 1.05774 12.6506 0.0031278 9.99935 0ZM9.99935 18.1824C8.38109 18.1824 6.79916 17.7026 5.45363 16.8035C4.10809 15.9044 3.05937 14.6266 2.44009 13.1315C1.82081 11.6364 1.65878 9.99125 1.97448 8.40408C2.29019 6.81691 3.06946 5.359 4.21374 4.21472C5.35803 3.07043 6.81594 2.29117 8.4031 1.97546C9.99027 1.65975 11.6354 1.82178 13.1305 2.44107C14.6256 3.06035 15.9034 4.10907 16.8025 5.4546C17.7016 6.80014 18.1814 8.38206 18.1814 10.0003C18.1788 12.1696 17.3159 14.2492 15.782 15.783C14.2482 17.3169 12.1686 18.1798 9.99935 18.1824Z" fill="#757575"/>
<path d="M10.9081 9.62223V4.54389C10.9081 4.30278 10.8123 4.07154 10.6418 3.90105C10.4713 3.73055 10.2401 3.63477 9.99896 3.63477C9.75785 3.63477 9.52661 3.73055 9.35612 3.90105C9.18563 4.07154 9.08984 4.30278 9.08984 4.54389V9.99861C9.0899 10.2397 9.18571 10.4709 9.35622 10.6414L12.0836 13.3688C12.255 13.5344 12.4847 13.626 12.7231 13.6239C12.9614 13.6219 13.1894 13.5262 13.358 13.3577C13.5266 13.1891 13.6222 12.9611 13.6242 12.7227C13.6263 12.4844 13.5347 12.2547 13.3691 12.0833L10.9081 9.62223Z" fill="#757575"/>
</g>
<defs>
<clipPath id="clip0_613_2">
<rect width="20" height="20" fill="white"/>
</clipPath>
</defs>
</svg>
