<svg width="11" height="11" viewBox="0 0 11 11" fill="none" xmlns="http://www.w3.org/2000/svg">
<path d="M7.05252 6.11776L5.60247 5.03023V2.81491C5.60247 2.59216 5.42242 2.41211 5.19967 2.41211C4.97692 2.41211 4.79688 2.59216 4.79688 2.81491V5.23165C4.79688 5.35852 4.85649 5.47816 4.95799 5.55388L6.56914 6.76226C6.64164 6.81663 6.72624 6.84281 6.81041 6.84281C6.93326 6.84281 7.0541 6.78763 7.13306 6.68129C7.26681 6.50364 7.23056 6.25109 7.05252 6.11776Z" fill="#A3B7D5"/>
<path d="M5.2 0C2.33255 0 0 2.33255 0 5.2C0 8.06745 2.33255 10.4 5.2 10.4C8.06745 10.4 10.4 8.06745 10.4 5.2C10.4 2.33255 8.06745 0 5.2 0ZM5.2 9.59443C2.77723 9.59443 0.805573 7.62277 0.805573 5.2C0.805573 2.77723 2.77723 0.805573 5.2 0.805573C7.62318 0.805573 9.59443 2.77723 9.59443 5.2C9.59443 7.62277 7.62277 9.59443 5.2 9.59443Z" fill="#A3B7D5"/>
</svg>
