<svg width="16" height="16" viewBox="0 0 16 16" fill="none" xmlns="http://www.w3.org/2000/svg">
<path d="M12.5599 6.87997C12.4799 6.79997 12.3199 6.71997 12.0799 6.71997H11.4399V7.83997H12.0799C12.3199 7.83997 12.4799 7.75997 12.5599 7.67997C12.6399 7.59997 12.7199 7.43997 12.7199 7.27997C12.7199 7.11997 12.7199 6.95997 12.5599 6.87997Z" fill="#0E1826"/>
<path d="M8 0C3.6 0 0 3.6 0 8C0 12.4 3.6 16 8 16C12.4 16 16 12.4 16 8C16 3.6 12.4 0 8 0ZM3.36 8.64C3.44 8.8 3.6 8.96 3.76 9.12C3.92 9.2 4.16 9.28 4.32 9.28C4.56 9.28 4.72 9.2 4.88 9.12C5.04 9.04 5.2 8.88 5.28 8.72H6.16C6 9.12 5.84 9.44 5.52 9.6C5.2 9.76 4.8 9.92 4.4 9.92C4.08 9.92 3.68 9.84 3.44 9.68C3.12 9.52 2.88 9.28 2.72 8.96C2.56 8.64 2.48 8.32 2.48 7.92C2.48 7.52 2.56 7.2 2.72 6.88C2.88 6.56 3.12 6.32 3.44 6.16C3.68 6.16 4 6.08 4.4 6.08C4.8 6.08 5.2 6.16 5.52 6.4C5.84 6.64 6.08 6.96 6.16 7.28H5.28C5.2 7.12 5.12 6.96 4.96 6.88C4.8 6.8 4.56 6.72 4.4 6.72C4.16 6.72 4 6.8 3.84 6.88C3.6 7.04 3.52 7.12 3.36 7.36C3.28 7.52 3.2 7.76 3.2 8C3.2 8.24 3.28 8.48 3.36 8.64ZM8.88 9.92H7.92L6.56 6.08H7.36L8.4 9.12L9.44 6.08H10.24L8.88 9.92ZM12.64 9.92L11.84 8.4H11.52V9.84H10.72V6.08H12.16C12.48 6.08 12.72 6.08 12.88 6.24C13.12 6.32 13.28 6.48 13.36 6.64C13.44 6.8 13.52 7.04 13.52 7.2C13.52 7.44 13.44 7.68 13.28 7.92C13.12 8.08 12.88 8.24 12.64 8.32L13.52 9.92H12.64Z" fill="#0E1826"/>
</svg>
