<svg width="16" height="16" viewBox="0 0 16 16" fill="none" xmlns="http://www.w3.org/2000/svg">
<g clip-path="url(#clip0_169_40027)">
<path d="M2.87996 13.4721C3.03996 13.4721 3.07196 13.4561 3.21596 13.4241L6.09596 12.8481C6.39996 12.7681 6.70396 12.6241 6.94396 12.3841L13.92 5.40809C14.992 4.33609 14.992 2.49609 13.92 1.42409L13.328 0.800094C12.256 -0.271906 10.4 -0.271906 9.32796 0.800094L2.35196 7.79209C2.12796 8.01609 1.96796 8.33609 1.88796 8.64009L1.27996 11.5521C1.19996 12.0961 1.35996 12.6241 1.74396 13.0081C2.04796 13.3121 2.49596 13.4721 2.87996 13.4721ZM3.42396 8.94409L10.4 1.95209C10.864 1.48809 11.712 1.48809 12.16 1.95209L12.768 2.56009C13.312 3.10409 13.312 3.87209 12.768 4.40009L5.80796 11.3921L2.84796 11.8881L3.42396 8.94409ZM13.856 14.4641H2.04796C1.58396 14.4641 1.27996 14.7681 1.27996 15.2321C1.27996 15.6961 1.66396 16.0001 2.04796 16.0001H13.792C14.256 16.0001 14.64 15.6961 14.64 15.2321C14.624 14.7681 14.24 14.4641 13.856 14.4641Z" fill="#7488A6"/>
</g>
<defs>
<clipPath id="clip0_169_40027">
<rect width="16" height="16" fill="white"/>
</clipPath>
</defs>
</svg>
