<svg width="500" height="373" viewBox="0 0 500 373" fill="none" xmlns="http://www.w3.org/2000/svg">
<path d="M500 327.4H0V327.6H500V327.4Z" fill="#EBEBEB"/>
<path d="M449.9 343.5H416.8V343.7H449.9V343.5Z" fill="#EBEBEB"/>
<path d="M331.2 346.199H322.5V346.399H331.2V346.199Z" fill="#EBEBEB"/>
<path d="M415.8 334.199H396.6V334.399H415.8V334.199Z" fill="#EBEBEB"/>
<path d="M95.7 335.9H52.5V336.1H95.7V335.9Z" fill="#EBEBEB"/>
<path d="M110.9 335.9H104.6V336.1H110.9V335.9Z" fill="#EBEBEB"/>
<path d="M225.2 340.1H131.5V340.3H225.2V340.1Z" fill="#EBEBEB"/>
<path d="M237 282.8H43.9C40.8 282.8 38.2 280.2 38.2 277.1V5.7C38.2 2.6 40.8 0 43.9 0H237C240.1 0 242.7 2.6 242.7 5.7V277.1C242.7 280.2 240.2 282.8 237 282.8ZM43.9 0.200001C40.9 0.200001 38.4 2.6 38.4 5.7V277.1C38.4 280.1 40.8 282.6 43.9 282.6H237C240 282.6 242.5 280.2 242.5 277.1V5.7C242.5 2.7 240.1 0.200001 237 0.200001H43.9Z" fill="#EBEBEB"/>
<path d="M453.3 282.8H260.2C257.1 282.8 254.5 280.2 254.5 277.1V5.7C254.5 2.6 257.1 0 260.2 0H453.3C456.4 0 459 2.6 459 5.7V277.1C459 280.2 456.5 282.8 453.3 282.8ZM260.2 0.200001C257.2 0.200001 254.7 2.6 254.7 5.7V277.1C254.7 280.1 257.1 282.6 260.2 282.6H453.3C456.3 282.6 458.8 280.2 458.8 277.1V5.7C458.8 2.7 456.4 0.200001 453.3 0.200001H260.2Z" fill="#EBEBEB"/>
<path d="M393.1 21.1992H101.3V157.699H393.1V21.1992Z" fill="#E6E6E6"/>
<path d="M397.4 21.1992H103.3V157.699H397.4V21.1992Z" fill="#F0F0F0"/>
<path d="M393.1 157.699H101.3V164.699H393.1V157.699Z" fill="#E6E6E6"/>
<path d="M404.8 157.699H110.7V164.699H404.8V157.699Z" fill="#F0F0F0"/>
<path d="M391.326 151.518V27.3184L109.526 27.3184V151.518L391.326 151.518Z" fill="#FAFAFA"/>
<path d="M139.7 151.499L156.9 27.2988H183.6L166.5 151.499H139.7Z" fill="white"/>
<path d="M112.3 145.398C112.1 145.398 111.9 145.198 111.9 144.998V31.2984C111.9 31.0984 112.1 30.8984 112.3 30.8984C112.5 30.8984 112.7 31.0984 112.7 31.2984V144.998C112.8 145.198 112.6 145.398 112.3 145.398Z" fill="#F0F0F0"/>
<path d="M172.2 151.499L189.3 27.2988H199.8L182.6 151.499H172.2Z" fill="white"/>
<path d="M391.345 151.499V27.2988H390.545V151.499H391.345Z" fill="#E6E6E6"/>
<path opacity="0.6" d="M398.9 36.5992H107.1L106.6 29.6992H398.4L398.9 36.5992Z" fill="#EBEBEB"/>
<path opacity="0.6" d="M398.9 47.9H107.1L106.6 41H398.4L398.9 47.9Z" fill="#EBEBEB"/>
<path opacity="0.6" d="M398.9 59.1988H107.1L106.6 52.2988H398.4L398.9 59.1988Z" fill="#EBEBEB"/>
<path opacity="0.6" d="M398.9 70.4996H107.1L106.6 63.5996H398.4L398.9 70.4996Z" fill="#EBEBEB"/>
<path opacity="0.6" d="M398.9 81.7984H107.1L106.6 74.8984H398.4L398.9 81.7984Z" fill="#EBEBEB"/>
<path opacity="0.6" d="M398.9 93.0992H107.1L106.6 86.1992H398.4L398.9 93.0992Z" fill="#EBEBEB"/>
<path d="M439 192H394.5V327.4H439V192Z" fill="#E6E6E6"/>
<path d="M427.1 327.399H439V308.699H414.6L427.1 327.399Z" fill="#FAFAFA"/>
<path d="M317.6 192H273.1V327.4H317.6V192Z" fill="#E6E6E6"/>
<path d="M439 192H307.2V321H439V192Z" fill="#FAFAFA"/>
<path d="M319.1 327.399H307.2V308.699H331.6L319.1 327.399Z" fill="#FAFAFA"/>
<path d="M429.7 240.1H316.4V272.4H429.7V240.1Z" fill="#F0F0F0"/>
<path d="M429.7 279.199H316.4V311.499H429.7V279.199Z" fill="#F0F0F0"/>
<path d="M407.3 243.499H338.9C336.3 243.499 334.2 241.399 334.2 238.799V237.199H412V238.799C412 241.399 409.9 243.499 407.3 243.499Z" fill="#FAFAFA"/>
<path d="M429.7 200.9H316.4V233.2H429.7V200.9Z" fill="#F0F0F0"/>
<path d="M407.3 204.3H338.9C336.3 204.3 334.2 202.2 334.2 199.6V198H412V199.6C412 202.2 409.9 204.3 407.3 204.3Z" fill="#FAFAFA"/>
<path d="M407.3 282.7H338.9C336.3 282.7 334.2 280.6 334.2 278V276.4H412V278C412 280.6 409.9 282.7 407.3 282.7Z" fill="#FAFAFA"/>
<path d="M53.4 220.899C55.9 213.799 75.4 223.499 83.4 235.299C88.7 243.199 91.9 251.599 93.4 262.799C93.2 249.899 93 236.099 92.8 223.099C91.2 219.799 87.5 212.399 84.9 206.399C76.1 186.599 55.2 179.199 48 166.699C38.5 150.299 38.6 125.699 46.6 116.799C53.6 109.099 76.8 161.199 79.4 167.099C88.4 187.099 91 201.999 92.7 216.399C92.5 204.199 92.3 192.899 92.2 184.199C91.7 155.899 91.1 146.799 90.8 143.999C89.8 142.599 88.7 140.999 88 140.199C82.4 132.999 69.9 124.399 63.7 113.899C54.6 98.599 56.1 80.199 62.5 73.399C69.2 66.299 81 83.099 87.2 99.899C93.5 116.599 90.8 132.699 92.5 146.599C92.9 149.299 93.2 159.699 93.6 174.099C95.5 158.599 99.3 148.299 106.3 138.599C114.9 126.699 122.4 112.299 129.5 114.099C136.6 115.999 132.8 135.099 127.2 148.499C122.2 160.499 97.5 172.399 93.9 181.999C94.3 201.499 94.7 226.099 95 249.099C96.9 237.199 95.6 236.199 103.6 218.099C108.3 207.299 127.8 193.999 130.1 201.399C132.4 208.699 128.9 222.799 121.6 232.699C115.7 240.599 102.6 240.599 99.5 245.499C98.8 246.599 96.4 250.999 95.1 253.599C95.4 281.599 95.6 306.399 95.4 314.799L94.1 314.899C94.2 312.699 94 298.499 93.8 279.599C90.6 269.599 69.1 263.699 62.5 253.199C55.4 242.199 50.4 229.399 53.4 220.899Z" fill="#E6E6E6"/>
<path d="M73.6 327.399H114.8C117.1 327.399 119 325.799 119.4 323.599L122.3 309.199H66L68.9 323.599C69.4 325.799 71.3 327.399 73.6 327.399Z" fill="#F0F0F0"/>
<path d="M64.9 314.8H123.6C125 314.8 126.2 313.7 126.3 312.3L127.5 301.6C127.7 300 126.4 298.5 124.8 298.5H63.7C62.1 298.5 60.8 299.9 61 301.6L62.2 312.3C62.3 313.7 63.5 314.8 64.9 314.8Z" fill="#F0F0F0"/>
<path d="M177.8 262.6H142.6V327.4H177.8V262.6Z" fill="#E0E0E0"/>
<path d="M267.6 327.4H149.7L137.3 239.5H255.2L267.6 327.4Z" fill="#E6E6E6"/>
<path d="M284.8 327.4H154.4L142 239.5H272.4L284.8 327.4Z" fill="#F0F0F0"/>
<path d="M167.1 313.699L156.7 253.199H259.6L270.1 313.699H167.1Z" fill="white"/>
<path d="M211.4 313.699L176.4 253.199H187.4L222.3 313.699H211.4Z" fill="#FAFAFA"/>
<path d="M227 313.699L192 253.199H210.7L245.7 313.699H227Z" fill="#FAFAFA"/>
<path d="M250 372.5C357.088 372.5 443.9 367.441 443.9 361.2C443.9 354.96 357.088 349.9 250 349.9C142.912 349.9 56.1 354.96 56.1 361.2C56.1 367.441 142.912 372.5 250 372.5Z" fill="#F5F5F5"/>
<path d="M77.3001 166.5C77.1001 166.5 76.9001 166.3 76.9001 166.1L74.7001 139.4C74.7001 139.2 74.9001 139 75.1001 138.9C75.3001 138.9 75.5001 139.1 75.6001 139.3L77.8001 166C77.7001 166.3 77.5001 166.5 77.3001 166.5Z" fill="#2257AA"/>
<path d="M78.6 182.4C78.4 182.4 78.2 182.2 78.2 182L77.5 173.9C77.5 173.7 77.7 173.5 77.9 173.4C78.1 173.4 78.3 173.6 78.4 173.8L79.1 181.9C79 182.2 78.9 182.4 78.6 182.4Z" fill="#2257AA"/>
<path d="M303.6 258.4H97.1C91.8 258.4 87.2 254.1 86.7 248.8L75.1 109C74.7 103.7 78.6 99.4004 83.9 99.4004H290.4C295.7 99.4004 300.3 103.7 300.8 109L312.4 248.8C312.8 254.1 308.8 258.4 303.6 258.4Z" fill="white"/>
<path d="M303.6 258.8H97.1C91.6 258.8 86.8 254.3 86.3 248.9L74.7 109.1C74.5 106.4 75.3 103.9 77.1 102C78.8 100.1 81.3 99.0996 83.9 99.0996H290.4C295.9 99.0996 300.7 103.6 301.2 109L312.8 248.8C313 251.5 312.2 254 310.4 255.9C308.6 257.7 306.2 258.8 303.6 258.8ZM83.9 99.7996C81.5 99.7996 79.3 100.7 77.7 102.5C76.1 104.2 75.3 106.5 75.5 109L87.1 248.8C87.5 253.9 92 258 97.1 258H303.6C306 258 308.2 257.1 309.8 255.3C311.4 253.6 312.2 251.3 312 248.8L300.4 109C300 103.9 295.5 99.7996 290.4 99.7996H83.9Z" fill="#2257AA"/>
<path d="M290.3 99.4004H83.9C78.6 99.4004 74.7 103.7 75.1 109H300.7C300.3 103.8 295.6 99.4004 290.3 99.4004Z" fill="#2257AA"/>
<path d="M88.7 104.2C88.8 105.3 87.9 106.3 86.8 106.3C85.7 106.3 84.7 105.4 84.6 104.2C84.5 103.1 85.4 102.1 86.5 102.1C87.6 102.2 88.6 103.1 88.7 104.2Z" fill="white"/>
<path d="M97.1 104.2C97.2 105.3 96.3 106.3 95.2 106.3C94.1 106.3 93.1 105.4 93 104.2C92.9 103.1 93.8 102.1 94.9 102.1C96 102.1 97 103.1 97.1 104.2Z" fill="white"/>
<path d="M105.5 104.2C105.6 105.3 104.7 106.3 103.6 106.3C102.5 106.3 101.5 105.4 101.4 104.2C101.3 103.1 102.2 102.1 103.3 102.1C104.4 102.1 105.4 103.1 105.5 104.2Z" fill="white"/>
<path d="M285.6 240.1H112C107.8 240.1 104.1 236.7 103.8 232.5L95.6 135C95.3 130.8 98.4 127.4 102.6 127.4H276.3C280.5 127.4 284.2 130.8 284.5 135L292.6 232.5C293 236.6 289.8 240.1 285.6 240.1Z" fill="#F0F0F0"/>
<path opacity="0.1" d="M231.9 144.4L178.1 209.2C170.7 218.1 175.4 231.6 186.7 234.1L274 253C286.1 255.6 296.1 243.7 291.5 232.2L258 148.5C253.7 137.7 239.4 135.4 231.9 144.4Z" fill="#263238"/>
<path opacity="0.1" d="M112.2 153.5L93.4001 204C90.9001 210.7 96.3001 217.8 103.5 217.1L158.2 211.7C165.9 210.9 169.7 202 164.9 196L128.9 150.9C124.2 144.9 114.8 146.4 112.2 153.5Z" fill="#263238"/>
<path d="M250.5 128.1L200.2 201.1C193.3 211 199.4 224.7 211.4 226.3L303.9 238.6C316.7 240.3 326.3 227 320.5 215.4L278.3 130.1C272.8 119 257.5 117.9 250.5 128.1Z" fill="#2257AA"/>
<path d="M213.6 219.801C210.2 219.401 207.3 217.201 205.8 214.101C204.3 211.001 204.4 207.601 206.3 204.901L256.7 131.701C258.5 129.001 261.6 127.701 265 128.201C268.4 128.601 271.3 130.801 272.8 133.901L315.1 219.501C316.6 222.601 316.5 226.001 314.6 228.701C312.8 231.401 309.7 232.701 306.3 232.201L213.6 219.801Z" fill="white"/>
<path d="M260.6 154.101L266.5 154.901C270.3 155.401 273.2 158.801 273 162.601L272.6 170.301C272.6 170.601 272.6 170.901 272.5 171.101L268.3 194.301C267.7 197.601 264.6 199.801 261.2 199.301C257.7 198.801 254.9 195.901 254.7 192.401L253 168.501C253 168.201 253 167.901 253 167.701L253.4 160.001C253.6 156.201 256.9 153.601 260.6 154.101ZM260.2 205.601L261.8 205.801C265.2 206.301 267.8 209.301 267.6 212.701C267.4 216.101 264.5 218.401 261.2 217.901L259.6 217.701C256.2 217.201 253.6 214.201 253.8 210.801C253.9 207.501 256.8 205.201 260.2 205.601Z" fill="#2257AA"/>
<path d="M131.5 139.3L117.7 191.7C115.9 198.6 121.9 205.1 129 203.7L182.6 193.2C190.1 191.7 193.1 182.5 187.8 177L148 135C142.7 129.5 133.4 131.9 131.5 139.3Z" fill="#2257AA"/>
<path d="M128.9 199.4C127 199.8 124.9 199.1 123.5 197.6C122.1 196.1 121.5 194 122 192.1L135.8 139.6C136.3 137.7 137.8 136.3 139.7 136C141.6 135.6 143.7 136.3 145.1 137.8L185 179.8C186.4 181.3 187 183.4 186.5 185.3C186 187.2 184.5 188.6 182.6 188.9L128.9 199.4Z" fill="white"/>
<path d="M142.3 151.901L145.7 151.201C147.9 150.801 150.2 152.201 150.8 154.501L152.1 159.101C152.1 159.301 152.2 159.401 152.2 159.601L154.3 174.001C154.6 176.101 153.3 177.901 151.3 178.301C149.3 178.701 147.2 177.501 146.4 175.501L140.9 161.801C140.8 161.601 140.8 161.501 140.7 161.301L139.4 156.701C138.8 154.501 140.1 152.401 142.3 151.901ZM151.9 182.201L152.8 182.001C154.8 181.601 156.8 182.901 157.3 184.901C157.8 186.901 156.7 188.801 154.7 189.201L153.8 189.401C151.8 189.801 149.8 188.501 149.3 186.501C148.8 184.501 150 182.601 151.9 182.201Z" fill="#2257AA"/>
</svg>
