<svg width="30" height="31" viewBox="0 0 30 31" fill="none" xmlns="http://www.w3.org/2000/svg">
<g clip-path="url(#clip0_608_5904)">
<path d="M29.9361 9.56485V7.81073H22.3936V4.49925L14.9682 0.5L7.5426 4.49925V7.81073H0.0194531V9.56485H0.974531V28.7458H0V30.4999H29.9361V28.7458H28.9812V9.56485H29.9361ZM14.9682 2.49218L20.6397 5.54685V28.7458H15.845V25.6243H14.0911V28.7458H9.29648V5.54679L14.9682 2.49218ZM2.72854 28.7458V9.56485H7.5426V11.2993H5.08693V13.0535H7.5426V14.8078H5.08693V16.5617H7.5426V18.3161H5.08693V20.0703H7.5426V21.8246H5.08693V23.5786H7.5426V28.746H2.72854V28.7458ZM27.2271 28.7458H22.3936V23.5786H24.8689V21.8244H22.3936V20.0703H24.8689V18.3161H22.3936V16.5618H24.8689V14.8078H22.3936V13.0535H24.8689V11.2993H22.3936V9.56485H27.2271V28.7458Z" fill="#7488A6"/>
<path d="M10.6992 7.55664H12.4535V9.31082H10.6992V7.55664ZM14.0905 7.55664H15.8447V9.31082H14.0905V7.55664ZM17.4235 7.55664H19.1779V9.31082H17.4234L17.4235 7.55664ZM10.6992 11.2403H12.4535V12.9944H10.6992V11.2403ZM14.0905 11.2403H15.8447V12.9944H14.0905V11.2403ZM17.4235 11.2403H19.1779V12.9944H17.4234L17.4235 11.2403ZM10.6992 14.9239H12.4535V16.6778H10.6992V14.9239ZM14.0905 14.9239H15.8447V16.6778H14.0905V14.9239ZM17.4235 14.9239H19.1779V16.6778H17.4234L17.4235 14.9239ZM10.6992 18.6073H12.4535V20.3614H10.6992V18.6073ZM14.0905 18.6073H15.8447V20.3614H14.0905V18.6073ZM17.4235 18.6073H19.1779V20.3614H17.4234L17.4235 18.6073ZM10.6992 22.2909H12.4535V24.0451H10.6992V22.2909ZM14.0905 22.2909H15.8447V24.0451H14.0905V22.2909ZM17.4235 22.2909H19.1779V24.0451H17.4234L17.4235 22.2909Z" fill="#7488A6"/>
</g>
<defs>
<clipPath id="clip0_608_5904">
<rect width="30" height="30" fill="white" transform="translate(0 0.5)"/>
</clipPath>
</defs>
</svg>
