<svg width="15" height="12" viewBox="0 0 15 12" fill="none" xmlns="http://www.w3.org/2000/svg">
<path fill-rule="evenodd" clip-rule="evenodd" d="M11.5 6.0013C11.9987 6.00118 12.4874 5.86119 12.9106 5.59726C13.3337 5.33332 13.6744 4.956 13.8939 4.50816C14.1133 4.06032 14.2028 3.55991 14.1522 3.06376C14.1015 2.56761 13.9127 2.09561 13.6073 1.70137C13.3018 1.30713 12.8919 1.00645 12.4242 0.833485C11.9564 0.660516 11.4495 0.622191 10.961 0.722862C10.4726 0.823533 10.0221 1.05917 9.66086 1.403C9.2996 1.74683 9.042 2.18508 8.91731 2.66797H1.49998C1.32317 2.66797 1.1536 2.73821 1.02858 2.86323C0.903552 2.98826 0.833314 3.15783 0.833314 3.33464C0.833314 3.51145 0.903552 3.68102 1.02858 3.80604C1.1536 3.93106 1.32317 4.0013 1.49998 4.0013H8.91731C9.21331 5.1513 10.2573 6.0013 11.5 6.0013ZM10.1666 3.33464C10.1666 3.68826 10.3071 4.0274 10.5572 4.27744C10.8072 4.52749 11.1464 4.66797 11.5 4.66797C11.8536 4.66797 12.1927 4.52749 12.4428 4.27744C12.6928 4.0274 12.8333 3.68826 12.8333 3.33464C12.8333 2.98101 12.6928 2.64188 12.4428 2.39183C12.1927 2.14178 11.8536 2.0013 11.5 2.0013C11.1464 2.0013 10.8072 2.14178 10.5572 2.39183C10.3071 2.64188 10.1666 2.98101 10.1666 3.33464ZM0.833314 8.66797C0.832672 8.01846 1.0691 7.39104 1.49823 6.90349C1.92736 6.41593 2.51968 6.10175 3.16401 6.01992C3.80835 5.93809 4.4604 6.09423 4.99777 6.45904C5.53515 6.82385 5.92091 7.37225 6.08265 8.0013H13.5C13.6768 8.0013 13.8464 8.07154 13.9714 8.19657C14.0964 8.32159 14.1666 8.49116 14.1666 8.66797C14.1666 8.84478 14.0964 9.01435 13.9714 9.13937C13.8464 9.2644 13.6768 9.33464 13.5 9.33464H6.08265C5.91883 9.96163 5.5324 10.5076 4.99553 10.8705C4.45866 11.2334 3.80804 11.3886 3.16517 11.3069C2.52229 11.2253 1.9311 10.9124 1.502 10.4268C1.07289 9.94121 0.835205 9.31601 0.833314 8.66797ZM4.83331 8.66797C4.83331 8.31435 4.69284 7.97521 4.44279 7.72516C4.19274 7.47511 3.8536 7.33464 3.49998 7.33464C3.14636 7.33464 2.80722 7.47511 2.55717 7.72516C2.30712 7.97521 2.16665 8.31435 2.16665 8.66797C2.16665 9.02159 2.30712 9.36073 2.55717 9.61078C2.80722 9.86083 3.14636 10.0013 3.49998 10.0013C3.8536 10.0013 4.19274 9.86083 4.44279 9.61078C4.69284 9.36073 4.83331 9.02159 4.83331 8.66797Z" fill="#2257AA"/>
</svg>
