<svg width="15" height="13" viewBox="0 0 15 13" fill="none" xmlns="http://www.w3.org/2000/svg">
<g clip-path="url(#clip0_615_4)">
<path fill-rule="evenodd" clip-rule="evenodd" d="M11.4997 6.50043C11.9984 6.5003 12.4871 6.34865 12.9103 6.06272C13.3334 5.77679 13.6741 5.36802 13.8936 4.88286C14.113 4.3977 14.2025 3.85559 14.1519 3.3181C14.1012 2.7806 13.9124 2.26927 13.607 1.84217C13.3015 1.41508 12.8916 1.08934 12.4239 0.901966C11.9561 0.714583 11.4492 0.673064 10.9607 0.782124C10.4723 0.891184 10.0218 1.14646 9.66055 1.51894C9.29929 1.89142 9.04169 2.36619 8.917 2.88932H1.49968C1.32287 2.88932 1.1533 2.96542 1.02828 3.10086C0.903247 3.23631 0.833009 3.42001 0.833009 3.61155C0.833009 3.80309 0.903247 3.9868 1.02828 4.12223C1.1533 4.25767 1.32287 4.33377 1.49968 4.33377H8.917C9.213 5.5796 10.257 6.50043 11.4997 6.50043ZM10.1663 3.61155C10.1663 3.99464 10.3068 4.36204 10.5569 4.63292C10.8069 4.9038 11.1461 5.05599 11.4997 5.05599C11.8533 5.05599 12.1924 4.9038 12.4425 4.63292C12.6925 4.36204 12.833 3.99464 12.833 3.61155C12.833 3.22845 12.6925 2.86106 12.4425 2.59017C12.1924 2.31929 11.8533 2.1671 11.4997 2.1671C11.1461 2.1671 10.8069 2.31929 10.5569 2.59017C10.3068 2.86106 10.1663 3.22845 10.1663 3.61155ZM0.833009 9.38932C0.832367 8.68569 1.0688 8.00598 1.49793 7.4778C1.92706 6.94961 2.51938 6.60925 3.16371 6.5206C3.80805 6.43195 4.4601 6.60111 4.99747 6.99632C5.53485 7.39153 5.92061 7.98563 6.08235 8.6671H13.4997C13.6765 8.6671 13.8461 8.74319 13.9711 8.87864C14.0961 9.01408 14.1663 9.19778 14.1663 9.38932C14.1663 9.58087 14.0961 9.76457 13.9711 9.90001C13.8461 10.0355 13.6765 10.1115 13.4997 10.1115H6.08235C5.91853 10.7908 5.5321 11.3823 4.99523 11.7754C4.45836 12.1685 3.80774 12.3367 3.16487 12.2482C2.52198 12.1598 1.9308 11.8208 1.5017 11.2947C1.07259 10.7687 0.8349 10.0914 0.833009 9.38932ZM4.83301 9.38932C4.83301 9.00624 4.69254 8.63883 4.44249 8.36795C4.19244 8.09706 3.8533 7.94488 3.49968 7.94488C3.14606 7.94488 2.80691 8.09706 2.55686 8.36795C2.30681 8.63883 2.16635 9.00624 2.16635 9.38932C2.16635 9.77241 2.30681 10.1398 2.55686 10.4107C2.80691 10.6816 3.14606 10.8338 3.49968 10.8338C3.8533 10.8338 4.19244 10.6816 4.44249 10.4107C4.69254 10.1398 4.83301 9.77241 4.83301 9.38932Z" fill="white"/>
</g>
<defs>
<clipPath id="clip0_615_4">
<rect width="15" height="13" fill="white"/>
</clipPath>
</defs>
</svg>
