<svg width="16" height="16" viewBox="0 0 16 16" fill="none" xmlns="http://www.w3.org/2000/svg">
<g clip-path="url(#clip0_7985_38713)">
<path d="M15.2501 11.2501V14.7501C15.2497 14.8826 15.1969 15.0096 15.1032 15.1032C15.0096 15.1969 14.8826 15.2497 14.7501 15.2501H11.2501C11.0512 15.2501 10.8604 15.1711 10.7198 15.0304C10.5791 14.8898 10.5001 14.699 10.5001 14.5001C10.5001 14.3012 10.5791 14.1104 10.7198 13.9698C10.8604 13.8291 11.0512 13.7501 11.2501 13.7501H12.6901L9.06262 10.1226C8.93014 9.98045 8.85802 9.7924 8.86144 9.5981C8.86487 9.4038 8.94358 9.21841 9.081 9.081C9.21841 8.94358 9.4038 8.86487 9.5981 8.86144C9.7924 8.85802 9.98045 8.93014 10.1226 9.06262L13.7501 12.6901V11.2501C13.7501 11.0512 13.8291 10.8604 13.9698 10.7198C14.1104 10.5791 14.3012 10.5001 14.5001 10.5001C14.699 10.5001 14.8898 10.5791 15.0304 10.7198C15.1711 10.8604 15.2501 11.0512 15.2501 11.2501Z" fill="#2257AA"/>
<path d="M15.2499 1.25V4.75C15.2499 4.94891 15.1709 5.13968 15.0303 5.28033C14.8896 5.42098 14.6989 5.5 14.4999 5.5C14.301 5.5 14.1103 5.42098 13.9696 5.28033C13.829 5.13968 13.7499 4.94891 13.7499 4.75V3.31L10.1224 6.9375C10.0538 7.01119 9.97098 7.07029 9.87898 7.11128C9.78698 7.15227 9.68766 7.17431 9.58696 7.17609C9.48626 7.17787 9.38623 7.15934 9.29284 7.12162C9.19945 7.0839 9.11462 7.02776 9.0434 6.95654C8.97218 6.88532 8.91604 6.80049 8.87832 6.7071C8.84059 6.61371 8.82207 6.51368 8.82385 6.41298C8.82562 6.31227 8.84767 6.21296 8.88866 6.12096C8.92965 6.02896 8.98875 5.94616 9.06244 5.8775L12.6899 2.25H11.2499C11.051 2.25 10.8603 2.17098 10.7196 2.03033C10.579 1.88968 10.4999 1.69891 10.4999 1.5C10.4999 1.30109 10.579 1.11032 10.7196 0.96967C10.8603 0.829018 11.051 0.75 11.2499 0.75H14.7499C14.8824 0.750396 15.0094 0.803201 15.1031 0.896884C15.1967 0.990566 15.2495 1.11751 15.2499 1.25Z" fill="#2257AA"/>
<path d="M6.9375 5.8775C7.01119 5.94616 7.07029 6.02896 7.11128 6.12096C7.15227 6.21296 7.17431 6.31227 7.17609 6.41298C7.17787 6.51368 7.15934 6.61371 7.12162 6.7071C7.0839 6.80049 7.02776 6.88532 6.95654 6.95654C6.88532 7.02776 6.80049 7.0839 6.7071 7.12162C6.61371 7.15934 6.51368 7.17787 6.41298 7.17609C6.31227 7.17431 6.21296 7.15227 6.12096 7.11128C6.02896 7.07029 5.94616 7.01119 5.8775 6.9375L2.25 3.31V4.75C2.25 4.94891 2.17098 5.13968 2.03033 5.28033C1.88968 5.42098 1.69891 5.5 1.5 5.5C1.30109 5.5 1.11032 5.42098 0.96967 5.28033C0.829018 5.13968 0.75 4.94891 0.75 4.75V1.25C0.750396 1.11751 0.803201 0.990566 0.896884 0.896884C0.990566 0.803201 1.11751 0.750396 1.25 0.75H4.75C4.94891 0.75 5.13968 0.829018 5.28033 0.96967C5.42098 1.11032 5.5 1.30109 5.5 1.5C5.5 1.69891 5.42098 1.88968 5.28033 2.03033C5.13968 2.17098 4.94891 2.25 4.75 2.25H3.31L6.9375 5.8775Z" fill="#2257AA"/>
<path d="M6.9375 9.06309C7.00722 9.13262 7.06254 9.21523 7.10029 9.30617C7.13803 9.39712 7.15746 9.49462 7.15746 9.59309C7.15746 9.69156 7.13803 9.78906 7.10029 9.88001C7.06254 9.97095 7.00722 10.0536 6.9375 10.1231L3.31 13.7506H4.75C4.94891 13.7506 5.13968 13.8296 5.28033 13.9703C5.42098 14.1109 5.5 14.3017 5.5 14.5006C5.5 14.6995 5.42098 14.8903 5.28033 15.0309C5.13968 15.1716 4.94891 15.2506 4.75 15.2506H1.25C1.11751 15.2502 0.990566 15.1974 0.896884 15.1037C0.803201 15.01 0.750396 14.8831 0.75 14.7506V11.2506C0.75 11.0517 0.829018 10.8609 0.96967 10.7203C1.11032 10.5796 1.30109 10.5006 1.5 10.5006C1.69891 10.5006 1.88968 10.5796 2.03033 10.7203C2.17098 10.8609 2.25 11.0517 2.25 11.2506V12.6906L5.8775 9.06309C6.01813 8.92264 6.20875 8.84375 6.4075 8.84375C6.60625 8.84375 6.79687 8.92264 6.9375 9.06309Z" fill="#2257AA"/>
</g>
<defs>
<clipPath id="clip0_7985_38713">
<rect width="16" height="16" fill="white"/>
</clipPath>
</defs>
</svg>
