<svg width="52" height="52" viewBox="0 0 52 52" fill="none" xmlns="http://www.w3.org/2000/svg">
<g clip-path="url(#clip0_57_12063)">
<path d="M44.8271 8.07634L42.1372 9.86953L37.6541 8.97293L34.9643 8.07634L31.3778 8.97293L28.6879 8.07634L30.4811 4.48986H34.0676L37.5823 2.73252C40.2931 4.07331 42.7457 5.88238 44.8271 8.07634ZM24.2049 4.48986L23.3083 7.17974L20.6184 8.07634L17.9285 12.5594L13.4455 15.2493L7.16919 16.1459V18.8358L8.96238 20.629V24.2155L6.2727 22.4222L3.58281 20.629L2.02271 15.9397C3.35214 12.7716 5.29664 9.89863 7.74369 7.48696C10.1907 5.07529 13.0917 3.17282 16.2789 1.88965L18.8252 3.59326L24.2049 4.48986ZM25.9982 29.595L25.1016 34.0781L21.5151 37.6646V40.3545L17.9286 43.0443V47.5274L15.2389 46.6308L13.4456 42.1477V33.1815L8.96248 32.2849L7.16929 28.6984V26.0086L8.96248 24.2154L11.6524 21.5255L13.4456 25.112H19.7218L22.4117 29.595H25.9982ZM48.6825 13.3036C53.5771 22.0357 53.0195 32.8032 47.248 40.982L44.8271 38.5612V34.9747L43.0339 31.3882L41.2407 27.8017V24.2153L38.5508 22.4221L34.9644 23.3187L28.6881 20.6288L27.7915 14.3525L30.4814 11.6626H35.8611L37.6543 14.3525L43.0339 15.2491L48.4136 13.4559L48.6825 13.3036Z" fill="#4CAF50"/>
<path d="M31.3779 8.97282L34.9644 8.07622L37.6543 8.97282L42.1373 9.86942L44.8272 8.07622C46.329 9.64791 47.6246 11.4045 48.6827 13.3035L48.4137 13.4559L43.034 15.2491L37.6544 14.3525L35.8612 11.6626H30.4815L27.7916 14.3525L28.6882 20.6288L34.9645 23.3187L38.551 22.4221L41.2408 24.2152V27.8017L43.034 31.3882L44.8272 34.9747V38.5612L47.2481 40.982C38.9679 52.7152 22.7435 55.5135 11.0113 47.2332C1.04721 40.2001 -2.6908 27.1875 2.02272 15.9395L3.58282 20.6288L6.27271 22.422L8.9626 24.2151L7.16931 26.0084V28.6983L8.9625 32.2848L13.4456 33.1814V42.1476L15.2388 46.6306L17.9287 47.5272V43.0442L21.5151 40.3543V37.6644L25.1016 34.0779L25.9982 29.5948H22.4117L19.7218 25.1117H13.4456L11.6524 21.5253L8.9626 24.2151L8.9625 20.6287L7.16931 18.8356V16.1457L13.4456 15.2491L17.9287 12.5592L20.6185 8.07612L23.3084 7.17953L24.205 4.48964L18.8254 3.59304L16.279 1.88943C19.6879 0.516584 23.349 -0.118119 27.0211 0.027166C30.6932 0.17245 34.2928 1.09442 37.5826 2.7323L34.0678 4.48964H30.4813L28.6881 8.07612L31.3779 8.97282Z" fill="#86DAF1"/>
</g>
<defs>
<clipPath id="clip0_57_12063">
<rect width="52" height="52" fill="white"/>
</clipPath>
</defs>
</svg>
