<svg width="30" height="31" viewBox="0 0 30 31" fill="none" xmlns="http://www.w3.org/2000/svg">
<path d="M15 0.5C12.0333 0.5 9.13319 1.37973 6.66645 3.02796C4.19972 4.67618 2.27713 7.01886 1.14181 9.75975C0.00649929 12.5006 -0.290551 15.5166 0.288228 18.4264C0.867006 21.3361 2.29562 24.0088 4.3934 26.1066C6.49119 28.2044 9.16394 29.633 12.0737 30.2118C14.9834 30.7906 17.9994 30.4935 20.7403 29.3582C23.4811 28.2229 25.8238 26.3003 27.472 23.8336C29.1203 21.3668 30 18.4667 30 15.5C29.9957 11.5231 28.414 7.71026 25.6019 4.89815C22.7897 2.08604 18.9769 0.504301 15 0.5ZM27.5 15.5C27.5015 17.9496 26.7787 20.345 25.4225 22.385L23.9325 20.8938C23.8157 20.7766 23.75 20.6179 23.75 20.4525V19.25C23.75 18.2554 23.3549 17.3016 22.6517 16.5984C21.9484 15.8951 20.9946 15.5 20 15.5H16.25C15.9185 15.5 15.6005 15.3683 15.3661 15.1339C15.1317 14.8995 15 14.5815 15 14.25V13.625C15 13.4592 15.0659 13.3003 15.1831 13.1831C15.3003 13.0658 15.4592 13 15.625 13C16.4538 13 17.2487 12.6708 17.8347 12.0847C18.4208 11.4987 18.75 10.7038 18.75 9.875V8.625C18.75 8.45924 18.8159 8.30027 18.9331 8.18306C19.0503 8.06585 19.2092 8 19.375 8H21.0988C21.9267 7.99764 22.7204 7.66886 23.3075 7.085L23.7788 6.61375C24.9577 7.77385 25.894 9.15705 26.5329 10.6827C27.1718 12.2084 27.5005 13.846 27.5 15.5ZM2.56126 16.7038L6.50876 20.6513C6.85613 21.0009 7.26948 21.278 7.72482 21.4666C8.18015 21.6553 8.66841 21.7516 9.16126 21.75H12.5C12.8315 21.75 13.1495 21.8817 13.3839 22.1161C13.6183 22.3505 13.75 22.6685 13.75 23V27.9363C10.8752 27.6428 8.1905 26.364 6.15117 24.3167C4.11183 22.2694 2.84348 19.5796 2.56126 16.7038ZM16.25 27.9363V23C16.25 22.0054 15.8549 21.0516 15.1517 20.3484C14.4484 19.6451 13.4946 19.25 12.5 19.25H9.16126C8.99691 19.2501 8.83415 19.2178 8.68229 19.155C8.53043 19.0922 8.39245 19 8.27626 18.8838L2.70376 13.3113C3.06148 11.2778 3.91843 9.36487 5.19773 7.74423C6.47702 6.12358 8.13864 4.84589 10.0335 4.02577C11.9284 3.20565 13.9972 2.86877 16.0543 3.04535C18.1115 3.22193 20.0926 3.90646 21.82 5.0375L21.54 5.3175C21.4223 5.43354 21.264 5.49902 21.0988 5.5H19.375C18.5462 5.5 17.7514 5.82924 17.1653 6.41529C16.5792 7.00134 16.25 7.7962 16.25 8.625V9.875C16.25 10.0408 16.1842 10.1997 16.0669 10.3169C15.9497 10.4342 15.7908 10.5 15.625 10.5C14.7962 10.5 14.0013 10.8292 13.4153 11.4153C12.8292 12.0013 12.5 12.7962 12.5 13.625V14.25C12.5 15.2446 12.8951 16.1984 13.5984 16.9017C14.3016 17.6049 15.2554 18 16.25 18H20C20.3315 18 20.6495 18.1317 20.8839 18.3661C21.1183 18.6005 21.25 18.9185 21.25 19.25V20.4525C21.2524 21.2805 21.5811 22.0742 22.165 22.6613L23.8363 24.3325C21.8006 26.3752 19.1195 27.6488 16.25 27.9363Z" fill="#7488A6"/>
</svg>
