<svg width="28" height="30" viewBox="0 0 28 30" fill="none" xmlns="http://www.w3.org/2000/svg">
<path d="M12.5 30C9.91637 30 7.8125 27.8975 7.8125 25.3125C7.8125 24.795 8.2325 24.375 8.75 24.375C9.2675 24.375 9.6875 24.795 9.6875 25.3125C9.6875 26.8639 10.95 28.125 12.5 28.125C14.05 28.125 15.3125 26.8639 15.3125 25.3125C15.3125 24.795 15.7325 24.375 16.25 24.375C16.7675 24.375 17.1875 24.795 17.1875 25.3125C17.1875 27.8975 15.0839 30 12.5 30Z" fill="#A3B7D5"/>
<path d="M22.8124 26.25H2.18742C0.981211 26.25 4.15426e-07 25.2688 4.15426e-07 24.0626C-0.000194334 23.7466 0.068086 23.4344 0.20014 23.1474C0.332194 22.8604 0.524884 22.6054 0.764942 22.4C0.796289 22.3725 0.829981 22.3475 0.864961 22.3249C2.69988 20.7237 3.75 18.4199 3.75 15.9874V12.4999C3.75 7.67508 7.67625 3.75 12.4999 3.75C12.7 3.75 12.9162 3.75363 13.1163 3.7875C13.6274 3.87246 13.9726 4.35633 13.8874 4.86621C13.8025 5.37621 13.3099 5.72139 12.8087 5.63619C12.7087 5.61996 12.5988 5.625 12.4999 5.625C8.71008 5.625 5.625 8.70873 5.625 12.4999V15.9874C5.625 19.0075 4.30113 21.8651 1.99629 23.8261C1.97754 23.8413 1.96131 23.855 1.94115 23.8687C1.89772 23.9239 1.87439 23.9923 1.875 24.0626C1.875 24.2324 2.01762 24.375 2.18742 24.375H22.8124C22.9825 24.375 23.1251 24.2324 23.1251 24.0626C23.1251 23.9749 23.0926 23.9113 23.0576 23.8687C23.0388 23.855 23.0225 23.8413 23.0038 23.8262C20.6975 21.8637 19.3751 19.0075 19.3751 15.9874V14.6251C19.3751 14.1076 19.7951 13.6876 20.3126 13.6876C20.8301 13.6876 21.2501 14.1076 21.2501 14.6251V15.9874C21.2501 18.4213 22.3013 20.7262 24.1388 22.3288C24.1724 22.3512 24.205 22.3751 24.2349 22.4013C24.4751 22.6063 24.6679 22.861 24.8001 23.1479C24.9322 23.4347 25.0004 23.7468 25.0001 24.0626C25.0001 25.2688 24.0189 26.25 22.8124 26.25Z" fill="#A3B7D5"/>
<path d="M21.2501 12.4999C17.8038 12.4999 15 9.69633 15 6.25008C15 2.80383 17.8038 0 21.2501 0C24.6963 0 27.4999 2.80383 27.4999 6.25008C27.4999 9.69633 24.6963 12.4999 21.2501 12.4999ZM21.2501 1.875C18.8374 1.875 16.875 3.83742 16.875 6.25008C16.875 8.6625 18.8374 10.6249 21.2501 10.6249C23.6625 10.6249 25.6249 8.6625 25.6249 6.25008C25.6249 3.83742 23.6625 1.875 21.2501 1.875Z" fill="#A3B7D5"/>
</svg>
