<svg width="14" height="16" viewBox="0 0 14 16" fill="none" xmlns="http://www.w3.org/2000/svg">
<path d="M13.9997 4.23686C14.0011 4.79349 13.8991 5.34489 13.6995 5.85915C13.4999 6.37341 13.2067 6.84032 12.8369 7.23286L5.68567 14.9551C5.40897 15.2508 5.08024 15.4853 4.71838 15.6451C4.35651 15.8049 3.96863 15.8868 3.57701 15.8861C3.18616 15.8868 2.79902 15.8051 2.43784 15.6457C2.07665 15.4863 1.74854 15.2523 1.47232 14.9572C0.914803 14.3608 0.601703 13.5528 0.601703 12.7103C0.601703 11.8679 0.914803 11.0599 1.47232 10.4635L6.63851 4.98149C7.41418 4.15901 8.64692 4.132 9.38785 4.92165C9.56721 5.11374 9.70748 5.34328 9.79988 5.59589C9.89227 5.8485 9.93481 6.11875 9.92482 6.38972C9.90849 6.94102 9.69484 7.46468 9.3278 7.85303L4.42514 13.085C4.33208 13.1843 4.20587 13.2401 4.07427 13.2401C3.94267 13.2401 3.81647 13.1843 3.72341 13.085C3.63036 12.9857 3.57808 12.851 3.57808 12.7106C3.57808 12.5702 3.63036 12.4355 3.72341 12.3362L8.62608 7.10416C8.81615 6.90132 8.92533 6.63652 8.93277 6.35847C8.9382 6.23186 8.9191 6.10542 8.87666 5.98705C8.83422 5.86868 8.76936 5.76092 8.68612 5.67051C8.33129 5.29343 7.72683 5.32044 7.33875 5.73248L2.17306 11.2134C1.8018 11.6111 1.59344 12.1497 1.59362 12.7111C1.59381 13.2725 1.80253 13.8109 2.17405 14.2083C2.54672 14.6049 3.0515 14.8275 3.57776 14.8275C4.10401 14.8275 4.60879 14.6049 4.98146 14.2083L12.1327 6.48611C12.6975 5.88341 13.0072 5.08583 13.0072 4.23686C13.0072 3.3879 12.6975 2.59031 12.1352 1.99027C11.5724 1.38969 10.8251 1.05922 10.0295 1.05922C9.23401 1.05922 8.48662 1.38969 7.92385 1.99027L0.950247 9.37936C0.903975 9.42835 0.849113 9.46715 0.788794 9.49352C0.728474 9.51989 0.663878 9.53332 0.598693 9.53305C0.467048 9.5325 0.340997 9.47617 0.248271 9.37644C0.155545 9.27672 0.10374 9.14176 0.104252 9.00128C0.104764 8.86079 0.157551 8.72627 0.251 8.62731L7.22361 1.23981C7.97199 0.440634 8.969 0 10.0295 0C11.0901 0 12.0871 0.440634 12.8369 1.2414C13.2068 1.6338 13.5 2.10061 13.6996 2.6148C13.8992 3.12898 14.0012 3.68031 13.9997 4.23686Z" fill="#0E1826"/>
</svg>
