<svg width="20" height="21" viewBox="0 0 20 21" fill="none" xmlns="http://www.w3.org/2000/svg">
<g clip-path="url(#clip0_161_15142)">
<path d="M18.7979 9.0961C18.7161 9.08282 18.6333 9.07669 18.5504 9.07776H4.44077L4.74844 8.93467C5.04916 8.79231 5.32276 8.59861 5.55695 8.36227L9.51363 4.40558C10.0347 3.90814 10.1223 3.1079 9.72112 2.50952C9.25422 1.87188 8.35882 1.73343 7.72114 2.20034C7.66961 2.23808 7.62067 2.27922 7.57464 2.32349L0.419694 9.47844C-0.139465 10.037 -0.139957 10.943 0.418576 11.5022L0.419694 11.5033L7.57464 18.6582C8.13425 19.2163 9.04029 19.215 9.59837 18.6554C9.64229 18.6114 9.68329 18.5645 9.72112 18.5151C10.1223 17.9168 10.0347 17.1165 9.51363 16.6191L5.5641 12.6552C5.35416 12.4451 5.11277 12.2688 4.84861 12.1329L4.41931 11.9397H18.4716C19.2026 11.9669 19.844 11.4562 19.9813 10.7377C20.1078 9.9576 19.578 9.22265 18.7979 9.0961Z" fill="black"/>
</g>
<defs>
<clipPath id="clip0_161_15142">
<rect width="20" height="20" fill="white" transform="translate(0 0.5)"/>
</clipPath>
</defs>
</svg>
