<svg width="60" height="60" viewBox="0 0 60 60" fill="none" xmlns="http://www.w3.org/2000/svg">
<g clip-path="url(#clip0_107_788)">
<path d="M44.0625 21.5625C44.0625 13.793 37.7695 7.5 30 7.5C22.2305 7.5 15.9375 13.793 15.9375 21.5625C15.9375 29.332 22.2305 35.625 30 35.625C37.7578 35.6133 44.0508 29.3203 44.0625 21.5625ZM30 33.75C23.2734 33.75 17.8125 28.2891 17.8125 21.5625C17.8125 14.8359 23.2734 9.375 30 9.375C36.7266 9.375 42.1875 14.8359 42.1875 21.5625C42.1758 28.2891 36.7266 33.7383 30 33.75Z" fill="#4CAF50"/>
<path d="M35.707 16.3008L27.8086 24.1992L24.293 20.6836C23.8125 20.2031 23.0273 20.2031 22.5352 20.6836C22.0547 21.1641 22.0547 21.9492 22.5352 22.4414L26.9297 26.8359C27.1758 27.082 27.4922 27.1992 27.8086 27.1992C28.125 27.1992 28.4414 27.082 28.6875 26.8359L37.4648 18.0586C37.9453 17.5781 37.9453 16.793 37.4648 16.3008C36.9727 15.8086 36.1875 15.8086 35.707 16.3008Z" fill="#4CAF50"/>
<path d="M37.0425 42.8319C38.6714 42.3045 39.9839 41.0975 40.6284 39.5155C41.2144 38.1209 42.5386 37.1834 44.0503 37.078C44.355 37.0545 44.648 37.0076 44.9526 36.9373C44.9526 36.9373 45.7026 36.8201 46.687 36.2459C47.355 35.8475 47.9409 35.3201 48.398 34.6873C49.3941 33.3162 49.7339 31.5701 49.312 29.9178C48.9487 28.4647 49.4644 26.9412 50.6128 25.992C53.0503 23.9881 53.4136 20.3905 51.4097 17.9412C51.1636 17.6483 50.894 17.3787 50.6011 17.1326C49.4526 16.1834 48.9487 14.6483 49.312 13.2069C49.7339 11.5662 49.3941 9.82014 48.398 8.44905C47.3784 7.0428 45.773 6.1639 44.0386 6.04671C42.5386 5.94124 41.2144 5.00374 40.6284 3.60921C39.9839 2.02718 38.6714 0.820145 37.0425 0.292801C35.3901 -0.246261 33.5855 -0.0353235 32.1089 0.878739C30.8081 1.67561 29.1792 1.67561 27.8784 0.878739C26.4019 -0.0353235 24.5972 -0.246261 22.9448 0.292801C21.3276 0.820145 20.0151 2.02718 19.3706 3.60921C18.7847 5.00374 17.4605 5.94124 15.9487 6.04671C14.2144 6.1639 12.6206 7.0428 11.6011 8.44905C10.605 9.82014 10.2651 11.5662 10.687 13.2186C11.0503 14.6717 10.5347 16.1951 9.38624 17.1444C6.94874 19.1483 6.58546 22.7459 8.58937 25.1951C8.83546 25.4881 9.10499 25.7576 9.39796 26.0037C10.5464 26.953 11.0503 28.4881 10.687 29.9295C10.2651 31.5701 10.605 33.3162 11.6011 34.6873C12.0581 35.3201 12.6441 35.8475 13.312 36.2459C13.312 36.2459 14.355 36.8201 15.0581 36.9373C15.3511 37.0076 15.6558 37.0545 15.9605 37.078C17.4605 37.1834 18.7847 38.1209 19.3706 39.5155C20.0151 41.0975 21.3276 42.3045 22.9565 42.8319C23.5308 43.0194 24.1401 43.1131 24.7495 43.1131C24.7495 43.1131 26.2847 43.0662 26.9058 42.7147C27.2456 42.5858 27.5737 42.4217 27.8901 42.2342C29.1909 41.4373 30.8198 41.4373 32.1089 42.2342C32.4136 42.4217 32.7417 42.5741 33.0815 42.703C33.0815 42.703 33.8901 43.0897 35.2378 43.1014C35.8589 43.1131 36.4683 43.0194 37.0425 42.8319ZM33.0933 40.6522C31.1948 39.492 28.8042 39.492 26.8941 40.6522C25.8862 41.2733 24.6558 41.4256 23.5308 41.0506C22.4292 40.6991 21.5386 39.8787 21.105 38.8006C20.2495 36.7498 18.3042 35.3553 16.0776 35.203C14.8941 35.1326 13.8159 34.535 13.1245 33.5741C12.4566 32.6483 12.2222 31.4764 12.5151 30.3631C13.0542 28.2069 12.2925 25.9451 10.5816 24.5272C8.94093 23.1795 8.69483 20.7655 10.0308 19.1131C10.1948 18.9139 10.3823 18.7264 10.5816 18.5623C12.2925 17.1444 13.0308 14.8826 12.5034 12.7264C12.2222 11.6248 12.4448 10.453 13.1245 9.52718C13.8276 8.56624 14.9058 7.96858 16.0894 7.89827C18.3042 7.74593 20.2495 6.3514 21.105 4.30061C21.5503 3.23421 22.4409 2.4139 23.5425 2.05061C24.6675 1.68733 25.898 1.82796 26.9058 2.44905C28.8042 3.60921 31.1948 3.60921 33.105 2.44905C34.1128 1.82796 35.3433 1.67561 36.4683 2.05061C37.5698 2.40218 38.4605 3.22249 38.9058 4.30061C39.7612 6.3514 41.7066 7.74593 43.9331 7.89827C45.1167 7.96858 46.1948 8.56624 46.8862 9.52718C47.5542 10.453 47.7886 11.6248 47.4956 12.7381C46.9565 14.8944 47.7183 17.1561 49.4292 18.5741C51.0698 19.9217 51.3159 22.3358 49.98 23.9881C49.8159 24.1873 49.6284 24.3748 49.4292 24.5389C47.7183 25.9569 46.98 28.2186 47.5073 30.3748C47.7886 31.4764 47.5659 32.6483 46.8862 33.5741C46.1831 34.535 45.105 35.1326 43.9214 35.203C41.7065 35.3553 39.7612 36.7498 38.9058 38.8006C38.4605 39.867 37.5698 40.6873 36.4683 41.0506C35.3316 41.4139 34.1011 41.2733 33.0933 40.6522Z" fill="#4CAF50"/>
<path d="M24.7847 45.4687H24.7495C24.4565 45.4687 24.1753 45.4453 23.8823 45.4219L19.5347 56.8359L16.3706 51.0352C16.148 50.625 15.6675 50.4492 15.2339 50.6016L9.01123 52.8398L14.2144 39.1641C13.5464 38.9766 12.8784 38.6719 12.4683 38.4609L6.53858 54.0586C6.35108 54.5391 6.59717 55.0898 7.07764 55.2656C7.28858 55.3477 7.51123 55.3477 7.72217 55.2773L15.105 52.6289L18.855 59.5195C19.019 59.8242 19.3355 60.0117 19.6753 60.0117H19.7339C20.0972 59.9883 20.4136 59.7539 20.5425 59.4141L25.898 45.3867C25.4878 45.4336 25.1128 45.457 24.8198 45.4687H24.7847Z" fill="#4CAF50"/>
<path d="M53.4609 54.0586L47.5313 38.4492C46.8164 38.8242 46.1953 39.0352 45.7852 39.1406L50.9883 52.8164L44.7656 50.5898C44.332 50.4375 43.8516 50.6133 43.6289 51.0234L40.4648 56.8242L36.1172 45.4102C35.8359 45.4453 35.543 45.457 35.2617 45.457H35.2383H35.2148C34.8164 45.4453 34.4414 45.4219 34.1016 45.375L39.4336 59.3906C39.5625 59.7305 39.8789 59.9648 40.2422 59.9883H40.3008C40.6406 59.9883 40.957 59.8008 41.1211 59.4961L44.8711 52.6055L52.2539 55.2539C52.7461 55.4297 53.2734 55.1719 53.4492 54.6914C53.543 54.5039 53.543 54.2695 53.4609 54.0586Z" fill="#4CAF50"/>
</g>
<defs>
<clipPath id="clip0_107_788">
<rect width="60" height="60" fill="white"/>
</clipPath>
</defs>
</svg>
