<svg width="22" height="31" viewBox="0 0 22 31" fill="none" xmlns="http://www.w3.org/2000/svg">
<path d="M11 0.5C5.00908 0.5 0.135132 5.37395 0.135132 11.3648C0.135132 18.7997 9.85812 29.7144 10.2721 30.1755C10.6609 30.6085 11.3398 30.6078 11.7279 30.1755C12.1419 29.7144 21.8649 18.7997 21.8649 11.3648C21.8647 5.37395 16.9909 0.5 11 0.5ZM11 28.0232C7.72771 24.1362 2.09169 16.4675 2.09169 11.3649C2.09169 6.45277 6.08791 2.45656 11 2.45656C15.9121 2.45656 19.9083 6.45277 19.9083 11.3649C19.9082 16.4677 14.2731 24.135 11 28.0232Z" fill="#A3B7D5"/>
<path d="M11 5.89844C7.98584 5.89844 5.53369 8.35064 5.53369 11.3648C5.53369 14.379 7.9859 16.8312 11 16.8312C14.0141 16.8312 16.4663 14.379 16.4663 11.3648C16.4663 8.35064 14.0141 5.89844 11 5.89844ZM11 14.8746C9.06467 14.8746 7.49025 13.3002 7.49025 11.3648C7.49025 9.42947 9.06473 7.855 11 7.855C12.9353 7.855 14.5098 9.42947 14.5098 11.3648C14.5098 13.3002 12.9353 14.8746 11 14.8746Z" fill="#A3B7D5"/>
</svg>
