<svg width="30" height="31" viewBox="0 0 30 31" fill="none" xmlns="http://www.w3.org/2000/svg">
<g clip-path="url(#clip0_608_2612)">
<path d="M15 0.5C9.00908 0.5 4.13513 5.37395 4.13513 11.3648C4.13513 18.7997 13.8581 29.7144 14.2721 30.1755C14.6609 30.6085 15.3398 30.6078 15.7279 30.1755C16.1419 29.7144 25.8649 18.7997 25.8649 11.3648C25.8647 5.37395 20.9909 0.5 15 0.5ZM15 28.0232C11.7277 24.1362 6.09169 16.4675 6.09169 11.3649C6.09169 6.45277 10.0879 2.45656 15 2.45656C19.9121 2.45656 23.9083 6.45277 23.9083 11.3649C23.9082 16.4677 18.2731 24.135 15 28.0232Z" fill="#7488A6"/>
<path d="M14.9994 5.89844C11.9852 5.89844 9.53308 8.35064 9.53308 11.3648C9.53308 14.379 11.9853 16.8312 14.9994 16.8312C18.0135 16.8312 20.4657 14.379 20.4657 11.3648C20.4657 8.35064 18.0135 5.89844 14.9994 5.89844ZM14.9994 14.8746C13.0641 14.8746 11.4896 13.3002 11.4896 11.3648C11.4896 9.42947 13.0641 7.855 14.9994 7.855C16.9347 7.855 18.5092 9.42947 18.5092 11.3648C18.5092 13.3002 16.9347 14.8746 14.9994 14.8746Z" fill="#7488A6"/>
</g>
<defs>
<clipPath id="clip0_608_2612">
<rect width="30" height="30" fill="white" transform="translate(0 0.5)"/>
</clipPath>
</defs>
</svg>
