<svg width="500" height="500" viewBox="0 0 500 500" fill="none" xmlns="http://www.w3.org/2000/svg">
<path d="M464 478.81C464 478.96 368.18 479.07 250 479.07C131.82 479.07 36 479 36 478.81C36 478.62 131.8 478.55 250 478.55C368.2 478.55 464 478.67 464 478.81Z" fill="#263238"/>
<path d="M374.48 239.3H84.27V248.59H374.48V239.3Z" fill="#E0E0E0"/>
<path d="M110.6 479.29L101.18 479.25V247.37H110.6V479.29Z" fill="#E0E0E0"/>
<path d="M360.68 479.27H351.17L351.26 247.37H360.68V479.27Z" fill="#E0E0E0"/>
<path d="M196.73 153.859C196.73 153.859 248.53 208.129 247.62 220.179C246.71 232.229 235.11 234.829 231.33 234.359C227.55 233.889 199.06 202.179 199.06 202.179L196.73 153.859Z" fill="#235AAD"/>
<path d="M224.33 421.98L238.38 468.97L254.16 460.4L245.19 417.38L224.33 421.98Z" fill="#FFBE9D"/>
<path d="M252.23 439.72L257.06 462C257.06 462 281.3 464.56 282.59 468.58L239.8 479.47L230.8 445.12L252.23 439.72Z" fill="#418BFA"/>
<path d="M243.36 463.489C242.98 463.719 242.699 464.081 242.57 464.505C242.44 464.93 242.473 465.387 242.66 465.789C242.874 466.177 243.23 466.468 243.652 466.6C244.075 466.732 244.533 466.696 244.93 466.499C245.332 466.255 245.629 465.871 245.764 465.42C245.899 464.969 245.862 464.484 245.66 464.059C245.393 463.678 244.989 463.415 244.532 463.326C244.075 463.236 243.601 463.327 243.21 463.579" fill="#E0E0E0"/>
<g opacity="0.4">
<path d="M239.8 479.47L239 476L280.32 466.83C280.32 466.83 282.43 467.18 282.56 468.57L239.8 479.47Z" fill="black"/>
</g>
<path d="M257.7 461.569C257.75 461.779 256.7 462.139 255.87 463.079C255.04 464.019 254.69 465.029 254.48 464.989C254.27 464.949 254.27 463.669 255.32 462.559C256.37 461.449 257.7 461.369 257.7 461.569Z" fill="#263238"/>
<path d="M262.66 462.279C262.76 462.469 261.95 463.059 261.46 464.119C260.97 465.179 261.01 466.169 260.8 466.219C260.59 466.269 260.16 465.109 260.8 463.799C261.44 462.489 262.61 462.079 262.66 462.279Z" fill="#263238"/>
<path d="M266.58 467C266.4 467.09 265.85 466.12 266.09 464.84C266.33 463.56 267.2 462.84 267.33 463.01C267.46 463.18 267.01 463.93 266.83 465.01C266.65 466.09 266.79 466.93 266.58 467Z" fill="#263238"/>
<path d="M256 456.62C256 456.84 254.92 456.79 253.76 457.17C252.6 457.55 251.76 458.17 251.62 458.01C251.48 457.85 252.16 456.89 253.54 456.46C254.92 456.03 256.1 456.43 256 456.62Z" fill="#263238"/>
<path d="M255 452.15C254.346 452.524 253.603 452.711 252.85 452.69C252.041 452.75 251.229 452.709 250.43 452.57C249.958 452.497 249.493 452.383 249.04 452.23C248.764 452.163 248.5 452.051 248.26 451.9C248.084 451.786 247.952 451.618 247.883 451.42C247.814 451.223 247.813 451.008 247.88 450.81C247.946 450.638 248.052 450.484 248.19 450.36C248.327 450.237 248.492 450.148 248.67 450.1C248.944 450.026 249.227 449.993 249.51 450C249.993 449.998 250.474 450.038 250.95 450.12C251.757 450.257 252.537 450.524 253.26 450.91C254.49 451.58 255.03 452.27 254.97 452.33C254.91 452.39 254.24 451.89 253.04 451.39C252.337 451.103 251.602 450.905 250.85 450.8C250.409 450.744 249.964 450.724 249.52 450.74C249.04 450.74 248.65 450.83 248.59 451.06C248.53 451.29 248.59 451.18 248.7 451.29C248.876 451.402 249.068 451.486 249.27 451.54C249.693 451.682 250.123 451.799 250.56 451.89C251.31 452.049 252.073 452.139 252.84 452.16C253.559 452.111 254.281 452.107 255 452.15Z" fill="#263238"/>
<path d="M254.78 452.52C254.72 452.57 254.11 451.93 253.69 450.6C253.448 449.817 253.343 448.998 253.38 448.18C253.403 447.691 253.473 447.205 253.59 446.73C253.637 446.418 253.763 446.123 253.955 445.873C254.147 445.622 254.4 445.425 254.69 445.3C254.875 445.261 255.066 445.275 255.243 445.34C255.42 445.406 255.575 445.52 255.69 445.67C255.864 445.892 256.006 446.138 256.11 446.4C256.312 446.86 256.437 447.349 256.48 447.85C256.569 448.68 256.448 449.518 256.13 450.29C255.58 451.62 254.77 452.09 254.74 452.02C255.074 451.405 255.371 450.77 255.63 450.12C255.844 449.411 255.902 448.664 255.8 447.93C255.737 447.505 255.616 447.091 255.44 446.7C255.26 446.26 254.99 445.94 254.84 446.03C254.69 446.12 254.35 446.52 254.27 446.92C254.148 447.345 254.068 447.78 254.03 448.22C253.967 448.969 254.011 449.723 254.16 450.46C254.46 451.74 254.89 452.46 254.78 452.52Z" fill="#263238"/>
<path d="M186.2 288C186.72 290.08 223.4 439.75 223.4 439.75L256.71 429.69L225.26 278.09L186.2 288Z" fill="#474E52"/>
<path d="M181.29 96.7493L175.47 141.469C175.237 143.271 175.372 145.102 175.867 146.85C176.362 148.598 177.207 150.227 178.35 151.639C179.494 153.051 180.912 154.216 182.519 155.063C184.127 155.911 185.889 156.423 187.7 156.569C191.136 156.844 194.545 155.787 197.223 153.616C199.9 151.445 201.639 148.328 202.08 144.909C202.51 141.539 202.88 138.739 202.95 138.389C202.95 138.389 214.48 138.809 216.76 127.649C217.87 122.249 219.24 110.959 220.37 100.729C220.95 95.4278 219.513 90.1021 216.344 85.8122C213.176 81.5224 208.508 78.5831 203.27 77.5793L202.19 77.3693C190.42 75.8093 182.53 84.9393 181.29 96.7493Z" fill="#FFBE9D"/>
<path d="M203 138.239C197.811 137.325 193.011 134.889 189.21 131.239C189.21 131.239 191.11 139.949 202.47 141.089L203 138.239Z" fill="#EB996E"/>
<path d="M217.17 107.05C217.092 107.466 216.855 107.835 216.51 108.079C216.165 108.324 215.738 108.424 215.32 108.36C214.912 108.3 214.544 108.082 214.297 107.752C214.05 107.422 213.943 107.008 214 106.6C214.076 106.183 214.312 105.812 214.658 105.567C215.003 105.323 215.432 105.223 215.85 105.29C216.258 105.349 216.626 105.568 216.873 105.898C217.12 106.227 217.227 106.642 217.17 107.05Z" fill="#263238"/>
<path d="M217.26 105.119C217.03 105.289 215.99 104.119 214.26 103.839C212.53 103.559 211.11 104.129 210.97 103.839C210.83 103.549 211.17 103.389 211.79 103.099C212.636 102.731 213.575 102.63 214.48 102.809C215.375 102.973 216.192 103.422 216.81 104.089C217.27 104.639 217.38 105.049 217.26 105.119Z" fill="#263238"/>
<path d="M199.88 104.589C199.802 105.008 199.564 105.379 199.217 105.626C198.87 105.872 198.441 105.974 198.02 105.909C197.814 105.886 197.614 105.821 197.433 105.72C197.251 105.618 197.092 105.481 196.965 105.317C196.837 105.154 196.744 104.966 196.689 104.765C196.635 104.565 196.622 104.355 196.65 104.149C196.728 103.734 196.965 103.365 197.31 103.12C197.655 102.876 198.082 102.775 198.5 102.839C198.706 102.862 198.906 102.925 199.088 103.025C199.269 103.126 199.429 103.261 199.558 103.424C199.686 103.587 199.781 103.774 199.836 103.974C199.892 104.174 199.906 104.383 199.88 104.589Z" fill="#263238"/>
<path d="M200.07 102.419C199.83 102.589 198.79 101.419 197.07 101.139C195.35 100.859 193.92 101.429 193.77 101.139C193.62 100.849 193.97 100.699 194.6 100.399C195.443 100.031 196.378 99.9293 197.28 100.109C198.176 100.278 198.995 100.726 199.62 101.389C200.08 101.939 200.19 102.349 200.07 102.419Z" fill="#263238"/>
<path d="M203.74 116.78C204.699 116.658 205.67 116.658 206.63 116.78C207.07 116.78 207.51 116.78 207.63 116.52C207.764 116.08 207.764 115.61 207.63 115.17L206.97 111.57C206.08 106.47 205.53 102.3 205.73 102.27C205.93 102.24 206.83 106.35 207.73 111.45C207.93 112.71 208.13 113.91 208.32 115.06C208.495 115.64 208.46 116.263 208.22 116.82C208.126 116.963 208 117.084 207.853 117.172C207.706 117.26 207.541 117.314 207.37 117.33C207.117 117.357 206.863 117.357 206.61 117.33C205.635 117.259 204.672 117.074 203.74 116.78Z" fill="#263238"/>
<path d="M201.25 98.9197C200.99 99.3597 199.32 98.8097 197.25 98.6597C195.18 98.5097 193.45 98.7497 193.25 98.2797C193.16 98.0597 193.53 97.6697 194.25 97.3497C195.231 96.9493 196.295 96.7915 197.35 96.8897C198.411 96.9595 199.439 97.2818 200.35 97.8297C201.06 98.2797 201.37 98.7097 201.25 98.9197Z" fill="#263238"/>
<path d="M218.06 98.8696C217.68 99.1996 216.57 98.5596 215.15 98.2696C213.73 97.9796 212.47 98.0296 212.27 97.5696C212.19 97.3496 212.45 96.9896 213.05 96.7196C213.839 96.4095 214.702 96.339 215.531 96.5168C216.36 96.6947 217.118 97.1131 217.71 97.7196C218.14 98.2696 218.23 98.6996 218.06 98.8696Z" fill="#263238"/>
<path d="M180.62 105.21C180.44 105.09 173.37 101.46 172.14 109.15C170.91 116.84 178.89 116.49 178.94 116.27C178.99 116.05 180.62 105.21 180.62 105.21Z" fill="#FFBE9D"/>
<path d="M177.05 113C177.05 113 176.91 113.07 176.66 113.14C176.492 113.184 176.318 113.195 176.146 113.171C175.974 113.147 175.809 113.089 175.66 113C174.89 112.58 174.41 111.18 174.6 109.78C174.684 109.117 174.917 108.481 175.28 107.92C175.389 107.691 175.553 107.493 175.757 107.343C175.961 107.193 176.199 107.096 176.45 107.06C176.61 107.044 176.77 107.084 176.903 107.174C177.036 107.263 177.134 107.396 177.18 107.55C177.25 107.78 177.18 107.93 177.18 107.95C177.18 107.97 177.36 107.84 177.35 107.52C177.336 107.319 177.255 107.129 177.12 106.98C176.929 106.793 176.677 106.683 176.41 106.67C176.082 106.686 175.763 106.787 175.484 106.962C175.206 107.137 174.977 107.381 174.82 107.67C174.388 108.284 174.113 108.995 174.02 109.74C173.82 111.3 174.38 112.88 175.44 113.38C175.638 113.471 175.852 113.519 176.07 113.519C176.288 113.519 176.503 113.471 176.7 113.38C177 113.17 177.08 113 177.05 113Z" fill="#EB996E"/>
<path d="M176.41 104.13C177.147 104.222 177.845 104.512 178.43 104.97C179.015 105.428 179.464 106.036 179.73 106.73C180.02 107.91 179.89 109.17 180.17 110.36C180.45 111.55 181.39 112.75 182.61 112.7C183.03 112.65 183.429 112.491 183.768 112.238C184.107 111.985 184.373 111.648 184.54 111.26C184.862 110.479 185.032 109.644 185.04 108.8C185.27 105.14 185.2 101.45 185.75 97.7997C186.151 94.1187 187.633 90.6389 190.01 87.7997C192.49 85.0997 196.39 83.5197 199.92 84.4997C202.26 85.1397 204.2 86.7997 206.5 87.5897C207.87 88.0453 209.326 88.1831 210.757 87.9925C212.188 87.8019 213.557 87.288 214.76 86.4897C214.893 86.4035 215.034 86.3298 215.18 86.2697C215.598 86.078 215.942 85.7535 216.157 85.3467C216.372 84.9399 216.447 84.4734 216.37 84.0197C216.331 83.7261 216.225 83.4454 216.06 83.1997C212.21 77.9997 204 75.1997 197.52 75.5697C191.04 75.9397 184.39 79.1897 180.61 84.4797C176.83 89.7697 176.07 97.9797 176.41 104.13Z" fill="#263238"/>
<path d="M207.2 122C205.53 121.756 203.929 121.167 202.5 120.27C203.348 120.304 204.179 120.515 204.94 120.89C205.762 121.1 206.531 121.478 207.2 122Z" fill="#263238"/>
<path d="M215.56 130.62C215.412 131.378 215.087 132.091 214.61 132.7C213.524 134.216 212.091 135.451 210.43 136.3C208.785 137.134 207.031 137.733 205.22 138.08C204.485 138.285 203.723 138.382 202.96 138.37C203.664 138.093 204.39 137.875 205.13 137.72C206.878 137.273 208.574 136.643 210.19 135.84C211.783 135.02 213.187 133.876 214.31 132.48C215.16 131.39 215.48 130.58 215.56 130.62Z" fill="#EB996E"/>
<path d="M210.14 136.33C207.43 137.68 205.44 141.33 203.72 143.75C203.136 144.443 202.718 145.26 202.5 146.14C202.419 147.097 202.588 148.058 202.99 148.93C203.48 150.26 203.99 151.57 204.59 152.87C204.75 153.25 204.96 153.66 205.36 153.75C205.76 153.84 206.28 153.37 206.49 152.9C206.873 151.682 207.085 150.416 207.12 149.14C207.154 148.503 207.342 147.884 207.67 147.337C207.998 146.789 208.454 146.33 209 146" fill="#EB996E"/>
<path d="M214.42 146.309L211.79 144.309C211.631 144.178 211.427 144.114 211.222 144.13C211.016 144.147 210.825 144.244 210.69 144.399L209.29 146.019L210.03 150.109C210.89 155.359 207.03 154.539 207.03 154.539L206.72 153.539L205.01 147.139C204.67 144.079 204.91 143.719 206.4 141.509L209.66 136.849C209.988 136.359 210.471 135.994 211.031 135.813C211.592 135.631 212.198 135.644 212.75 135.849C217.43 137.579 227.52 140.699 228.66 144.669C230.73 151.889 232.4 170.319 232.43 170.669L218.14 171.999L218.21 159.709C216.953 158.926 216.006 157.732 215.53 156.329C214.93 154.159 214.42 146.329 214.42 146.329" fill="#FFBE9D"/>
<path d="M224.29 148.72C224.29 148.72 224.14 148.97 223.75 149.3C223.194 149.785 222.528 150.128 221.81 150.3C221.3 150.414 220.77 150.414 220.26 150.3C219.655 150.147 219.12 149.795 218.74 149.3C217.9 148.3 217.74 146.88 217.04 145.85C216.61 145.378 216.115 144.971 215.57 144.64C215.056 144.309 214.522 144.012 213.97 143.75C213.529 143.485 213.025 143.343 212.51 143.34C212.076 143.478 211.679 143.714 211.35 144.03C210.06 145.22 209.35 146.12 209.28 146.03C209.21 145.94 209.41 145.78 209.71 145.37C210.132 144.793 210.597 144.248 211.1 143.74C211.466 143.36 211.919 143.075 212.42 142.91C212.579 142.879 212.742 142.879 212.9 142.91C213.049 142.936 213.196 142.972 213.34 143.02C213.625 143.103 213.903 143.21 214.17 143.34C214.75 143.591 215.308 143.888 215.84 144.23C216.447 144.584 216.994 145.033 217.46 145.56C218.3 146.78 218.4 148.17 219.11 149.02C219.428 149.391 219.839 149.671 220.302 149.829C220.765 149.988 221.261 150.019 221.74 149.92C222.417 149.793 223.061 149.527 223.63 149.14C224 148.86 224.26 148.69 224.29 148.72Z" fill="#EB996E"/>
<path d="M222.71 153.06C219.978 152.899 217.317 152.13 214.92 150.81C216.254 151.052 217.565 151.407 218.84 151.87C220.16 152.159 221.455 152.557 222.71 153.06Z" fill="#EB996E"/>
<path d="M217.64 146.37C213.9 146.37 213.46 146.2 209.23 146.43C208.598 146.434 207.971 146.535 207.37 146.73C207.069 146.83 206.796 147 206.573 147.226C206.351 147.452 206.185 147.727 206.09 148.03C205.8 149.19 206.97 150.24 208.09 150.51C209.21 150.78 210.49 150.57 211.65 150.84C213.492 151.166 215.156 152.142 216.34 153.59C218.78 157.04 221.34 155.38 223 156.59L227.36 153.83L225.82 147.39L217.6 146.39" fill="#FFBE9D"/>
<path d="M223.42 156.62C223.041 156.445 222.641 156.32 222.23 156.25C221.051 156.235 219.883 156.029 218.77 155.64C218.028 155.265 217.378 154.728 216.87 154.07C216.36 153.331 215.703 152.704 214.94 152.23C214.087 151.727 213.163 151.357 212.2 151.13C211.131 150.964 210.052 150.871 208.97 150.85C208.371 150.814 207.794 150.607 207.31 150.252C206.826 149.897 206.454 149.411 206.24 148.85C206.159 148.557 206.155 148.249 206.229 147.955C206.303 147.66 206.451 147.39 206.66 147.17C207.033 146.768 207.516 146.486 208.05 146.36C208.976 146.21 209.912 146.133 210.85 146.13C211.71 146.13 212.52 146.13 213.26 146.13C214.74 146.13 215.92 146.23 216.74 146.27C217.169 146.262 217.598 146.295 218.02 146.37C217.599 146.457 217.169 146.491 216.74 146.47C215.92 146.47 214.74 146.47 213.26 146.47C212.53 146.47 211.73 146.47 210.87 146.56C209.964 146.573 209.061 146.66 208.17 146.82C207.32 147 206.45 147.82 206.73 148.7C206.924 149.158 207.245 149.551 207.653 149.834C208.062 150.117 208.543 150.279 209.04 150.3C210.139 150.321 211.235 150.422 212.32 150.6C213.337 150.847 214.309 151.252 215.2 151.8C216.001 152.317 216.683 152.999 217.2 153.8C217.659 154.424 218.25 154.94 218.93 155.31C220.001 155.709 221.121 155.958 222.26 156.05C222.583 156.108 222.891 156.227 223.17 156.4C223.35 156.53 223.43 156.6 223.42 156.62Z" fill="#EB996E"/>
<path d="M217.22 143.45C217.22 143.39 217.49 143.34 217.88 143.51C218.132 143.632 218.351 143.814 218.516 144.041C218.682 144.267 218.789 144.531 218.829 144.808C218.868 145.086 218.839 145.369 218.743 145.633C218.647 145.896 218.488 146.132 218.28 146.32C217.96 146.6 217.69 146.62 217.66 146.56C217.63 146.5 217.82 146.36 218.01 146.08C218.252 145.729 218.362 145.304 218.32 144.88C218.236 144.482 218.013 144.127 217.69 143.88C217.43 143.61 217.21 143.53 217.22 143.45Z" fill="#EB996E"/>
<path d="M225.59 311.08L207.35 356.61L225.05 359.72L244.79 320.45L225.59 311.08Z" fill="#FFBE9D"/>
<path d="M236.39 342.32L226.39 362.75C226.39 362.75 243.77 379.82 242.28 383.75L201.98 365.68L216.33 333.22L236.39 342.32Z" fill="#418BFA"/>
<path d="M214.67 355.42C214.227 355.356 213.776 355.459 213.405 355.711C213.035 355.963 212.773 356.344 212.67 356.78C212.59 357.221 212.683 357.675 212.931 358.048C213.179 358.421 213.562 358.684 214 358.78C214.467 358.839 214.94 358.722 215.326 358.453C215.712 358.183 215.985 357.779 216.09 357.32C216.121 356.855 215.968 356.396 215.666 356.041C215.363 355.686 214.934 355.463 214.47 355.42" fill="#E0E0E0"/>
<g opacity="0.4">
<path d="M201.94 365.709L203.39 362.439L241.57 380.999C241.57 380.999 243.01 382.579 242.24 383.759L201.94 365.709Z" fill="black"/>
</g>
<path d="M227.09 362.829C227 363.029 225.97 362.679 224.72 362.879C223.47 363.079 222.58 363.669 222.44 363.509C222.3 363.349 223.09 362.349 224.61 362.129C226.13 361.909 227.21 362.669 227.09 362.829Z" fill="#263238"/>
<path d="M230.53 366.479C230.53 366.689 229.53 366.639 228.45 367.169C227.37 367.699 226.82 368.499 226.63 368.399C226.44 368.299 226.81 367.139 228.12 366.499C229.43 365.859 230.61 366.289 230.53 366.479Z" fill="#263238"/>
<path d="M230.67 372.61C230.47 372.61 230.67 371.47 231.67 370.61C232.67 369.75 233.78 369.74 233.79 369.94C233.8 370.14 232.97 370.46 232.17 371.17C231.37 371.88 230.87 372.68 230.67 372.61Z" fill="#263238"/>
<path d="M228.86 357.93C228.7 358.07 227.92 357.39 226.77 356.93C225.62 356.47 224.6 356.47 224.58 356.25C224.56 356.03 225.7 355.71 227.04 356.25C228.38 356.79 229 357.81 228.86 357.93Z" fill="#263238"/>
<path d="M230.82 353.77C230.084 353.645 229.394 353.328 228.82 352.85C228.15 352.397 227.538 351.863 227 351.26C226.678 350.902 226.384 350.521 226.12 350.12C225.945 349.894 225.81 349.641 225.72 349.37C225.652 349.173 225.653 348.959 225.722 348.763C225.791 348.567 225.924 348.4 226.1 348.29C226.259 348.196 226.438 348.141 226.622 348.129C226.806 348.116 226.99 348.148 227.16 348.22C227.416 348.337 227.655 348.488 227.87 348.67C228.255 348.972 228.613 349.306 228.94 349.67C229.482 350.283 229.924 350.978 230.25 351.73C230.625 352.387 230.783 353.147 230.7 353.9C230.58 353.9 230.4 353.1 229.77 351.96C229.407 351.296 228.956 350.683 228.43 350.14C228.117 349.824 227.783 349.53 227.43 349.26C227.05 348.96 226.69 348.79 226.5 348.94C226.31 349.09 226.41 349.02 226.44 349.18C226.509 349.376 226.607 349.562 226.73 349.73C226.975 350.106 227.238 350.47 227.52 350.82C228.011 351.406 228.553 351.948 229.14 352.44C230.13 353.27 230.87 353.66 230.82 353.77Z" fill="#263238"/>
<path d="M230.43 353.93C230.306 353.186 230.425 352.421 230.77 351.75C231.069 350.985 231.499 350.278 232.04 349.66C232.359 349.292 232.714 348.957 233.1 348.66C233.33 348.443 233.611 348.289 233.918 348.212C234.224 348.135 234.545 348.138 234.85 348.22C235.025 348.308 235.172 348.442 235.276 348.607C235.38 348.773 235.437 348.964 235.44 349.16C235.437 349.445 235.393 349.728 235.31 350C235.18 350.481 234.978 350.94 234.71 351.36C234.253 352.061 233.636 352.643 232.91 353.06C232.598 353.28 232.246 353.436 231.873 353.519C231.501 353.601 231.115 353.608 230.74 353.54C231.386 353.264 232.017 352.954 232.63 352.61C233.236 352.181 233.744 351.629 234.12 350.99C234.332 350.62 234.493 350.223 234.6 349.81C234.73 349.36 234.72 348.94 234.54 348.91C234.359 348.894 234.176 348.916 234.004 348.975C233.832 349.033 233.674 349.127 233.54 349.25C233.182 349.511 232.848 349.802 232.54 350.12C232.026 350.67 231.592 351.289 231.25 351.96C230.67 353.12 230.55 354 230.43 353.93Z" fill="#263238"/>
<path d="M190.68 256.48L246.84 229C251.653 226.642 257.099 225.901 262.367 226.886C267.635 227.872 272.445 230.532 276.08 234.47C279.475 238.151 281.681 242.77 282.411 247.724C283.141 252.678 282.36 257.737 280.17 262.24L242.91 338.86L211.74 329L239.15 270.6L208.31 294.1C199.982 300.44 189.826 303.913 179.36 304L171.28 304.07C164.627 303.793 158.158 301.808 152.495 298.305C146.833 294.802 142.168 289.899 138.95 284.07L190.68 256.48Z" fill="#474E52"/>
<path d="M242.91 338.84C242.91 338.84 242.71 338.84 242.33 338.69L240.68 338.2L234.39 336.28L211.67 329.21L211.45 329.14L211.55 328.92C217.05 317.16 223.91 302.51 231.32 286.66C233.95 281.08 236.5 275.66 238.92 270.5L239.3 270.81C225.16 281.35 212.5 290.1 203.16 295.86C199.533 298.166 195.758 300.23 191.86 302.04C190.806 302.517 189.707 302.888 188.58 303.15C188.288 303.218 187.99 303.258 187.69 303.27H187.39C187.39 303.27 187.8 303.27 188.56 303.05C189.669 302.751 190.75 302.356 191.79 301.87C195.649 300.001 199.389 297.897 202.99 295.57C212.27 289.74 224.88 280.94 238.99 270.4L239.81 269.79L239.38 270.71C236.96 275.86 234.38 281.29 231.8 286.87C224.35 302.71 217.46 317.34 211.93 329.09L211.8 328.8L234.46 336.04L240.72 338.04L242.35 338.59L242.91 338.84Z" fill="#455A64"/>
<path d="M249.71 257.92C247.321 259.488 245.146 261.36 243.24 263.49C241.472 265.737 240.009 268.208 238.89 270.84C239.011 269.997 239.261 269.177 239.63 268.41C241.247 264.592 243.966 261.343 247.44 259.08C248.132 258.577 248.898 258.186 249.71 257.92Z" fill="#455A64"/>
<path d="M130.65 366.34H211.43C211.969 366.337 212.488 366.544 212.876 366.918C213.264 367.291 213.492 367.801 213.51 368.34C213.517 368.618 213.468 368.894 213.366 369.153C213.265 369.411 213.113 369.647 212.919 369.847C212.726 370.046 212.494 370.204 212.239 370.313C211.983 370.422 211.708 370.479 211.43 370.48H130.65C130.1 370.477 129.574 370.257 129.186 369.867C128.798 369.477 128.58 368.95 128.58 368.4C128.583 367.853 128.802 367.329 129.19 366.943C129.578 366.557 130.103 366.34 130.65 366.34Z" fill="#E0E0E0"/>
<path d="M200.81 314.91H137.62C137.62 313.303 137.937 311.711 138.552 310.226C139.167 308.741 140.069 307.392 141.205 306.255C142.342 305.118 143.691 304.217 145.176 303.602C146.661 302.987 148.253 302.67 149.86 302.67H188.56C190.168 302.669 191.761 302.984 193.247 303.599C194.733 304.213 196.084 305.115 197.222 306.251C198.359 307.388 199.262 308.738 199.877 310.224C200.493 311.709 200.81 313.302 200.81 314.91Z" fill="#455A64"/>
<path d="M202.79 314.91H136.13V318.62H202.79V314.91Z" fill="#E0E0E0"/>
<path d="M142.06 318.63L125.76 479.29H129.6L149.49 318.63H142.06Z" fill="#E0E0E0"/>
<path d="M196.36 318.63L212.65 479.21L208.82 479.23L188.94 318.69L196.36 318.63Z" fill="#E0E0E0"/>
<path d="M173.66 317.21L170.91 479.28H166.98L165.26 316.77L173.66 317.21Z" fill="#E0E0E0"/>
<path d="M172.38 141.07L176.34 129.05L202.47 141.14L201.27 153.86L188.25 157.56L175.47 149.73L172.38 141.07Z" fill="#418BFA"/>
<path d="M139 284.1C137.839 283.278 136.899 282.183 136.26 280.912C135.622 279.64 135.306 278.232 135.34 276.81C135.34 271.99 139.64 271.59 139.78 268.92C141.21 241.37 144.33 184.3 146.39 166.29C148.98 143.59 175.58 138.8 175.58 138.8L197.53 144.19V145.85C205.13 155.62 208.42 170.35 208.43 182.73L207.43 248.31L139 284.1Z" fill="#418BFA"/>
<path d="M163.63 247.37C163.392 247.768 163.118 248.143 162.81 248.49C162.27 249.19 161.44 250.18 160.4 251.38C158.32 253.79 155.33 257.02 151.81 260.38C148.29 263.74 144.93 266.58 142.43 268.54C141.17 269.54 140.15 270.3 139.43 270.82C139.072 271.114 138.683 271.369 138.27 271.58C138.572 271.241 138.907 270.933 139.27 270.66L142.16 268.26C144.6 266.26 147.92 263.35 151.42 260C154.92 256.65 157.95 253.48 160.1 251.14L162.63 248.35C162.928 247.989 163.263 247.661 163.63 247.37Z" fill="#263238"/>
<g opacity="0.2">
<path d="M142 268.83C142.08 264.68 145.19 261.26 148.27 258.47C151.869 255.199 155.699 252.191 159.73 249.47C159.93 251.47 158.55 253.3 157.21 254.84C152.706 259.983 147.723 264.688 142.33 268.89" fill="black"/>
</g>
<path d="M180.43 139.08C180.527 137.883 180.8 136.707 181.24 135.59C181.51 134.423 181.948 133.301 182.54 132.26C182.443 133.457 182.17 134.633 181.73 135.75C181.455 136.915 181.017 138.036 180.43 139.08Z" fill="#263238"/>
<path d="M190.62 135.67C190.619 136.847 190.44 138.016 190.09 139.14C189.921 140.299 189.584 141.428 189.09 142.49C189.092 141.313 189.271 140.143 189.62 139.02C189.789 137.861 190.126 136.732 190.62 135.67Z" fill="#263238"/>
<path d="M198.21 139.46C198.242 140.517 198.152 141.574 197.94 142.61C197.906 143.671 197.752 144.724 197.48 145.75C197.253 144.695 197.253 143.605 197.48 142.55C197.507 141.481 197.756 140.429 198.21 139.46Z" fill="#263238"/>
<path d="M171.83 203.64C171.468 203.713 171.099 203.74 170.73 203.72C170.01 203.72 168.98 203.72 167.73 203.72C165.18 203.72 161.66 203.72 157.73 203.61C153.8 203.5 150.31 203.44 147.73 203.34C146.45 203.34 145.42 203.25 144.73 203.2C144.356 203.209 143.983 203.169 143.62 203.08C143.986 203.015 144.358 202.988 144.73 203C145.45 203 146.48 203 147.73 203C150.28 203 153.8 203 157.73 203.11C161.66 203.22 165.15 203.27 167.73 203.37L170.73 203.51C171.101 203.503 171.471 203.547 171.83 203.64Z" fill="#FAFAFA"/>
<path d="M166.26 195.249C166.26 195.399 161.26 195.399 155.06 195.249C148.86 195.099 143.88 194.899 143.88 194.749C143.88 194.599 148.88 194.599 155.07 194.749C161.26 194.899 166.26 195.109 166.26 195.249Z" fill="#FAFAFA"/>
<g opacity="0.2">
<path d="M156.75 182.319C164.75 199.739 174.53 215.379 185.9 230.799C188.83 234.799 191.97 238.799 196.2 241.289C200.43 243.779 203.2 243.119 207.47 240.569C202.74 239.059 201.47 238.569 197.47 235.679C193.57 232.633 190.166 229 187.38 224.909C177.38 211.149 167.62 196.979 157.6 183.219" fill="black"/>
</g>
<path d="M239.92 207.09C240.028 205.933 240.343 204.806 240.85 203.76C241.107 203.237 241.497 202.791 241.982 202.468C242.467 202.145 243.028 201.956 243.61 201.92C243.897 201.917 244.181 201.977 244.443 202.093C244.705 202.21 244.939 202.382 245.129 202.598C245.319 202.813 245.46 203.067 245.543 203.342C245.626 203.616 245.649 203.906 245.61 204.19C245.36 204.827 244.982 205.405 244.5 205.89C243.23 207.63 243.35 209.98 243.36 212.13C243.37 214.28 243.1 216.74 241.36 218.03" fill="#FFBE9D"/>
<path d="M160.58 156.889C158.575 158.29 156.874 160.081 155.579 162.155C154.283 164.23 153.42 166.544 153.041 168.96C152.662 171.376 152.775 173.843 153.372 176.215C153.97 178.586 155.041 180.812 156.52 182.759L193.06 230.879C196.91 235.888 202.374 239.411 208.524 240.853C214.675 242.294 221.135 241.565 226.81 238.789C231.636 236.424 235.66 232.691 238.38 228.055C241.101 223.42 242.398 218.086 242.11 212.719L234.06 162.119L214.4 163.339L216.26 204.549L185.84 161.319C183.072 157.39 178.859 154.718 174.125 153.887C169.391 153.057 164.52 154.137 160.58 156.889Z" fill="#418BFA"/>
<path d="M239.34 227.07C234.5 225.94 233.68 225.07 228.85 223.98C227.41 223.64 225.56 222.71 226.2 221.18C226.378 220.792 226.671 220.469 227.04 220.254C227.409 220.039 227.835 219.943 228.26 219.98C230.14 220.14 233.17 221.26 234.99 221.43C235.44 221.43 235.43 221.02 235.23 220.71C232.287 219.822 229.277 219.173 226.23 218.77C225.801 218.713 225.398 218.531 225.071 218.248C224.743 217.964 224.506 217.591 224.388 217.174C224.27 216.758 224.277 216.316 224.407 215.903C224.537 215.49 224.785 215.124 225.12 214.85C225.522 214.644 225.96 214.518 226.41 214.48C228.35 214.76 228.35 214.76 230.41 215.12C236.2 216.12 235.41 214.98 235.41 214.98C235.41 214.54 228.82 213.9 225.41 213.49C224.672 213.497 223.958 213.226 223.41 212.73C223.166 212.363 223.055 211.923 223.097 211.484C223.139 211.045 223.331 210.634 223.64 210.32C223.932 209.98 224.288 209.702 224.688 209.501C225.088 209.3 225.524 209.181 225.97 209.15C229.74 209.08 242.12 210.46 242.12 210.46C242.12 210.46 243.74 212.66 243.24 217.17C242.73 222.11 239.34 227.07 239.34 227.07Z" fill="#FFBE9D"/>
<path d="M221.83 240.569C221.83 240.569 221.65 240.569 221.31 240.649L219.77 240.809C218.41 240.929 216.41 241.119 213.77 241.149C210.614 241.231 207.465 240.795 204.45 239.859C200.509 238.384 196.98 235.983 194.16 232.859C190.731 229.16 187.509 225.274 184.51 221.219C181.22 216.889 177.78 212.219 174.2 207.269C170.62 202.319 166.92 197.089 163.11 191.639L157.34 183.309C156.85 182.599 156.34 181.889 155.88 181.169L155.18 180.059C154.945 179.687 154.734 179.299 154.55 178.899C153.752 177.308 153.199 175.606 152.91 173.849C152.602 172.095 152.568 170.304 152.81 168.539C152.922 167.666 153.089 166.801 153.31 165.949C153.556 165.112 153.853 164.29 154.2 163.489C154.548 162.697 154.949 161.928 155.4 161.189C155.861 160.461 156.372 159.766 156.93 159.109C158.018 157.802 159.288 156.657 160.7 155.709C162.091 154.781 163.597 154.038 165.18 153.499C166.741 152.998 168.362 152.705 170 152.629C173.185 152.484 176.353 153.174 179.19 154.629C181.873 156.03 184.176 158.061 185.9 160.549C187.553 162.923 189.15 165.229 190.69 167.469L199.29 179.889L211.71 197.889L215.07 202.799C215.44 203.349 215.72 203.799 215.93 204.079L216.21 204.529C216.093 204.395 215.983 204.255 215.88 204.109L214.98 202.859L211.6 197.999L199 180.109L190.35 167.719L185.53 160.819C183.843 158.402 181.596 156.429 178.98 155.069C174.748 152.945 169.847 152.586 165.35 154.069C163.813 154.598 162.35 155.324 161 156.229C159.622 157.144 158.385 158.256 157.33 159.529C156.792 160.162 156.298 160.83 155.85 161.529C155.41 162.247 155.023 162.996 154.69 163.769C154.345 164.545 154.055 165.344 153.82 166.159C153.601 166.987 153.437 167.829 153.33 168.679C152.908 172.107 153.499 175.584 155.03 178.679C155.84 180.192 156.756 181.645 157.77 183.029L163.54 191.369C167.34 196.819 171.04 202.049 174.6 206.999C178.16 211.949 181.6 216.639 184.86 220.999C187.841 225.053 191.039 228.942 194.44 232.649C197.207 235.752 200.672 238.151 204.55 239.649C207.534 240.596 210.65 241.055 213.78 241.009C216.36 241.009 218.36 240.849 219.72 240.759L221.26 240.659C221.65 240.569 221.83 240.569 221.83 240.569Z" fill="#263238"/>
<path d="M218.35 219.65C219.607 214.25 218.703 208.572 215.83 203.83C216.411 204.412 216.887 205.088 217.24 205.83C218.197 207.568 218.843 209.46 219.15 211.42C219.462 213.377 219.435 215.373 219.07 217.32C218.964 218.132 218.72 218.92 218.35 219.65Z" fill="#263238"/>
<path d="M218.84 168.71C218.373 167.887 218.132 166.955 218.14 166.009C217.977 165.078 218.059 164.119 218.38 163.229C218.575 164.13 218.669 165.049 218.66 165.969C218.823 166.873 218.884 167.792 218.84 168.71Z" fill="#263238"/>
<path d="M224.26 168.21C223.419 166.553 223.172 164.657 223.56 162.84C223.797 163.715 223.931 164.614 223.96 165.52C224.161 166.402 224.261 167.305 224.26 168.21Z" fill="#263238"/>
<path d="M229.63 166.999C229.33 166.307 229.2 165.552 229.25 164.799C229.126 164.055 229.174 163.292 229.39 162.569C229.684 163.264 229.814 164.017 229.77 164.769C229.888 165.514 229.841 166.275 229.63 166.999Z" fill="#263238"/>
<path d="M196.52 178.19C196.6 178.3 190.4 182.74 182.67 188.1C174.94 193.46 168.61 197.71 168.52 197.59C168.43 197.47 174.64 193.03 182.37 187.67C190.1 182.31 196.44 178.07 196.52 178.19Z" fill="#FAFAFA"/>
<path d="M191.68 170.93C191.346 171.246 190.981 171.527 190.59 171.77L187.54 173.91C184.95 175.71 181.4 178.23 177.54 181.08C173.68 183.93 170.24 186.61 167.76 188.55C166.58 189.48 165.6 190.25 164.82 190.85C164.476 191.155 164.1 191.423 163.7 191.65C163.996 191.281 164.332 190.946 164.7 190.65C165.36 190.06 166.33 189.23 167.54 188.22C169.96 186.22 173.37 183.48 177.24 180.62C181.11 177.76 184.7 175.28 187.34 173.55C188.66 172.69 189.73 172 190.49 171.55C190.865 171.304 191.264 171.096 191.68 170.93Z" fill="#FAFAFA"/>
<path d="M422.66 391H300V479.18H422.66V391Z" fill="#96C0FF"/>
<path d="M332.9 391C333.07 391 332.9 409.62 332.9 409.62H323.82V391H332.9Z" fill="#263238"/>
<g opacity="0.4">
<path d="M361.33 479.18H422.66V391H361.33V479.18Z" fill="black"/>
</g>
<path d="M320.16 461.92H303.74V473.54H320.16V461.92Z" fill="#FAFAFA"/>
<path d="M320.18 473.56H303.71V461.89H320.18V473.56ZM303.76 473.56H320.13V461.94H303.76V473.56Z" fill="#263238"/>
<path d="M331.4 461.92H323.19V473.54H331.4V461.92Z" fill="#FAFAFA"/>
<path d="M331.42 473.56H323.16V461.89H331.42V473.56ZM323.22 473.56H331.37V461.94H323.22V473.56Z" fill="#263238"/>
<path d="M450.66 303H328V391.18H450.66V303Z" fill="#96C0FF"/>
<path d="M360.9 303C361.07 303 360.9 321.62 360.9 321.62H351.82V303H360.9Z" fill="#263238"/>
<g opacity="0.4">
<path d="M389.33 391.18H450.66V303H389.33V391.18Z" fill="black"/>
</g>
<path d="M348.16 373.92H331.74V385.54H348.16V373.92Z" fill="#FAFAFA"/>
<path d="M348.18 385.56H331.71V373.89H348.18V385.56ZM331.76 385.56H348.13V373.94H331.76V385.56Z" fill="#263238"/>
<path d="M359.4 373.92H351.19V385.54H359.4V373.92Z" fill="#FAFAFA"/>
<path d="M359.42 385.56H351.16V373.89H359.42V385.56ZM351.22 385.56H359.37V373.94H351.22V385.56Z" fill="#263238"/>
<path d="M290 215H412.66V303.18H290V215Z" fill="#96C0FF"/>
<path d="M379.76 215C379.59 215 379.76 233.62 379.76 233.62H388.84V215H379.76Z" fill="#263238"/>
<g opacity="0.4">
<path d="M351.33 303.18H290V215H351.33V303.18Z" fill="black"/>
</g>
<path d="M392.5 285.92H408.92V297.54H392.5V285.92Z" fill="#FAFAFA"/>
<path d="M392.48 297.56H408.95V285.89H392.48V297.56ZM408.9 297.56H392.53V285.94H408.9V297.56Z" fill="#263238"/>
<path d="M381.26 285.92H389.47V297.54H381.26V285.92Z" fill="#FAFAFA"/>
<path d="M381.24 297.56H389.5V285.89H381.24V297.56ZM389.44 297.56H381.29V285.94H389.44V297.56Z" fill="#263238"/>
<path d="M455.66 127H333V215.18H455.66V127Z" fill="#96C0FF"/>
<path d="M365.9 127C366.07 127 365.9 145.62 365.9 145.62H356.82V127H365.9Z" fill="#263238"/>
<g opacity="0.4">
<path d="M394.33 215.18H455.66V127L394.33 127V215.18Z" fill="black"/>
</g>
<path d="M353.16 197.92H336.74V209.54H353.16V197.92Z" fill="#FAFAFA"/>
<path d="M353.18 209.56H336.71V197.89H353.18V209.56ZM336.76 209.56H353.13V197.94H336.76V209.56Z" fill="#263238"/>
<path d="M364.4 197.92H356.19V209.54H364.4V197.92Z" fill="#FAFAFA"/>
<path d="M364.42 209.56H356.16V197.89H364.42V209.56ZM356.22 209.56H364.37V197.94H356.22V209.56Z" fill="#263238"/>
</svg>
