<svg width="303" height="88" viewBox="0 0 303 88" fill="none" xmlns="http://www.w3.org/2000/svg">
<path d="M31.2019 63.9099H52.8896L60.8663 23.7061H39.1786L31.2019 63.9099Z" fill="#F8981D"/>
<path d="M61.539 20.1492L65.5114 0.03125H43.8237L39.8193 20.1492H61.539Z" fill="#F8981D"/>
<path d="M79.4148 63.9089L87.6798 20.1492H91.7803L83.4832 63.9089H105.171L113.468 20.1492H117.729L109.432 63.9089H131.119L143.613 0.03125H142.908H80.1836H70.1887L57.6951 63.9089H79.4148Z" fill="#F8981D"/>
<path d="M262.366 88H284.054L296.804 25.6279H275.116L262.366 88Z" fill="#F8981D"/>
<path d="M280.69 0.03125V0.0632771H271.4C277.006 4.09968 277.839 10.4426 277.454 15.3119L275.981 22.3596H276.013C276.013 22.3916 275.981 22.3916 275.981 22.3916L276.013 22.3596H297.637L302.378 0.03125H280.69Z" fill="#F8981D"/>
<path d="M156.074 63.9097L158.925 49.2377H163.186L160.335 63.9097H182.023L194.933 0H147.297L134.387 63.9097H156.074ZM164.82 20.15H169.081L165.749 35.6549H161.488L164.82 20.15Z" fill="#F8981D"/>
<path d="M260.412 0.03125H198.777L184.714 67.625H26.589L40.0757 0.03125H18.3881L0 87.9992H3.71605H6.5992H44.4645H46.0663H180.485H183.304H199.834H201.019H238.885H242.184H258.522L273.482 16.1128C275.212 7.81574 268.901 0.03125 260.412 0.03125ZM248.623 31.3294L243.337 56.8292C241.992 63.2682 236.322 67.8813 229.723 67.8813H206.337L216.268 20.1172H239.493C245.42 20.1492 249.841 25.5631 248.623 31.3294Z" fill="#F8981D"/>
</svg>
