<svg width="16" height="16" viewBox="0 0 16 16" fill="none" xmlns="http://www.w3.org/2000/svg">
<g clip-path="url(#clip0_806_14860)">
<path d="M9.9999 8.66657C9.63125 8.66657 9.33328 8.96529 9.33328 9.33319V11.9999C9.33328 12.3672 9.03457 12.6665 8.66654 12.6665H6.66656V2.66663C6.66656 2.09729 6.30391 1.58864 5.7586 1.3993L5.56123 1.33327H8.66654C9.03457 1.33327 9.33328 1.63258 9.33328 2.00001V3.99999C9.33328 4.36789 9.63125 4.66661 9.9999 4.66661C10.3686 4.66661 10.6665 4.36789 10.6665 3.99999V2.00001C10.6665 0.897366 9.76919 3.12497e-05 8.66654 3.12497e-05H1.49999C1.47461 3.12497e-05 1.45336 0.0113749 1.4287 0.0146874C1.39658 0.0119999 1.36596 0 1.33336 0C0.598025 3.12497e-05 0 0.597963 0 1.3333V13.3332C0 13.9025 0.362653 14.4112 0.90796 14.6005L4.91995 15.9379C5.05595 15.9798 5.1912 15.9999 5.33329 15.9999C6.06863 15.9999 6.66653 15.4018 6.66653 14.6665V13.9999H8.66651C9.76915 13.9999 10.6665 13.1026 10.6665 11.9999V9.33319C10.6665 8.96529 10.3685 8.66657 9.99987 8.66657H9.9999Z" fill="#FF6368"/>
<path d="M15.8045 6.19557L13.1378 3.52897C13.0446 3.43568 12.9258 3.37212 12.7965 3.34635C12.6671 3.32058 12.5331 3.33375 12.4112 3.38419C12.1626 3.4876 11.9998 3.73088 11.9998 4.00028V6.00026H9.33325C8.96522 6.00026 8.6665 6.29885 8.6665 6.66688C8.6665 7.03491 8.96522 7.3335 9.33325 7.3335H11.9998V9.33348C11.9998 9.60288 12.1626 9.84616 12.4112 9.94957C12.5331 10 12.6671 10.0132 12.7964 9.98743C12.9258 9.96167 13.0446 9.89815 13.1378 9.80488L15.8045 7.13819C16.0651 6.87757 16.0651 6.4562 15.8045 6.19557Z" fill="#FF6368"/>
</g>
<defs>
<clipPath id="clip0_806_14860">
<rect width="16" height="15.9998" fill="white"/>
</clipPath>
</defs>
</svg>
