<svg width="16" height="16" viewBox="0 0 16 16" fill="none" xmlns="http://www.w3.org/2000/svg">
<g clip-path="url(#clip0_441_4453)">
<path d="M13.0201 4.3252H10.3639V5.90145H13.0201C13.8103 5.90145 14.4232 6.3047 14.4232 6.65201V13.6419C14.4232 13.9889 13.8103 14.3927 13.0201 14.3927H2.97912C2.18915 14.3927 1.57625 13.9889 1.57625 13.6419V6.65279C1.57625 6.30549 2.18915 5.90197 2.97912 5.90197H5.6351V4.32572H2.97912C1.30855 4.32572 0 5.34792 0 6.65279V13.6422C0 14.9473 1.30855 15.969 2.97912 15.969H13.0206C14.6907 15.969 15.9997 14.9468 15.9997 13.6422V6.65279C15.9995 5.34739 14.6909 4.3252 13.0201 4.3252Z" fill="white"/>
<path d="M10.3849 7.61975C10.2813 7.61966 10.1788 7.64004 10.0832 7.67972C9.98754 7.71939 9.9007 7.77758 9.82764 7.85093L8.84089 8.83742V0.8189C8.84089 0.609873 8.75785 0.409407 8.61005 0.261602C8.46224 0.113798 8.26178 0.0307617 8.05275 0.0307617C7.84372 0.0307617 7.64325 0.113798 7.49545 0.261602C7.34765 0.409407 7.26461 0.609873 7.26461 0.8189V8.89049L6.22453 7.85067C6.15149 7.77726 6.06466 7.71901 5.96904 7.67926C5.87341 7.6395 5.77087 7.61904 5.66732 7.61904C5.56376 7.61904 5.46122 7.6395 5.3656 7.67926C5.26997 7.71901 5.18314 7.77726 5.1101 7.85067C5.03689 7.9238 4.9788 8.01064 4.93918 8.10623C4.89955 8.20181 4.87915 8.30428 4.87915 8.40775C4.87915 8.51123 4.89955 8.6137 4.93918 8.70928C4.9788 8.80487 5.03689 8.89171 5.1101 8.96484L7.46322 11.318C7.5363 11.3912 7.62312 11.4492 7.7187 11.4887C7.81428 11.5283 7.91674 11.5485 8.02017 11.5484H8.03199C8.23376 11.5484 8.435 11.4719 8.58895 11.318L10.9421 8.96484C11.0525 8.85475 11.1278 8.71433 11.1584 8.56138C11.189 8.40843 11.1734 8.24986 11.1137 8.10576C11.054 7.96167 10.9529 7.83855 10.8231 7.75202C10.6934 7.66549 10.5408 7.61945 10.3849 7.61975Z" fill="white"/>
</g>
<defs>
<clipPath id="clip0_441_4453">
<rect width="15.9997" height="15.9997" fill="white"/>
</clipPath>
</defs>
</svg>
