<svg width="291" height="198" viewBox="0 0 291 198" fill="none" xmlns="http://www.w3.org/2000/svg">
<path d="M213.003 6.6223L30.6469 45.4789C13.8904 49.0493 3.15978 65.5912 6.73024 82.3477L41.2693 244.442C44.8398 261.198 61.3817 271.929 78.1381 268.358L260.494 229.502C277.251 225.931 287.982 209.389 284.411 192.633L249.872 30.5389C246.302 13.7825 229.76 3.05183 213.003 6.6223Z" fill="#CFD8DC"/>
<path d="M30.6469 45.4789L213.003 6.6223C229.789 3.0455 246.295 13.7528 249.872 30.5389L257.428 65.9977L14.2858 117.806L6.73024 82.3477C3.15345 65.5616 13.8608 49.0557 30.6469 45.4789Z" fill="#2196F3"/>
<path d="M150.305 110.005L185.764 102.449L191.161 127.778L155.702 135.333L150.305 110.005Z" fill="white"/>
<path d="M94.5862 121.878L130.045 114.322L135.442 139.651L99.9832 147.206L94.5862 121.878Z" fill="white"/>
<path d="M38.8674 133.75L74.3244 126.195L79.7214 151.523L44.2644 159.078L38.8674 133.75Z" fill="white"/>
<path d="M48.5823 179.34L84.0392 171.785L89.4362 197.113L53.9793 204.668L48.5823 179.34Z" fill="white"/>
<path d="M104.301 167.467L139.76 159.911L145.157 185.24L109.698 192.795L104.301 167.467Z" fill="white"/>
<path d="M169.735 201.182L205.193 193.627L210.59 218.955L175.132 226.511L169.735 201.182Z" fill="white"/>
<path d="M160.02 155.595L195.479 148.039L200.876 173.368L165.417 180.923L160.02 155.595Z" fill="white"/>
<path d="M215.742 143.721L251.199 136.165L256.596 161.494L221.139 169.049L215.742 143.721Z" fill="white"/>
<path d="M206.028 98.1317L241.485 90.5765L246.882 115.905L211.425 123.46L206.028 98.1317Z" fill="white"/>
<path d="M256.181 209.241L230.854 214.638L225.457 189.309L260.914 181.754L264.152 196.951C265.342 202.534 261.763 208.052 256.181 209.241Z" fill="white"/>
</svg>
