<svg width="20" height="20" viewBox="0 0 20 20" fill="none" xmlns="http://www.w3.org/2000/svg">
<path d="M1.70725 0.29325C1.31625 -0.09775 0.68425 -0.09775 0.29325 0.29325C-0.09775 0.68425 -0.09775 1.31625 0.29325 1.70725L1.20025 2.61425C0.47725 3.16325 0.000250019 4.02325 0.000250019 5.00025V15.0003C0.000250019 16.6543 1.34625 18.0003 3.00025 18.0003H16.5863L18.2933 19.7073C18.4883 19.9023 18.7443 20.0003 19.0003 20.0003C19.2563 20.0003 19.5123 19.9023 19.7073 19.7073C20.0983 19.3163 20.0983 18.6843 19.7073 18.2933L1.70725 0.29325ZM4.05425 5.46825C3.41825 5.92225 3.00025 6.66125 3.00025 7.50025C3.00025 8.87925 4.12125 10.0003 5.50025 10.0003C6.33925 10.0003 7.07825 9.58225 7.53225 8.94625L9.58625 11.0003L8.00025 12.5863L7.12125 11.7073C5.95125 10.5373 4.04925 10.5373 2.87925 11.7073L2.00025 12.5863V5.00025C2.00025 4.57025 2.27425 4.21125 2.65525 4.06925L4.05425 5.46825Z" fill="#828282"/>
<path d="M17 2H6L8 4H17C17.55 4 18 4.45 18 5V11.86L15.18 9.509C14.51 8.949 13.64 8.719 12.8 8.799L19.87 15.869C19.95 15.59 20 15.3 20 15V5C20 3.35 18.65 2 17 2Z" fill="#828282"/>
</svg>
