<svg width="16" height="16" viewBox="0 0 16 16" fill="none" xmlns="http://www.w3.org/2000/svg">
<g clip-path="url(#clip0_410_38024)">
<path d="M7.3334 16.0013C7.90942 16.0005 8.46755 15.8012 8.91371 15.4368C9.35988 15.0725 9.6668 14.5655 9.78274 14.0013H4.88407C5.00001 14.5655 5.30693 15.0725 5.75309 15.4368C6.19926 15.8012 6.75739 16.0005 7.3334 16.0013ZM12.0081 8.00063L12.0001 8.0013C9.4274 8.0013 7.3334 5.90797 7.3334 3.33463C7.3334 2.6273 7.49607 1.95863 7.7794 1.3573C7.13205 1.29515 6.47885 1.36898 5.8617 1.57408C5.24455 1.77917 4.67709 2.11099 4.1957 2.54825C3.71431 2.98551 3.32963 3.51856 3.06633 4.1132C2.80302 4.70785 2.66692 5.35097 2.66674 6.0013V7.85997C2.66699 8.51195 2.52462 9.15609 2.24961 9.74723C1.9746 10.3384 1.5736 10.8622 1.07474 11.282C0.906133 11.4261 0.782092 11.6152 0.717151 11.8273C0.65221 12.0393 0.64906 12.2655 0.708069 12.4793C0.849402 13.0013 1.3654 13.3346 1.90674 13.3346H12.7567C13.3247 13.3346 13.8601 12.9666 13.9754 12.41C14.0194 12.2015 14.0056 11.985 13.9354 11.7838C13.8653 11.5827 13.7415 11.4045 13.5774 11.2686C12.6081 10.456 12.0474 9.26197 12.0081 8.00063Z" fill="white"/>
<path d="M14.8332 3.33333C14.8332 4.89814 13.5646 6.16667 11.9998 6.16667C10.435 6.16667 9.1665 4.89814 9.1665 3.33333C9.1665 1.76853 10.435 0.5 11.9998 0.5C13.5646 0.5 14.8332 1.76853 14.8332 3.33333Z" fill="#F89818" stroke="white"/>
</g>
<defs>
<clipPath id="clip0_410_38024">
<rect width="16" height="16" fill="white"/>
</clipPath>
</defs>
</svg>
