<svg width="32" height="32" viewBox="0 0 32 32" fill="none" xmlns="http://www.w3.org/2000/svg">
<g clip-path="url(#clip0_364_9138)">
<path d="M28.5053 22.5507C27.5107 21.7115 26.7114 20.6652 26.1635 19.4848C25.6156 18.3045 25.3323 17.0187 25.3333 15.7173V12C25.3333 7.308 21.848 3.424 17.3333 2.77333V1.33333C17.3333 0.979711 17.1928 0.640573 16.9428 0.390524C16.6927 0.140476 16.3536 0 16 0C15.6464 0 15.3072 0.140476 15.0572 0.390524C14.8071 0.640573 14.6667 0.979711 14.6667 1.33333V2.77333C10.1507 3.424 6.66665 7.308 6.66665 12V15.7173C6.66717 17.0213 6.38243 18.3096 5.8324 19.4919C5.28238 20.6741 4.48038 21.7218 3.48265 22.5613C3.12206 22.8722 2.86506 23.2858 2.74605 23.7467C2.62703 24.2077 2.6517 24.694 2.81675 25.1405C2.98179 25.5871 3.27933 25.9725 3.66952 26.2453C4.05971 26.518 4.52392 26.6651 4.99998 26.6667H27C28.2867 26.6667 29.3333 25.62 29.3333 24.3333C29.3333 23.6507 29.036 23.0053 28.5053 22.5507ZM16 32C17.152 31.9984 18.2683 31.5997 19.1606 30.8711C20.0529 30.1425 20.6668 29.1285 20.8987 28H11.1013C11.3332 29.1285 11.947 30.1425 12.8394 30.8711C13.7317 31.5997 14.848 31.9984 16 32Z" fill="white"/>
</g>
<defs>
<clipPath id="clip0_364_9138">
<rect width="32" height="32" fill="white"/>
</clipPath>
</defs>
</svg>
