<svg width="16" height="16" viewBox="0 0 16 16" fill="none" xmlns="http://www.w3.org/2000/svg">
<g clip-path="url(#clip0_550_36878)">
<path d="M15.3335 7.33329C15.1567 7.33329 14.9871 7.26305 14.8621 7.13802C14.7371 7.013 14.6669 6.84343 14.6669 6.66662C14.6655 5.25256 14.1031 3.89683 13.1032 2.89694C12.1033 1.89705 10.7476 1.3347 9.33353 1.33329C9.15672 1.33329 8.98715 1.26305 8.86213 1.13802C8.7371 1.013 8.66686 0.84343 8.66686 0.666619C8.66686 0.489808 8.7371 0.320239 8.86213 0.195215C8.98715 0.0701903 9.15672 -4.75928e-05 9.33353 -4.75928e-05C11.101 0.00189347 12.7956 0.704896 14.0454 1.95472C15.2953 3.20454 15.9983 4.8991 16.0002 6.66662C16.0002 6.84343 15.93 7.013 15.8049 7.13802C15.6799 7.26305 15.5103 7.33329 15.3335 7.33329ZM13.3335 6.66662C13.3335 5.60575 12.9121 4.58834 12.162 3.83819C11.4118 3.08805 10.3944 2.66662 9.33353 2.66662C9.15672 2.66662 8.98715 2.73686 8.86213 2.86188C8.7371 2.98691 8.66686 3.15647 8.66686 3.33329C8.66686 3.5101 8.7371 3.67967 8.86213 3.80469C8.98715 3.92971 9.15672 3.99995 9.33353 3.99995C10.0408 3.99995 10.7191 4.2809 11.2191 4.781C11.7192 5.2811 12.0002 5.95938 12.0002 6.66662C12.0002 6.84343 12.0704 7.013 12.1955 7.13802C12.3205 7.26305 12.4901 7.33329 12.6669 7.33329C12.8437 7.33329 13.0132 7.26305 13.1383 7.13802C13.2633 7.013 13.3335 6.84343 13.3335 6.66662ZM14.7889 14.776L15.3955 14.0766C15.7817 13.6892 15.9985 13.1646 15.9985 12.6176C15.9985 12.0707 15.7817 11.546 15.3955 11.1586C15.3749 11.138 13.7709 9.90395 13.7709 9.90395C13.3859 9.53751 12.8746 9.33346 12.3431 9.3342C11.8116 9.33495 11.3008 9.54043 10.9169 9.90795L9.6462 10.9786C8.60898 10.5493 7.66679 9.9194 6.87372 9.12496C6.08065 8.33053 5.45234 7.38724 5.02486 6.34929L6.09153 5.08262C6.45934 4.69873 6.66506 4.18787 6.66593 3.65622C6.6668 3.12457 6.46275 2.61304 6.0962 2.22795C6.0962 2.22795 4.86086 0.625952 4.8402 0.605286C4.45983 0.222451 3.94412 0.00463375 3.40448 -0.0011044C2.86485 -0.00684256 2.34462 0.199959 1.9562 0.574619L1.18953 1.24129C-3.3398 6.49595 6.41353 16.174 11.8415 16C12.3897 16.0031 12.9329 15.8965 13.4391 15.6862C13.9453 15.476 14.4042 15.1665 14.7889 14.776Z" fill="#0E1826"/>
</g>
<defs>
<clipPath id="clip0_550_36878">
<rect width="16" height="16" fill="white"/>
</clipPath>
</defs>
</svg>
