<svg width="512" height="512" viewBox="0 0 512 512" fill="none" xmlns="http://www.w3.org/2000/svg">
<g clip-path="url(#clip0_614_2)">
<path d="M511.543 309.69C509.059 267.253 496.387 211.456 473.902 143.847C473.419 142.43 472.654 141.125 471.651 140.012L434.543 99.4652C433.546 98.3726 432.332 97.4999 430.979 96.9026C429.626 96.3053 428.163 95.9965 426.684 95.9961H384.013C382.357 95.9961 380.732 96.3871 379.247 97.1211L360.168 106.644H151.848L132.755 97.1211C131.275 96.3826 129.643 95.9975 127.989 95.9961H85.3322C82.3321 95.9961 79.473 97.2541 77.4569 99.4652L40.3639 140.012C39.3507 141.117 38.5838 142.424 38.1138 143.847C15.6141 211.456 2.94275 267.254 0.45768 309.69C-1.69838 346.441 3.76978 374.19 16.7232 392.129C27.9885 407.752 44.817 416.002 65.4106 416.002C80.379 416.002 93.9574 409.19 105.786 395.723C114.364 385.942 122.051 372.566 128.614 355.925C135.802 337.754 140.083 319.754 142.208 309.347H369.793C371.919 319.754 376.2 337.754 383.388 355.925C389.95 372.566 397.637 385.942 406.215 395.723C418.043 409.19 431.637 416.002 446.591 416.002C467.183 416.002 484.028 407.752 495.293 392.129C508.231 374.191 513.699 346.441 511.543 309.69Z" fill="#ED5564"/>
<path d="M263.536 259.129C267.707 263.293 267.707 270.051 263.536 274.223C259.38 278.379 252.613 278.379 248.457 274.223C244.285 270.051 244.285 263.293 248.457 259.129C252.613 254.965 259.38 254.965 263.536 259.129Z" fill="#DA4453"/>
<path d="M412.887 178.207C408.715 182.379 401.965 182.379 397.809 178.207C393.637 174.042 393.637 167.292 397.809 163.121C401.965 158.957 408.715 158.957 412.887 163.121C417.059 167.293 417.059 174.042 412.887 178.207ZM412.887 220.879C408.715 225.043 401.965 225.043 397.809 220.879C393.637 216.715 393.637 209.957 397.809 205.792C401.965 201.628 408.715 201.628 412.887 205.792C417.059 209.957 417.059 216.715 412.887 220.879ZM434.215 199.543C430.059 203.707 423.309 203.707 419.137 199.543C414.965 195.379 414.965 188.629 419.137 184.458C423.309 180.294 430.059 180.294 434.215 184.458C438.388 188.622 438.388 195.379 434.215 199.543ZM391.559 199.543C389.557 201.543 386.842 202.666 384.012 202.666C381.183 202.666 378.468 201.543 376.466 199.543C372.31 195.379 372.31 188.629 376.466 184.458C378.468 182.458 381.183 181.335 384.012 181.335C386.842 181.335 389.557 182.458 391.559 184.458C395.715 188.622 395.715 195.379 391.559 199.543Z" fill="#E6E9ED"/>
<path d="M224.005 277.348C224.005 300.91 204.895 320.003 181.333 320.003C157.772 320.003 138.662 300.909 138.662 277.348C138.662 253.77 157.772 234.668 181.333 234.668C204.895 234.668 224.005 253.77 224.005 277.348Z" fill="#656D78"/>
<path d="M181.332 224.004C151.926 224.004 127.988 247.926 127.988 277.347C127.988 306.752 151.926 330.675 181.332 330.675C210.738 330.675 234.66 306.752 234.66 277.347C234.66 247.926 210.739 224.004 181.332 224.004ZM181.332 309.347C163.691 309.347 149.332 294.972 149.332 277.348C149.332 259.692 163.691 245.341 181.332 245.341C198.972 245.341 213.332 259.692 213.332 277.348C213.332 294.972 198.973 309.347 181.332 309.347Z" fill="#434A54"/>
<path d="M373.34 277.348C373.34 300.91 354.246 320.003 330.668 320.003C307.105 320.003 288.012 300.909 288.012 277.348C288.012 253.77 307.106 234.668 330.668 234.668C354.246 234.667 373.34 253.77 373.34 277.348Z" fill="#656D78"/>
<path d="M330.668 224.004C301.263 224.004 277.341 247.926 277.341 277.347C277.341 306.752 301.263 330.675 330.668 330.675C360.09 330.675 384.013 306.752 384.013 277.347C384.013 247.926 360.09 224.004 330.668 224.004ZM330.668 309.347C313.028 309.347 298.668 294.972 298.668 277.348C298.668 259.692 313.028 245.341 330.668 245.341C348.324 245.341 362.684 259.692 362.684 277.348C362.684 294.972 348.324 309.347 330.668 309.347Z" fill="#434A54"/>
<path d="M106.661 224.005C100.769 224.005 95.9893 219.232 95.9893 213.332V170.668C95.9893 164.778 100.77 160.004 106.661 160.004C112.551 160.004 117.332 164.777 117.332 170.668V213.332C117.332 219.232 112.552 224.005 106.661 224.005Z" fill="#F5F7FA"/>
<path d="M127.99 202.669H85.3325C79.4423 202.669 74.6611 197.896 74.6611 192.004C74.6611 186.113 79.4423 181.332 85.3325 181.332H127.989C133.879 181.332 138.66 186.113 138.66 192.004C138.661 197.895 133.88 202.669 127.99 202.669Z" fill="#E6E9ED"/>
<path d="M181.328 106.645H330.663V149.332H181.328V106.645Z" fill="#FFCE54"/>
<path d="M495.294 392.129C504.216 379.769 509.574 362.753 511.356 341.348C511.325 341.348 451.622 384.895 394.091 377.628C394.091 377.628 394.138 378.034 394.263 378.737C398.013 385.238 402.012 390.91 406.215 395.722C418.043 409.189 431.638 416.001 446.591 416.001C467.184 416.002 484.028 407.752 495.294 392.129ZM16.7236 392.129C7.80234 379.769 2.42718 362.753 0.661133 341.348C0.661133 341.348 60.3799 384.895 117.927 377.628L117.755 378.737C113.988 385.238 110.004 390.91 105.786 395.722C93.9579 409.189 80.3805 416.001 65.411 416.001C44.8174 416.002 27.9899 407.752 16.7236 392.129ZM70.8802 106.644H151.849L132.755 97.1211C131.275 96.3826 129.644 95.9975 127.99 95.9961H85.3326C82.3325 95.9961 79.4734 97.2541 77.4574 99.4652L70.8802 106.644ZM441.138 106.644H360.185L379.263 97.1211C380.744 96.3841 382.375 95.9991 384.029 95.9961H426.701C429.685 95.9961 432.545 97.2541 434.56 99.4652L441.138 106.644Z" fill="#434A54"/>
</g>
<defs>
<clipPath id="clip0_614_2">
<rect width="512" height="512" fill="white"/>
</clipPath>
</defs>
</svg>
