<svg width="16" height="16" viewBox="0 0 16 16" fill="none" xmlns="http://www.w3.org/2000/svg">
<g clip-path="url(#clip0_473_4479)">
<path d="M7.99999 16.0007C7.79279 16.0007 7.59408 15.9184 7.44757 15.7719C7.30106 15.6254 7.21875 15.4267 7.21875 15.2195V0.782214C7.21875 0.575017 7.30106 0.376306 7.44757 0.229796C7.59408 0.0832853 7.79279 0.000976563 7.99999 0.000976562C8.20718 0.000976563 8.4059 0.0832853 8.55241 0.229796C8.69892 0.376306 8.78123 0.575017 8.78123 0.782214V15.2195C8.78123 15.4267 8.69892 15.6254 8.55241 15.7719C8.4059 15.9184 8.20718 16.0007 7.99999 16.0007Z" fill="white"/>
<path d="M15.2185 8.7822H0.781237C0.57404 8.7822 0.37533 8.69989 0.228819 8.55338C0.0823087 8.40687 0 8.20816 0 8.00096C0 7.79377 0.0823087 7.59506 0.228819 7.44855C0.37533 7.30204 0.57404 7.21973 0.781237 7.21973H15.2185C15.4257 7.21973 15.6244 7.30204 15.7709 7.44855C15.9174 7.59506 15.9997 7.79377 15.9997 8.00096C15.9997 8.20816 15.9174 8.40687 15.7709 8.55338C15.6244 8.69989 15.4257 8.7822 15.2185 8.7822Z" fill="white"/>
</g>
<defs>
<clipPath id="clip0_473_4479">
<rect width="15.9997" height="15.9997" fill="white" transform="translate(0 0.000976562)"/>
</clipPath>
</defs>
</svg>
