<svg width="16" height="17" viewBox="0 0 16 17" fill="none" xmlns="http://www.w3.org/2000/svg">
<g clip-path="url(#clip0_441_11442)">
<path d="M7.99999 16.5007C7.79279 16.5007 7.59408 16.4184 7.44757 16.2719C7.30106 16.1254 7.21875 15.9267 7.21875 15.7195V1.28221C7.21875 1.07502 7.30106 0.876306 7.44757 0.729796C7.59408 0.583285 7.79279 0.500977 7.99999 0.500977C8.20718 0.500977 8.4059 0.583285 8.55241 0.729796C8.69892 0.876306 8.78123 1.07502 8.78123 1.28221V15.7195C8.78123 15.9267 8.69892 16.1254 8.55241 16.2719C8.4059 16.4184 8.20718 16.5007 7.99999 16.5007Z" fill="#2257AA"/>
<path d="M15.2185 9.2822H0.781237C0.57404 9.2822 0.37533 9.19989 0.228819 9.05338C0.0823087 8.90687 0 8.70816 0 8.50096C0 8.29377 0.0823087 8.09506 0.228819 7.94855C0.37533 7.80204 0.57404 7.71973 0.781237 7.71973H15.2185C15.4257 7.71973 15.6244 7.80204 15.7709 7.94855C15.9174 8.09506 15.9997 8.29377 15.9997 8.50096C15.9997 8.70816 15.9174 8.90687 15.7709 9.05338C15.6244 9.19989 15.4257 9.2822 15.2185 9.2822Z" fill="#2257AA"/>
</g>
<defs>
<clipPath id="clip0_441_11442">
<rect width="15.9997" height="15.9997" fill="white" transform="translate(0 0.500977)"/>
</clipPath>
</defs>
</svg>
