<svg width="18" height="18" viewBox="0 0 18 18" fill="none" xmlns="http://www.w3.org/2000/svg">
<g clip-path="url(#clip0_1204_21352)">
<path d="M8.75 0C3.92506 0 0 3.92506 0 8.75C0 13.5749 3.92506 17.5 8.75 17.5C13.5749 17.5 17.5 13.5749 17.5 8.75C17.5 3.92506 13.5749 0 8.75 0ZM12.5781 9.47912H9.47912V12.5781C9.47912 12.9807 9.15253 13.3072 8.75 13.3072C8.34747 13.3072 8.02088 12.9807 8.02088 12.5781V9.47912H4.92188C4.51934 9.47912 4.19275 9.15253 4.19275 8.75C4.19275 8.34747 4.51934 8.02088 4.92188 8.02088H8.02088V4.92188C8.02088 4.51934 8.34747 4.19275 8.75 4.19275C9.15253 4.19275 9.47912 4.51934 9.47912 4.92188V8.02088H12.5781C12.9807 8.02088 13.3072 8.34747 13.3072 8.75C13.3072 9.15253 12.9807 9.47912 12.5781 9.47912Z" fill="#2257AA"/>
</g>
<defs>
<clipPath id="clip0_1204_21352">
<rect width="17.5" height="17.5" fill="white"/>
</clipPath>
</defs>
</svg>
