<svg width="30" height="30" viewBox="0 0 30 30" fill="none" xmlns="http://www.w3.org/2000/svg">
<path d="M28.875 1.125C28.125 0.375 27 0 26.0625 0H3.9375C3 0 1.875 0.375 1.125 1.125C0.375 1.875 0 3 0 3.9375V25.875C0 27 0.375 27.9375 1.125 28.6875C1.875 29.625 3 30 3.9375 30H25.875C27 30 27.9375 29.625 28.6875 28.875C29.4375 28.125 29.8125 27.1875 29.8125 26.0625V3.9375C30 3 29.625 1.875 28.875 1.125ZM15 15C14.25 14.25 13.3125 13.6875 12.1875 13.6875H3.9375C3.375 13.6875 2.8125 13.875 2.4375 14.0625V3.9375C2.4375 3.5625 2.625 3.1875 2.8125 2.8125C3.1875 2.4375 3.5625 2.4375 3.9375 2.4375H25.875C26.25 2.4375 26.625 2.625 27 2.8125C27.375 3.1875 27.375 3.5625 27.375 3.9375V25.875C27.375 26.25 27.1875 26.625 27 27C26.625 27.375 26.25 27.375 25.875 27.375H15.9375C16.125 26.8125 16.3125 26.4375 16.3125 25.875V17.8125C16.3125 16.6875 15.75 15.75 15 15ZM2.4375 17.8125C2.4375 17.4375 2.625 17.0625 2.8125 16.6875C3.1875 16.3125 3.5625 16.3125 3.9375 16.3125H12.1875C12.375 16.3125 12.5625 16.3125 12.75 16.5C12.9375 16.5 13.125 16.6875 13.3125 16.875C13.5 16.875 13.5 17.0625 13.6875 17.25C13.6875 17.4375 13.875 17.625 13.875 17.8125V26.0625C13.875 26.4375 13.6875 26.8125 13.5 27.1875C13.125 27.5625 12.75 27.5625 12.375 27.5625H3.9375C3.5625 27.5625 3.1875 27.375 2.8125 27.1875C2.4375 26.8125 2.4375 26.4375 2.4375 26.0625V17.8125Z" fill="#2257AA"/>
</svg>
