<svg width="30" height="31" viewBox="0 0 30 31" fill="none" xmlns="http://www.w3.org/2000/svg">
<g clip-path="url(#clip0_606_3995)">
<path d="M22.0569 0.5H22.0551L18.5419 0.506855L7.94306 0.5C5.52003 0.5 3.54871 2.47133 3.54871 4.89441V29.6202C3.54871 30.3437 4.3771 30.7566 4.9549 30.3233L11.5104 25.4456L18.0141 30.3233C18.5901 30.7555 19.4203 30.3468 19.4271 29.6202V16.3198H25.5725C26.0578 16.3198 26.4514 15.9263 26.4514 15.4409V4.89441C26.4513 2.47139 24.48 0.500059 22.0569 0.5ZM17.6693 4.89441V27.8624L12.0377 23.6438C11.7251 23.4094 11.2955 23.4094 10.983 23.6438L5.3582 27.8624V4.89441C5.3582 3.44059 6.54097 2.25775 7.99427 2.25775L18.5452 2.26461C17.9954 2.99838 17.6693 3.90898 17.6693 4.89441ZM24.6418 14.562H19.4202V4.89441C19.4202 3.44064 20.6029 2.25781 22.0568 2.25775H22.057C23.5108 2.25781 24.6418 3.44059 24.6418 4.89441L24.6418 14.562Z" fill="#7488A6"/>
</g>
<defs>
<clipPath id="clip0_606_3995">
<rect width="30" height="30" fill="white" transform="translate(0 0.5)"/>
</clipPath>
</defs>
</svg>
