<svg width="14" height="16" viewBox="0 0 14 16" fill="none" xmlns="http://www.w3.org/2000/svg">
<path d="M11.409 4.80767H9.80788C9.65229 4.80767 9.50307 4.86948 9.39306 4.97949C9.28304 5.08951 9.22123 5.23873 9.22123 5.39432C9.22123 5.54991 9.28304 5.69912 9.39306 5.80914C9.50307 5.91916 9.65229 5.98097 9.80788 5.98097H11.4094C11.7329 5.98097 11.9961 6.24418 11.9961 6.56762V14.2394C11.9961 14.5629 11.7329 14.8261 11.4094 14.8261H2.59052C2.26708 14.8261 2.00387 14.5629 2.00387 14.2394V6.56762C2.00387 6.24418 2.26708 5.98097 2.59052 5.98097H4.19207C4.34766 5.98097 4.49688 5.91916 4.6069 5.80914C4.71692 5.69912 4.77872 5.54991 4.77872 5.39432C4.77872 5.23873 4.71692 5.08951 4.6069 4.97949C4.49688 4.86948 4.34766 4.80767 4.19207 4.80767H2.59052C2.12391 4.80819 1.67656 4.99377 1.34662 5.32372C1.01667 5.65366 0.831084 6.10101 0.830566 6.56762V14.2394C0.830566 15.2098 1.6202 15.9994 2.59052 15.9994H11.4094C12.3798 15.9994 13.1694 15.2098 13.1694 14.2394V6.56762C13.1688 6.10097 12.9831 5.65362 12.6531 5.32369C12.3231 4.99376 11.8757 4.80819 11.409 4.80767ZM4.81236 3.62342L6.43268 2.00309V9.72653C6.43268 9.80357 6.44786 9.87986 6.47734 9.95104C6.50682 10.0222 6.55004 10.0869 6.60451 10.1414C6.65899 10.1958 6.72366 10.239 6.79483 10.2685C6.86601 10.298 6.9423 10.3132 7.01934 10.3132C7.09638 10.3132 7.17266 10.298 7.24384 10.2685C7.31501 10.239 7.37968 10.1958 7.43416 10.1414C7.48864 10.0869 7.53185 10.0222 7.56133 9.95104C7.59081 9.87986 7.60599 9.80357 7.60599 9.72653V2.00309L9.22631 3.62342C9.34091 3.73801 9.49109 3.79511 9.64127 3.79511C9.79145 3.79511 9.94164 3.73801 10.0562 3.62342C10.1662 3.5134 10.228 3.36421 10.228 3.20866C10.228 3.0531 10.1662 2.90391 10.0562 2.79389L7.43468 0.171959C7.3802 0.117443 7.31552 0.0741975 7.24432 0.044692C7.17311 0.0151866 7.0968 0 7.01973 0C6.94266 0 6.86634 0.0151866 6.79514 0.044692C6.72394 0.0741975 6.65925 0.117443 6.60477 0.171959L3.98283 2.79389C3.9268 2.84801 3.88211 2.91274 3.85136 2.98432C3.82062 3.05589 3.80444 3.13287 3.80376 3.21077C3.80308 3.28866 3.81793 3.36591 3.84742 3.43801C3.87692 3.51011 3.92048 3.57561 3.97556 3.63069C4.03064 3.68577 4.09615 3.72933 4.16824 3.75883C4.24034 3.78833 4.31759 3.80317 4.39548 3.80249C4.47338 3.80182 4.55036 3.78563 4.62193 3.75489C4.69351 3.72414 4.75824 3.67945 4.81236 3.62342Z" fill="white"/>
</svg>
