<svg width="16" height="16" viewBox="0 0 16 16" fill="none" xmlns="http://www.w3.org/2000/svg">
<path d="M13.4911 8.45637L11.7234 6.68859M7.30396 12.8758C7.30396 11.7439 7.75358 10.6584 8.55396 9.85799L13.2411 5.1708C13.7293 4.68265 14.5208 4.68265 15.0089 5.1708C15.4971 5.65896 15.4971 6.45043 15.0089 6.93856L10.3217 11.6258C9.92541 12.0221 9.45494 12.3364 8.93715 12.5509C8.41937 12.7654 7.8644 12.8758 7.30396 12.8758Z" stroke="#7488A6" stroke-width="1.25" stroke-miterlimit="10" stroke-linecap="round" stroke-linejoin="round"/>
<path d="M11.875 13.5979V14.125C11.875 14.8153 11.3153 15.375 10.625 15.375H1.875C1.18466 15.375 0.625 14.8153 0.625 14.125V1.875C0.625 1.18466 1.18466 0.625 1.875 0.625H8.85722C9.02137 0.624995 9.18392 0.657326 9.33557 0.720147C9.48723 0.782967 9.62503 0.875046 9.74109 0.991125L11.5089 2.75887C11.6598 2.90982 11.7696 3.09692 11.8278 3.30234" stroke="#7488A6" stroke-width="1.25" stroke-miterlimit="10" stroke-linecap="round" stroke-linejoin="round"/>
<path d="M3.125 12.875C3.125 12.1847 3.68466 11.625 4.375 11.625C5.06534 11.625 5.625 12.1847 5.625 12.875H7.30394M3.125 4.375H6.875M3.125 6.875H6.875" stroke="#7488A6" stroke-width="1.25" stroke-miterlimit="10" stroke-linecap="round" stroke-linejoin="round"/>
</svg>
