<svg width="16" height="16" viewBox="0 0 16 16" fill="none" xmlns="http://www.w3.org/2000/svg">
<path d="M15.6061 7.05027L8.95072 0.394907C8.42581 -0.130008 7.57447 -0.130008 7.04956 0.394907C6.52464 0.919823 6.52464 1.77115 7.04956 2.29607L12.7537 8.00018L7.04956 13.7043C6.52464 14.2292 6.52464 15.0805 7.04956 15.6054C7.57447 16.1304 8.42581 16.1304 8.95072 15.6054L15.6061 8.9501C16.131 8.42649 16.131 7.57519 15.6061 7.05027ZM7.60378 6.64726L2.32001 1.07838C1.78908 0.519503 0.929125 0.519503 0.398196 1.07838C-0.132732 1.63725 -0.132732 2.54387 0.398196 3.10343L4.72141 7.65978L0.398196 12.2161C-0.132732 12.775 -0.132732 13.6823 0.398196 14.2412C0.929125 14.8001 1.78908 14.8001 2.32001 14.2412L7.60378 8.67231C8.13471 8.11343 8.13471 7.20681 7.60378 6.64726Z" fill="white"/>
</svg>
