<svg width="14" height="8" viewBox="0 0 14 8" fill="none" xmlns="http://www.w3.org/2000/svg">
<path d="M7.70997 0.46124L13.36 6.12124C13.4537 6.2142 13.5281 6.3248 13.5789 6.44666C13.6296 6.56852 13.6558 6.69923 13.6558 6.83124C13.6558 6.96325 13.6296 7.09396 13.5789 7.21582C13.5281 7.33767 13.4537 7.44828 13.36 7.54124C13.1726 7.72749 12.9192 7.83203 12.655 7.83203C12.3908 7.83203 12.1373 7.72749 11.95 7.54124L6.94997 2.59124L1.99998 7.54124C1.81262 7.72749 1.55917 7.83203 1.29498 7.83203C1.0308 7.83203 0.777345 7.72749 0.589983 7.54124C0.495495 7.44862 0.420324 7.33818 0.368828 7.2163C0.317331 7.09443 0.290533 6.96355 0.289984 6.83124C0.290533 6.69893 0.317331 6.56805 0.368828 6.44617C0.420324 6.3243 0.495495 6.21385 0.589983 6.12124L6.23997 0.46124C6.33362 0.359735 6.44727 0.278726 6.57377 0.223319C6.70027 0.167912 6.83687 0.139307 6.97497 0.139307C7.11307 0.139307 7.24968 0.167912 7.37618 0.223319C7.50268 0.278726 7.61633 0.359735 7.70997 0.46124Z" fill="#B2B2B2"/>
</svg>
