<svg width="16" height="16" viewBox="0 0 16 16" fill="none" xmlns="http://www.w3.org/2000/svg">
<g clip-path="url(#clip0_441_11404)">
<path d="M10.7081 5.79736C10.5012 5.79736 10.3334 5.96512 10.3334 6.17207V13.254C10.3334 13.4609 10.5012 13.6287 10.7081 13.6287C10.9151 13.6287 11.0828 13.4609 11.0828 13.254V6.17207C11.0828 5.96512 10.9151 5.79736 10.7081 5.79736ZM6.28657 5.79736C6.07962 5.79736 5.91187 5.96512 5.91187 6.17207V13.254C5.91187 13.4609 6.07962 13.6287 6.28657 13.6287C6.49356 13.6287 6.66128 13.4609 6.66128 13.254V6.17207C6.66128 5.96512 6.49356 5.79736 6.28657 5.79736Z" fill="#FF6368"/>
<path d="M3.06398 4.76385V13.9959C3.06398 14.5415 3.26407 15.0539 3.6136 15.4216C3.78571 15.604 3.99319 15.7494 4.22338 15.849C4.45357 15.9485 4.70164 16.0001 4.95243 16.0005H12.042C12.2928 16.0001 12.5409 15.9486 12.7711 15.849C13.0013 15.7495 13.2088 15.604 13.3809 15.4216C13.7304 15.0539 13.9305 14.5415 13.9305 13.9959V4.76385C14.6253 4.57942 15.0756 3.90817 14.9826 3.19522C14.8895 2.48237 14.2822 1.94916 13.5632 1.94901H11.6448V1.48063C11.6459 1.28565 11.6082 1.09239 11.534 0.912081C11.4597 0.731773 11.3504 0.568006 11.2124 0.430289C11.0743 0.292584 10.9103 0.183683 10.7298 0.109909C10.5493 0.0361348 10.3559 -0.0010422 10.1609 0.000536853H6.83361C6.6386 -0.00104717 6.44523 0.0361274 6.26472 0.109902C6.0842 0.183676 5.92014 0.29258 5.78207 0.430289C5.64403 0.568006 5.53473 0.731773 5.4605 0.912081C5.38628 1.09239 5.34861 1.28565 5.34969 1.48063V1.94901H3.43127C2.71228 1.94916 2.10499 2.48237 2.01187 3.19522C1.91895 3.90817 2.36916 4.57942 3.06398 4.76385ZM12.042 15.2511H4.95246C4.31179 15.2511 3.81339 14.7008 3.81339 13.9959V4.79679H13.1811V13.9959C13.1811 14.7008 12.6827 15.2511 12.042 15.2511ZM6.09911 1.48063C6.09788 1.38403 6.11608 1.28816 6.15261 1.19872C6.18915 1.10928 6.24328 1.02809 6.31179 0.959975C6.38028 0.891818 6.46176 0.838108 6.55139 0.802031C6.64103 0.765954 6.737 0.748244 6.83361 0.749951H10.1609C10.2575 0.748244 10.3535 0.765954 10.4431 0.802031C10.5327 0.838108 10.6142 0.891818 10.6827 0.959975C10.7512 1.02809 10.8054 1.10928 10.8419 1.19872C10.8784 1.28816 10.8966 1.38403 10.8954 1.48063V1.94901H6.09911V1.48063ZM3.43127 2.69843H13.5633C13.9358 2.69843 14.2378 3.00041 14.2378 3.3729C14.2378 3.7454 13.9358 4.04738 13.5633 4.04738H3.43123C3.05873 4.04738 2.75675 3.7454 2.75675 3.3729C2.75675 3.00041 3.05877 2.69843 3.43127 2.69843Z" fill="#FF6368"/>
<path d="M8.49727 5.79736C8.29032 5.79736 8.12256 5.96512 8.12256 6.17207V13.254C8.12256 13.4609 8.29032 13.6287 8.49727 13.6287C8.70425 13.6287 8.87197 13.4609 8.87197 13.254V6.17207C8.87197 5.96512 8.70425 5.79736 8.49727 5.79736Z" fill="#FF6368"/>
</g>
<defs>
<clipPath id="clip0_441_11404">
<rect width="16" height="16" fill="white" transform="translate(0 0.000488281)"/>
</clipPath>
</defs>
</svg>
