<svg width="16" height="16" viewBox="0 0 16 16" fill="none" xmlns="http://www.w3.org/2000/svg">
<g clip-path="url(#clip0_550_36888)">
<path d="M6.66667 11.3332H4.886C4.62315 11.3341 4.36274 11.2827 4.1199 11.1821C3.87705 11.0815 3.6566 10.9337 3.47133 10.7472L0.0346667 7.31055C0.0153333 7.53855 0 7.76721 0 7.99988C0.00292787 10.0047 0.75796 11.9355 2.11583 13.4106C3.4737 14.8856 5.33556 15.7974 7.33333 15.9659V11.9999C7.33333 11.8231 7.2631 11.6535 7.13807 11.5285C7.01305 11.4035 6.84348 11.3332 6.66667 11.3332Z" fill="#0E1826"/>
<path d="M13.624 2.3186L12.4307 3.51194C12.1175 3.82333 11.6943 3.99868 11.2527 3.99994H10.3333C10.2449 3.99994 10.1601 4.03506 10.0976 4.09757C10.0351 4.16008 10 4.24486 10 4.33327V4.99994C10 5.44196 9.82441 5.86589 9.51184 6.17845C9.19928 6.49101 8.77536 6.6666 8.33333 6.6666C8.24493 6.6666 8.16014 6.70172 8.09763 6.76423C8.03512 6.82675 8 6.91153 8 6.99994V7.33327C8 7.51008 8.07024 7.67965 8.19526 7.80467C8.32029 7.9297 8.48986 7.99994 8.66667 7.99994H10.6667C11.1971 7.99994 11.7058 8.21065 12.0809 8.58572C12.456 8.9608 12.6667 9.4695 12.6667 9.99994V10.6413C12.6667 10.7295 12.7017 10.8141 12.764 10.8766L14.514 12.6273C15.6172 11.0844 16.1337 9.19847 15.9705 7.30877C15.8074 5.41907 14.9753 3.64959 13.624 2.3186Z" fill="#0E1826"/>
<path d="M11.3335 10.6414V10.0001C11.3335 9.82328 11.2633 9.65371 11.1382 9.52869C11.0132 9.40367 10.8436 9.33343 10.6668 9.33343H8.66683C8.1364 9.33343 7.62769 9.12271 7.25262 8.74764C6.87754 8.37257 6.66683 7.86386 6.66683 7.33343V7.00009C6.66683 6.55807 6.84242 6.13414 7.15498 5.82158C7.46755 5.50902 7.89147 5.33343 8.3335 5.33343C8.4219 5.33343 8.50669 5.29831 8.5692 5.2358C8.63171 5.17328 8.66683 5.0885 8.66683 5.00009V4.33343C8.66683 3.8914 8.84242 3.46748 9.15499 3.15492C9.46755 2.84236 9.89147 2.66676 10.3335 2.66676H11.2528C11.341 2.66624 11.4254 2.63131 11.4882 2.56943L12.5955 1.46209C11.5588 0.729874 10.3624 0.255411 9.10565 0.0780664C7.84888 -0.0992778 6.56793 0.0256095 5.36909 0.442367C4.17024 0.859125 3.08805 1.55574 2.21229 2.47442C1.33653 3.3931 0.692458 4.50736 0.333496 5.72476L4.4135 9.80476C4.47555 9.86683 4.54924 9.91604 4.63035 9.94956C4.71147 9.98308 4.7984 10.0003 4.88616 10.0001H6.66683C7.19726 10.0001 7.70597 10.2108 8.08104 10.5859C8.45612 10.961 8.66683 11.4697 8.66683 12.0001V15.9661C10.5513 15.811 12.3194 14.9914 13.6555 13.6534L11.8215 11.8194C11.5101 11.5063 11.3348 11.083 11.3335 10.6414Z" fill="#0E1826"/>
</g>
<defs>
<clipPath id="clip0_550_36888">
<rect width="16" height="16" fill="white"/>
</clipPath>
</defs>
</svg>
