<svg width="16" height="16" viewBox="0 0 16 16" fill="none" xmlns="http://www.w3.org/2000/svg">
<path d="M7.99987 0C3.58857 0 0 3.58857 0 7.99987C0 12.4112 3.58857 15.9997 7.99987 15.9997C12.4112 15.9997 15.9997 12.4112 15.9997 7.99987C15.9997 3.58857 12.4112 0 7.99987 0ZM11.4998 8.66649H8.66649V11.4998C8.66649 11.8679 8.36791 12.1664 7.99987 12.1664C7.63184 12.1664 7.33326 11.8679 7.33326 11.4998V8.66649H4.49993C4.13189 8.66649 3.83331 8.36791 3.83331 7.99987C3.83331 7.63184 4.13189 7.33326 4.49993 7.33326H7.33326V4.49993C7.33326 4.13189 7.63184 3.83331 7.99987 3.83331C8.36791 3.83331 8.66649 4.13189 8.66649 4.49993V7.33326H11.4998C11.8679 7.33326 12.1664 7.63184 12.1664 7.99987C12.1664 8.36791 11.8679 8.66649 11.4998 8.66649Z" fill="white"/>
</svg>
