<svg width="16" height="16" viewBox="0 0 16 16" fill="none" xmlns="http://www.w3.org/2000/svg">
<g clip-path="url(#clip0_117_56657)">
<path d="M14.5938 0H1.40625C0.630844 0 0 0.630875 0 1.40625V2.12047C0 3.27734 0.397937 4.412 1.12072 5.31531C1.72181 6.06666 2.57678 6.65516 3.52822 6.97228L4.02503 7.13781C4.60206 8.078 5.50709 8.80225 6.59375 9.14625V9.875C6.59375 10.1334 6.38344 10.3438 6.125 10.3438C5.34959 10.3438 4.71875 10.9746 4.71875 11.75V12.2188H4.25C3.99109 12.2188 3.78125 12.4286 3.78125 12.6875V15.0625H3.3125C3.05359 15.0625 2.84375 15.2723 2.84375 15.5312C2.84375 15.7902 3.05359 16 3.3125 16H12.6875C12.9464 16 13.1562 15.7902 13.1562 15.5312C13.1562 15.2723 12.9464 15.0625 12.6875 15.0625H12.2188V12.6875C12.2188 12.4286 12.0089 12.2188 11.75 12.2188H11.2812V11.75C11.2812 10.9746 10.6504 10.3438 9.875 10.3438C9.61656 10.3438 9.40625 10.1334 9.40625 9.875V9.14625C10.4917 8.80262 11.3959 8.07969 11.973 7.141L12.4969 6.97425L12.5029 6.97228C13.4403 6.65978 14.2621 6.08678 14.8793 5.31531C15.6021 4.412 16 3.27734 16 2.12047V1.40625C16 0.630844 15.3691 0 14.5938 0ZM1.85281 4.72963C1.26253 3.99181 0.9375 3.06531 0.9375 2.12047V1.40625C0.9375 1.14781 1.14781 0.9375 1.40625 0.9375H2.89294L3.37 5.23094C3.39783 5.4792 3.44575 5.7248 3.51331 5.96531C2.85778 5.68981 2.27641 5.25906 1.85281 4.72963ZM4.71875 15.0625V13.1562H11.2812V15.0625H4.71875ZM8.83241 8.33178C8.72905 8.35554 8.63681 8.41365 8.57076 8.49662C8.5047 8.57959 8.46874 8.68251 8.46875 8.78856V9.875C8.46875 10.6504 9.09962 11.2812 9.875 11.2812C10.1334 11.2812 10.3438 11.4916 10.3438 11.75V12.2188H5.65625V11.75C5.65625 11.4916 5.86656 11.2812 6.125 11.2812C6.90041 11.2812 7.53125 10.6504 7.53125 9.875V8.78856C7.53125 8.57019 7.3805 8.38075 7.16759 8.33178C5.62697 7.97728 4.47534 6.68959 4.30175 5.12744L3.83619 0.9375H12.1638L11.6982 5.12744C11.5247 6.68956 10.3731 7.97728 8.83241 8.33181V8.33178ZM15.0625 2.12047C15.0625 3.06531 14.7374 3.99181 14.1472 4.72963C13.707 5.28052 13.1343 5.71069 12.4825 5.97984C12.5523 5.73472 12.6016 5.48424 12.63 5.23097L13.107 0.9375H14.5938C14.8522 0.9375 15.0625 1.14781 15.0625 1.40625V2.12047Z" fill="#7488A6"/>
<path d="M9.94077 3.2097L8.88742 3.06033L8.41833 2.13233C8.37922 2.05494 8.31942 1.98991 8.24556 1.94448C8.17171 1.89905 8.0867 1.875 7.99999 1.875C7.91328 1.875 7.82827 1.89905 7.75441 1.94448C7.68056 1.98991 7.62075 2.05494 7.58164 2.13233L7.11255 3.06033L6.05908 3.2097C5.9719 3.2221 5.88996 3.2588 5.82267 3.3156C5.75538 3.3724 5.70544 3.44701 5.67858 3.53087C5.65173 3.61474 5.64904 3.70448 5.67082 3.7898C5.6926 3.87513 5.73797 3.95259 5.80174 4.01333L6.55736 4.73245L6.37952 5.74477C6.36442 5.83069 6.37359 5.91912 6.40599 6.00012C6.4384 6.08112 6.49276 6.15147 6.56296 6.20327C6.63319 6.255 6.71646 6.28612 6.8034 6.29313C6.89035 6.30014 6.97753 6.28276 7.05514 6.24295L7.99999 5.75792L8.94467 6.24292C9.02228 6.28277 9.10946 6.30017 9.19642 6.29316C9.28337 6.28615 9.36665 6.25501 9.43686 6.20324C9.50709 6.15146 9.56149 6.08112 9.59392 6.00012C9.62636 5.91912 9.63555 5.83067 9.62046 5.74473L9.44264 4.73242L10.1981 4.0133C10.2619 3.9526 10.3073 3.87514 10.3291 3.78981C10.351 3.70448 10.3483 3.61473 10.3214 3.53086C10.2945 3.44698 10.2446 3.37236 10.1773 3.31556C10.1099 3.25876 10.028 3.22207 9.94077 3.2097ZM8.61436 4.22645C8.55836 4.27972 8.5164 4.34602 8.49223 4.41944C8.46806 4.49286 8.46242 4.57111 8.47583 4.64723L8.53392 4.9783L8.21399 4.81411C8.14775 4.78011 8.07437 4.76238 7.99992 4.76238C7.92547 4.76238 7.8521 4.78011 7.78586 4.81411L7.46592 4.9783L7.52414 4.64723C7.55127 4.49255 7.49927 4.33474 7.38561 4.22645L7.14967 4.00195L7.48642 3.95414C7.56118 3.94355 7.63226 3.91506 7.69363 3.87107C7.75499 3.82709 7.80482 3.76893 7.83886 3.70155L7.99999 3.38283L8.16099 3.70142C8.19505 3.76883 8.2449 3.827 8.30628 3.871C8.36767 3.915 8.43877 3.94351 8.51355 3.95411L8.85033 4.00186L8.61436 4.22645Z" fill="#7488A6"/>
</g>
<defs>
<clipPath id="clip0_117_56657">
<rect width="16" height="16" fill="white"/>
</clipPath>
</defs>
</svg>
