<svg width="30" height="31" viewBox="0 0 30 31" fill="none" xmlns="http://www.w3.org/2000/svg">
<mask id="mask0_107_11154" style="mask-type:luminance" maskUnits="userSpaceOnUse" x="0" y="0" width="30" height="31">
<path d="M0 0.50009H29.9999V30.5H0V0.50009Z" fill="white"/>
</mask>
<g mask="url(#mask0_107_11154)">
<path d="M23.9062 15.3623C23.9062 15.5579 23.8299 15.7419 23.6914 15.8803L19.6791 19.8892C19.611 19.9576 19.5301 20.0118 19.4409 20.0487C19.3517 20.0856 19.2561 20.1044 19.1596 20.1042H10.8403C10.7438 20.1044 10.6482 20.0856 10.5591 20.0487C10.4699 20.0118 10.3889 19.9576 10.3209 19.8892L6.30855 15.8803C6.24026 15.8124 6.18611 15.7317 6.14924 15.6428C6.11237 15.5539 6.0935 15.4585 6.09374 15.3623V7.04511C6.09352 6.94948 6.11214 6.85475 6.14854 6.76633C6.18495 6.67791 6.23842 6.59752 6.30591 6.52978L10.323 2.4754C10.4613 2.33661 10.6491 2.25839 10.845 2.2579H19.1549C19.3497 2.2579 19.54 2.33717 19.677 2.4754L23.694 6.52978C23.7615 6.59752 23.815 6.67791 23.8514 6.76633C23.8878 6.85475 23.9064 6.94948 23.9062 7.04511V15.3623ZM16.385 27.3698C16.385 28.1265 15.7694 28.7422 15.0126 28.7422H14.9873C14.2306 28.7422 13.6149 28.1265 13.6149 27.3698V21.862H16.385V27.3698ZM24.9427 5.29257L20.9257 1.23825C20.4609 0.769093 19.8155 0.50009 19.1549 0.50009H10.845C10.1845 0.50009 9.53911 0.769093 9.07434 1.23819L5.05728 5.29257C4.59211 5.76203 4.33594 6.38441 4.33594 7.04511V15.3623C4.33594 16.0277 4.59527 16.6533 5.06613 17.1237L9.07838 21.1327C9.54907 21.603 10.1748 21.862 10.8403 21.862H11.8571V27.3698C11.8571 29.0958 13.2613 30.5 14.9873 30.5H15.0126C16.7386 30.5 18.1428 29.0958 18.1428 27.3698V21.862H19.1596C19.8251 21.862 20.4509 21.603 20.9216 21.1326L24.9339 17.1237C25.4047 16.6533 25.664 16.0277 25.664 15.3623V7.04511C25.664 6.38441 25.4078 5.76203 24.9427 5.29257Z" fill="#A3B7D5"/>
<path d="M10.7815 13.3608H10.1641V12.126H10.7815C11.122 12.126 11.399 12.403 11.399 12.7434C11.399 13.0839 11.122 13.3608 10.7815 13.3608ZM10.1641 9.13332H10.7815C11.122 9.13332 11.399 9.41029 11.399 9.75078C11.399 10.0912 11.122 10.3682 10.7815 10.3682H10.1641V9.13332ZM10.7815 7.37551H9.28515C8.79976 7.37551 8.40625 7.76903 8.40625 8.25442V14.2397C8.40625 14.7251 8.79976 15.1187 9.28515 15.1187H10.7815C12.0913 15.1187 13.1568 14.0531 13.1568 12.7434C13.1568 12.1768 12.9573 11.6558 12.6248 11.2471C12.9573 10.8384 13.1568 10.3174 13.1568 9.75078C13.1568 8.44104 12.0913 7.37551 10.7815 7.37551Z" fill="#A3B7D5"/>
<path d="M14.9687 7.37551C14.4834 7.37551 14.0898 7.76903 14.0898 8.25442V14.2397C14.0898 14.7251 14.4834 15.1187 14.9687 15.1187C15.4541 15.1187 15.8477 14.7251 15.8477 14.2397V8.25442C15.8477 7.76903 15.4541 7.37551 14.9687 7.37551Z" fill="#A3B7D5"/>
<path d="M19.8364 12.9546C19.8363 13.0623 19.7935 13.1656 19.7173 13.2417C19.6412 13.3179 19.5379 13.3607 19.4302 13.3608H18.6016V9.13332H19.4302C19.6542 9.13332 19.8364 9.31554 19.8364 9.53949V12.9546ZM19.4302 7.37551H17.7227C17.2373 7.37551 16.8438 7.76903 16.8438 8.25442V14.2397C16.8438 14.7251 17.2373 15.1187 17.7227 15.1187H19.4302C20.6234 15.1187 21.5942 14.1479 21.5942 12.9546V9.53949C21.5942 8.34629 20.6234 7.37551 19.4302 7.37551Z" fill="#A3B7D5"/>
</g>
</svg>
