<svg width="20" height="21" viewBox="0 0 20 21" fill="none" xmlns="http://www.w3.org/2000/svg">
<g clip-path="url(#clip0_75_28723)">
<path d="M17.015 2.97933C16.8389 2.49774 16.5194 2.08173 16.0994 1.78744C15.6795 1.49314 15.1794 1.3347 14.6667 1.3335H5.33334C4.82056 1.3347 4.32049 1.49314 3.90057 1.78744C3.48066 2.08173 3.1611 2.49774 2.98501 2.97933L1.19834 7.891C0.40393 10.0706 -0.00167049 12.3728 5.17077e-06 14.6927V16.3335H1.66667V19.6668H6.66667V16.3335H13.3333V19.6668H18.3333V16.3335H20V14.6927C20.0017 12.3728 19.5961 10.0706 18.8017 7.891L17.015 2.97933ZM4.55084 3.5485C4.60929 3.38788 4.71572 3.24913 4.8557 3.15104C4.99567 3.05296 5.16242 3.00028 5.33334 3.00016H14.6667C14.8376 3.00028 15.0043 3.05296 15.1443 3.15104C15.2843 3.24913 15.3907 3.38788 15.4492 3.5485L17.2358 8.46516C17.38 8.86266 17.5 9.26683 17.6158 9.671H2.38417C2.50001 9.26683 2.62001 8.86266 2.76417 8.46516L4.55084 3.5485ZM5.00001 18.0002H3.33334V16.3335H5.00001V18.0002ZM16.6667 18.0002H15V16.3335H16.6667V18.0002ZM1.66667 14.6668C1.67041 13.5483 1.77697 12.4325 1.98501 11.3335H3.33334V12.1668C3.33334 12.3878 3.42114 12.5998 3.57742 12.7561C3.7337 12.9124 3.94566 13.0002 4.16667 13.0002C4.38769 13.0002 4.59965 12.9124 4.75593 12.7561C4.91221 12.5998 5.00001 12.3878 5.00001 12.1668V11.3335H15V12.1668C15 12.3878 15.0878 12.5998 15.2441 12.7561C15.4004 12.9124 15.6123 13.0002 15.8333 13.0002C16.0544 13.0002 16.2663 12.9124 16.4226 12.7561C16.5789 12.5998 16.6667 12.3878 16.6667 12.1668V11.3335H18.015C18.223 12.4325 18.3296 13.5483 18.3333 14.6668H1.66667Z" fill="#F89818"/>
</g>
<defs>
<clipPath id="clip0_75_28723">
<rect width="20" height="20" fill="white" transform="translate(0 0.5)"/>
</clipPath>
</defs>
</svg>
