<svg width="18" height="20" viewBox="0 0 18 20" fill="none" xmlns="http://www.w3.org/2000/svg">
<path d="M17.6297 5.5197L17.6149 5.49411C17.5944 5.45175 17.5708 5.41097 17.5443 5.37212L14.7619 0.56172C14.5615 0.215235 14.1884 0 13.7881 0H4.21241C3.81151 0 3.43807 0.215743 3.23772 0.563165L0.409981 5.46888C0.385296 5.5121 0.366211 5.5583 0.353184 5.60634C0.31231 5.71669 0.291424 5.83343 0.291504 5.95111V18.6216C0.291504 19.3816 0.909826 20 1.66983 20H16.3302C17.0902 20 17.7085 19.3816 17.7085 18.6216V5.90466C17.7085 5.88767 17.708 5.87079 17.7071 5.854C17.7154 5.73732 17.6884 5.62085 17.6297 5.5197ZM9.60621 1.17231H13.7608L15.9496 4.95642H9.60621V1.17231ZM4.23971 1.17231H8.4339V4.95642H2.05846L4.23971 1.17231ZM16.5362 18.6217C16.5361 18.6763 16.5144 18.7287 16.4758 18.7673C16.4372 18.8059 16.3848 18.8276 16.3302 18.8277H1.66983C1.61521 18.8276 1.56284 18.8059 1.52422 18.7673C1.4856 18.7287 1.46387 18.6763 1.46381 18.6217V6.12872H16.5362V18.6217Z" fill="#F89818"/>
<path d="M11.6608 10.5481C11.4319 10.3192 11.0607 10.3192 10.8318 10.5481L8.21455 13.1654L7.20815 12.159C6.97928 11.9301 6.60811 11.9301 6.3792 12.159C6.15029 12.3878 6.15029 12.759 6.3792 12.9879L7.80014 14.4088C7.85451 14.4633 7.91911 14.5065 7.99023 14.536C8.06136 14.5655 8.13761 14.5806 8.21459 14.5805C8.36456 14.5805 8.51463 14.5232 8.62905 14.4088L11.6608 11.3771C11.8897 11.1482 11.8897 10.777 11.6608 10.5481Z" fill="#F89818"/>
</svg>
