<svg width="16" height="16" viewBox="0 0 16 16" fill="none" xmlns="http://www.w3.org/2000/svg">
<g clip-path="url(#clip0_117_56685)">
<path d="M6.16663 5.33337H1.16663C0.523313 5.33337 0 4.81006 0 4.16663V1.16663C0 0.523313 0.523313 0 1.16663 0H6.16663C6.81006 0 7.33337 0.523313 7.33337 1.16663V4.16663C7.33337 4.81006 6.81006 5.33337 6.16663 5.33337ZM1.16663 1C1.12244 1.00003 1.08008 1.0176 1.04884 1.04884C1.0176 1.08008 1.00003 1.12244 1 1.16663V4.16663C1.00001 4.21083 1.01756 4.25322 1.0488 4.28448C1.08005 4.31575 1.12242 4.33333 1.16663 4.33337H6.16663C6.21084 4.33336 6.25325 4.31578 6.28452 4.28452C6.31578 4.25325 6.33336 4.21084 6.33337 4.16663V1.16663C6.33333 1.12242 6.31575 1.08005 6.28448 1.0488C6.25322 1.01756 6.21083 1.00001 6.16663 1H1.16663ZM6.16663 16H1.16663C0.523313 16 0 15.4767 0 14.8334V7.83337C0 7.18994 0.523313 6.66663 1.16663 6.66663H6.16663C6.81006 6.66663 7.33337 7.18994 7.33337 7.83337V14.8334C7.33337 15.4767 6.81006 16 6.16663 16ZM1.16663 7.66663C1.12242 7.66667 1.08005 7.68425 1.0488 7.71552C1.01756 7.74678 1.00001 7.78917 1 7.83337V14.8334C1.00003 14.8776 1.0176 14.9199 1.04884 14.9512C1.08008 14.9824 1.12244 15 1.16663 15H6.16663C6.21083 15 6.25322 14.9824 6.28448 14.9512C6.31575 14.92 6.33333 14.8776 6.33337 14.8334V7.83337C6.33336 7.78916 6.31578 7.74675 6.28452 7.71548C6.25325 7.68422 6.21084 7.66664 6.16663 7.66663H1.16663ZM14.8334 16H9.83337C9.18994 16 8.66663 15.4767 8.66663 14.8334V11.8334C8.66663 11.1899 9.18994 10.6666 9.83337 10.6666H14.8334C15.4767 10.6666 16 11.1899 16 11.8334V14.8334C16 15.4767 15.4767 16 14.8334 16ZM9.83337 11.6666C9.78916 11.6666 9.74675 11.6842 9.71548 11.7155C9.68422 11.7468 9.66664 11.7892 9.66663 11.8334V14.8334C9.66667 14.8776 9.68425 14.92 9.71552 14.9512C9.74678 14.9824 9.78917 15 9.83337 15H14.8334C14.8776 15 14.9199 14.9824 14.9512 14.9512C14.9824 14.9199 15 14.8776 15 14.8334V11.8334C15 11.7892 14.9824 11.7468 14.9512 11.7155C14.92 11.6843 14.8776 11.6667 14.8334 11.6666H9.83337ZM14.8334 9.33337H9.83337C9.18994 9.33337 8.66663 8.81006 8.66663 8.16663V1.16663C8.66663 0.523313 9.18994 0 9.83337 0H14.8334C15.4767 0 16 0.523313 16 1.16663V8.16663C16 8.81006 15.4767 9.33337 14.8334 9.33337ZM9.83337 1C9.78917 1.00001 9.74678 1.01756 9.71552 1.0488C9.68425 1.08005 9.66667 1.12242 9.66663 1.16663V8.16663C9.66664 8.21084 9.68422 8.25325 9.71548 8.28452C9.74675 8.31578 9.78916 8.33336 9.83337 8.33337H14.8334C14.8776 8.33333 14.92 8.31575 14.9512 8.28448C14.9824 8.25322 15 8.21083 15 8.16663V1.16663C15 1.12244 14.9824 1.08008 14.9512 1.04884C14.9199 1.0176 14.8776 1.00003 14.8334 1H9.83337Z" fill="#7488A6"/>
</g>
<defs>
<clipPath id="clip0_117_56685">
<rect width="16" height="16" fill="white"/>
</clipPath>
</defs>
</svg>
