<svg width="20" height="21" viewBox="0 0 20 21" fill="none" xmlns="http://www.w3.org/2000/svg">
<g clip-path="url(#clip0_75_28561)">
<path d="M17.0711 3.42895C15.1823 1.54016 12.6711 0.5 10 0.5C7.32891 0.5 4.8177 1.54016 2.92891 3.42895C1.04016 5.3177 0 7.82891 0 10.5C0 13.1711 1.04016 15.6823 2.92891 17.5711C4.8177 19.4598 7.32891 20.5 10 20.5C12.6711 20.5 15.1823 19.4598 17.0711 17.5711C18.9598 15.6823 20 13.1711 20 10.5C20 7.82891 18.9598 5.3177 17.0711 3.42895ZM10 2.73684C13.9368 2.73684 17.1983 5.6825 17.6969 9.48547L12.8847 9.0168C12.3452 7.97168 11.255 7.255 10 7.255C8.74496 7.255 7.65484 7.97168 7.11527 9.0168L2.30312 9.48547C2.80172 5.6825 6.0632 2.73684 10 2.73684ZM2.30035 11.4912L7.05547 11.8617C7.35586 12.5082 7.86285 13.04 8.49141 13.3716L8.80305 18.1708C5.41066 17.6436 2.73824 14.9118 2.30035 11.4912ZM10 11.5082C9.44406 11.5082 8.99184 11.0559 8.99184 10.5C8.99184 9.9441 9.44414 9.49184 10 9.49184C10.5559 9.49184 11.0082 9.94414 11.0082 10.5C11.0082 11.0559 10.5559 11.5082 10 11.5082ZM11.197 18.1708L11.5087 13.3716C12.1393 13.0385 12.6436 12.5082 12.9446 11.8617L17.6997 11.4912C17.2618 14.9118 14.5893 17.6436 11.197 18.1708Z" fill="#7488A6"/>
</g>
<defs>
<clipPath id="clip0_75_28561">
<rect width="20" height="20" fill="white" transform="translate(0 0.5)"/>
</clipPath>
</defs>
</svg>
