<svg width="16" height="16" viewBox="0 0 16 16" fill="none" xmlns="http://www.w3.org/2000/svg">
<path d="M8.00016 0C4.805 0 2.20557 2.59944 2.20557 5.79456C2.20557 9.75981 7.39116 15.581 7.61194 15.8269C7.81932 16.0579 8.18138 16.0575 8.38838 15.8269C8.60916 15.581 13.7948 9.75981 13.7948 5.79456C13.7947 2.59944 11.1953 0 8.00016 0ZM8.00016 14.679C6.25494 12.606 3.24907 8.516 3.24907 5.79463C3.24907 3.17481 5.38038 1.0435 8.00016 1.0435C10.6199 1.0435 12.7513 3.17481 12.7513 5.79459C12.7512 8.51609 9.74582 12.6053 8.00016 14.679Z" fill="#757575"/>
<path d="M7.99985 2.87939C6.39229 2.87939 5.08447 4.18724 5.08447 5.7948C5.08447 7.40236 6.39232 8.71021 7.99985 8.71021C9.60738 8.71021 10.9152 7.40236 10.9152 5.7948C10.9152 4.18724 9.60738 2.87939 7.99985 2.87939ZM7.99985 7.66671C6.96766 7.66671 6.12797 6.82699 6.12797 5.7948C6.12797 4.76261 6.96769 3.92289 7.99985 3.92289C9.032 3.92289 9.87172 4.76261 9.87172 5.7948C9.87172 6.82699 9.032 7.66671 7.99985 7.66671Z" fill="#757575"/>
</svg>
