<svg width="20" height="21" viewBox="0 0 20 21" fill="none" xmlns="http://www.w3.org/2000/svg">
<g clip-path="url(#clip0_75_28393)">
<path d="M10 0.5C8.02219 0.5 6.08879 1.08649 4.4443 2.18531C2.79981 3.28412 1.51809 4.84591 0.761209 6.67318C0.00433286 8.50044 -0.193701 10.5111 0.192152 12.4509C0.578004 14.3907 1.53041 16.1726 2.92894 17.5711C4.32746 18.9696 6.10929 19.922 8.0491 20.3079C9.98891 20.6937 11.9996 20.4957 13.8268 19.7388C15.6541 18.982 17.2159 17.7002 18.3147 16.0557C19.4135 14.4112 20 12.4778 20 10.5C19.9971 7.84873 18.9426 5.30685 17.0679 3.43211C15.1932 1.55736 12.6513 0.502868 10 0.5ZM18.3333 10.5C18.3343 12.1331 17.8525 13.73 16.9483 15.09L15.955 14.0959C15.8771 14.0178 15.8334 13.912 15.8333 13.8017V13C15.8333 12.337 15.5699 11.7011 15.1011 11.2323C14.6323 10.7634 13.9964 10.5 13.3333 10.5H10.8333C10.6123 10.5 10.4004 10.4122 10.2441 10.2559C10.0878 10.0997 10 9.8877 10 9.66669V9.25002C10 9.13951 10.0439 9.03353 10.122 8.95539C10.2002 8.87725 10.3062 8.83335 10.4167 8.83335C10.9692 8.83335 11.4991 8.61386 11.8898 8.22315C12.2805 7.83245 12.5 7.30255 12.5 6.75001V5.91668C12.5 5.80617 12.5439 5.70019 12.622 5.62205C12.7002 5.54391 12.8062 5.50001 12.9167 5.50001H14.0658C14.6178 5.49844 15.1469 5.27925 15.5383 4.89001L15.8525 4.57584C16.6385 5.34924 17.2626 6.27138 17.6886 7.28849C18.1145 8.3056 18.3337 9.39733 18.3333 10.5ZM1.7075 11.3025L4.33917 13.9342C4.57076 14.1673 4.84632 14.352 5.14988 14.4778C5.45343 14.6035 5.77894 14.6677 6.1075 14.6667H8.33334C8.55435 14.6667 8.76631 14.7545 8.92259 14.9108C9.07887 15.0671 9.16667 15.279 9.16667 15.5V18.7909C7.25017 18.5952 5.46033 17.7427 4.10078 16.3778C2.74122 15.0129 1.89565 13.2198 1.7075 11.3025ZM10.8333 18.7909V15.5C10.8333 14.837 10.5699 14.2011 10.1011 13.7323C9.63226 13.2634 8.99638 13 8.33334 13H6.1075C5.99794 13.0001 5.88943 12.9786 5.78819 12.9367C5.68695 12.8948 5.59497 12.8333 5.5175 12.7559L1.8025 9.04085C2.04098 7.68518 2.61229 6.40992 3.46515 5.32949C4.31801 4.24906 5.42576 3.39726 6.689 2.85052C7.95224 2.30377 9.33145 2.07918 10.7029 2.1969C12.0743 2.31463 13.3951 2.77098 14.5467 3.52501L14.36 3.71167C14.2816 3.78903 14.176 3.83269 14.0658 3.83334H12.9167C12.3641 3.83334 11.8342 4.05283 11.4435 4.44354C11.0528 4.83424 10.8333 5.36414 10.8333 5.91668V6.75001C10.8333 6.86052 10.7894 6.9665 10.7113 7.04464C10.6332 7.12278 10.5272 7.16668 10.4167 7.16668C9.86414 7.16668 9.33423 7.38617 8.94353 7.77688C8.55283 8.16758 8.33334 8.69748 8.33334 9.25002V9.66669C8.33334 10.3297 8.59673 10.9656 9.06557 11.4345C9.53441 11.9033 10.1703 12.1667 10.8333 12.1667H13.3333C13.5544 12.1667 13.7663 12.2545 13.9226 12.4108C14.0789 12.567 14.1667 12.779 14.1667 13V13.8017C14.1682 14.3537 14.3874 14.8828 14.7767 15.2742L15.8908 16.3884C14.5337 17.7502 12.7463 18.5993 10.8333 18.7909Z" fill="#7488A6"/>
</g>
<defs>
<clipPath id="clip0_75_28393">
<rect width="20" height="20" fill="white" transform="translate(0 0.5)"/>
</clipPath>
</defs>
</svg>
