<svg width="16" height="16" viewBox="0 0 16 16" fill="none" xmlns="http://www.w3.org/2000/svg">
<g clip-path="url(#clip0_117_56661)">
<path d="M12.0002 15.1666C11.3739 15.1666 10.7616 14.9809 10.2409 14.6329C9.7201 14.285 9.31422 13.7904 9.07455 13.2118C8.83487 12.6331 8.77216 11.9964 8.89434 11.3821C9.01653 10.7679 9.31813 10.2036 9.76099 9.76075C10.2039 9.31788 10.7681 9.01629 11.3824 8.8941C11.9967 8.77191 12.6334 8.83462 13.212 9.0743C13.7906 9.31398 14.2852 9.71986 14.6332 10.2406C14.9811 10.7614 15.1668 11.3736 15.1668 11.9999C15.1668 12.8398 14.8332 13.6452 14.2393 14.2391C13.6455 14.833 12.84 15.1666 12.0002 15.1666ZM12.0002 9.83325C11.5716 9.83325 11.1527 9.96033 10.7964 10.1984C10.4401 10.4365 10.1624 10.7749 9.99843 11.1708C9.83444 11.5667 9.79153 12.0023 9.87513 12.4226C9.95873 12.8429 10.1651 13.229 10.4681 13.532C10.7711 13.835 11.1572 14.0414 11.5775 14.125C11.9978 14.2086 12.4334 14.1657 12.8293 14.0017C13.2252 13.8377 13.5636 13.56 13.8017 13.2037C14.0398 12.8473 14.1668 12.4284 14.1668 11.9999C14.1651 11.4258 13.9362 10.8757 13.5303 10.4698C13.1243 10.0638 12.5743 9.83501 12.0002 9.83325Z" fill="#7488A6"/>
<path d="M10.2402 14.4999H2.00016C1.69128 14.4982 1.39555 14.3747 1.17714 14.1563C0.958724 13.9379 0.835246 13.6421 0.833496 13.3333V1.99992C0.835246 1.69104 0.958724 1.39531 1.17714 1.17689C1.39555 0.95848 1.69128 0.835002 2.00016 0.833252H12.0002C12.309 0.835002 12.6048 0.95848 12.8232 1.17689C13.0416 1.39531 13.1651 1.69104 13.1668 1.99992V9.41992C13.1668 9.55253 13.1142 9.6797 13.0204 9.77347C12.9266 9.86724 12.7994 9.91992 12.6668 9.91992C12.5342 9.91992 12.407 9.86724 12.3133 9.77347C12.2195 9.6797 12.1668 9.55253 12.1668 9.41992V1.99992C12.1668 1.95572 12.1493 1.91332 12.118 1.88207C12.0868 1.85081 12.0444 1.83325 12.0002 1.83325H2.00016C1.95596 1.83325 1.91357 1.85081 1.88231 1.88207C1.85106 1.91332 1.8335 1.95572 1.8335 1.99992V13.3333C1.8335 13.3775 1.85106 13.4198 1.88231 13.4511C1.91357 13.4824 1.95596 13.4999 2.00016 13.4999H10.2402C10.3728 13.4999 10.4999 13.5526 10.5937 13.6464C10.6875 13.7401 10.7402 13.8673 10.7402 13.9999C10.7402 14.1325 10.6875 14.2597 10.5937 14.3535C10.4999 14.4472 10.3728 14.4999 10.2402 14.4999Z" fill="#7488A6"/>
<path d="M12.667 13.4267C12.5879 13.4259 12.51 13.4068 12.4394 13.371C12.3689 13.3351 12.3076 13.2835 12.2603 13.22L11.5937 12.2933C11.5333 12.2074 11.5007 12.105 11.5003 12V10.6667C11.5003 10.5341 11.553 10.4069 11.6468 10.3131C11.7405 10.2193 11.8677 10.1667 12.0003 10.1667C12.1329 10.1667 12.2601 10.2193 12.3539 10.3131C12.4476 10.4069 12.5003 10.5341 12.5003 10.6667V11.84L13.0737 12.6667C13.1402 12.7722 13.1654 12.8987 13.1445 13.0217C13.1236 13.1447 13.058 13.2557 12.9603 13.3333C12.8754 13.3958 12.7724 13.4286 12.667 13.4267ZM7.00033 10.5H3.66699C3.53438 10.5 3.40721 10.4473 3.31344 10.3536C3.21967 10.2598 3.16699 10.1326 3.16699 10C3.16699 9.86739 3.21967 9.74021 3.31344 9.64645C3.40721 9.55268 3.53438 9.5 3.66699 9.5H7.00033C7.13293 9.5 7.26011 9.55268 7.35388 9.64645C7.44765 9.74021 7.50033 9.86739 7.50033 10C7.50033 10.1326 7.44765 10.2598 7.35388 10.3536C7.26011 10.4473 7.13293 10.5 7.00033 10.5ZM10.3337 7.5H3.66699C3.53438 7.5 3.40721 7.44732 3.31344 7.35355C3.21967 7.25978 3.16699 7.13261 3.16699 7C3.16699 6.86739 3.21967 6.74021 3.31344 6.64645C3.40721 6.55268 3.53438 6.5 3.66699 6.5H10.3337C10.4663 6.5 10.5934 6.55268 10.6872 6.64645C10.781 6.74021 10.8337 6.86739 10.8337 7C10.8337 7.13261 10.781 7.25978 10.6872 7.35355C10.5934 7.44732 10.4663 7.5 10.3337 7.5ZM10.3337 4.5H3.66699C3.53438 4.5 3.40721 4.44732 3.31344 4.35355C3.21967 4.25979 3.16699 4.13261 3.16699 4C3.16699 3.86739 3.21967 3.74021 3.31344 3.64645C3.40721 3.55268 3.53438 3.5 3.66699 3.5H10.3337C10.4663 3.5 10.5934 3.55268 10.6872 3.64645C10.781 3.74021 10.8337 3.86739 10.8337 4C10.8337 4.13261 10.781 4.25979 10.6872 4.35355C10.5934 4.44732 10.4663 4.5 10.3337 4.5Z" fill="#7488A6"/>
</g>
<defs>
<clipPath id="clip0_117_56661">
<rect width="16" height="16" fill="white"/>
</clipPath>
</defs>
</svg>
