<svg width="16" height="16" viewBox="0 0 16 16" fill="none" xmlns="http://www.w3.org/2000/svg">
<mask id="mask0_117_56655" style="mask-type:luminance" maskUnits="userSpaceOnUse" x="0" y="0" width="16" height="16">
<path d="M0 4.76837e-05H16V16H0V4.76837e-05Z" fill="white"/>
</mask>
<g mask="url(#mask0_117_56655)">
<path d="M12.75 7.92656C12.75 8.0309 12.7093 8.12902 12.6354 8.2028L10.4955 10.3409C10.4592 10.3774 10.416 10.4063 10.3685 10.426C10.3209 10.4456 10.2699 10.4557 10.2185 10.4555H5.78149C5.73003 10.4557 5.67905 10.4456 5.6315 10.426C5.58395 10.4063 5.54077 10.3774 5.50446 10.3409L3.36456 8.2028C3.32814 8.16663 3.29926 8.12358 3.27959 8.07616C3.25993 8.02874 3.24987 7.97789 3.25 7.92656V3.49072C3.24988 3.43972 3.25981 3.3892 3.27922 3.34204C3.29864 3.29488 3.32716 3.25201 3.36315 3.21588L5.50558 1.05354C5.57937 0.979528 5.67951 0.93781 5.78402 0.937546H10.2159C10.3198 0.937546 10.4213 0.979826 10.4944 1.05354L12.6368 3.21588C12.6728 3.25201 12.7013 3.29488 12.7207 3.34204C12.7402 3.3892 12.7501 3.43972 12.75 3.49072V7.92656ZM8.73867 14.3306C8.73867 14.7342 8.41033 15.0625 8.00673 15.0625H7.99323C7.58964 15.0625 7.2613 14.7342 7.2613 14.3306V11.393H8.73867V14.3306ZM13.3027 2.55604L11.1603 0.393735C10.9125 0.143517 10.5683 4.86374e-05 10.2159 4.86374e-05H5.78402C5.43174 4.86374e-05 5.08752 0.143516 4.83965 0.393703L2.69722 2.55604C2.44912 2.80641 2.3125 3.13835 2.3125 3.49072V7.92656C2.3125 8.28143 2.45081 8.61508 2.70194 8.86599L4.8418 11.0041C5.09284 11.2549 5.42655 11.393 5.78149 11.393H6.3238V14.3306C6.3238 15.2511 7.0727 16 7.99323 16H8.00673C8.92726 16 9.67617 15.2511 9.67617 14.3306V11.393H10.2185C10.5734 11.393 10.9071 11.2549 11.1582 11.0041L13.2981 8.86599C13.5492 8.61508 13.6875 8.28146 13.6875 7.92656V3.49072C13.6875 3.13835 13.5508 2.80641 13.3027 2.55604Z" fill="#7488A6"/>
<path d="M5.75021 6.85913H5.4209V6.20054H5.75021C5.9318 6.20054 6.07952 6.34826 6.07952 6.52985C6.07952 6.71142 5.9318 6.85913 5.75021 6.85913ZM5.4209 4.60445H5.75021C5.9318 4.60445 6.07952 4.75217 6.07952 4.93376C6.07952 5.11533 5.9318 5.26304 5.75021 5.26304H5.4209V4.60445ZM5.75021 3.66696H4.95215C4.69327 3.66696 4.4834 3.87683 4.4834 4.1357V7.32788C4.4834 7.58676 4.69327 7.79663 4.95215 7.79663H5.75021C6.44874 7.79663 7.01702 7.22835 7.01702 6.52985C7.01702 6.22764 6.91061 5.94979 6.7333 5.73179C6.91061 5.51383 7.01702 5.23598 7.01702 4.93376C7.01702 4.23524 6.44874 3.66696 5.75021 3.66696Z" fill="#7488A6"/>
<path d="M7.9834 3.66696C7.72452 3.66696 7.51465 3.87683 7.51465 4.1357V7.32788C7.51465 7.58676 7.72452 7.79663 7.9834 7.79663C8.24227 7.79663 8.45215 7.58676 8.45215 7.32788V4.1357C8.45215 3.87683 8.24227 3.66696 7.9834 3.66696Z" fill="#7488A6"/>
<path d="M10.5795 6.64248C10.5794 6.69992 10.5566 6.75499 10.516 6.79561C10.4753 6.83623 10.4203 6.85908 10.3628 6.85913H9.9209V4.60445H10.3628C10.4823 4.60445 10.5795 4.70164 10.5795 4.82108V6.64248ZM10.3628 3.66696H9.45215C9.19327 3.66696 8.9834 3.87683 8.9834 4.1357V7.32788C8.9834 7.58676 9.19327 7.79663 9.45215 7.79663H10.3628C10.9992 7.79663 11.517 7.27888 11.517 6.64248V4.82108C11.517 4.1847 10.9992 3.66696 10.3628 3.66696Z" fill="#7488A6"/>
</g>
</svg>
