<svg width="20" height="21" viewBox="0 0 20 21" fill="none" xmlns="http://www.w3.org/2000/svg">
<path d="M19.8093 5.36395L10.1541 0.536368C10.1063 0.512451 10.0535 0.5 10 0.5C9.94649 0.5 9.89372 0.512451 9.84586 0.536368L0.190695 5.36395C0.133373 5.39259 0.0851667 5.43664 0.0514842 5.49116C0.0178016 5.54567 -2.47214e-05 5.60849 5.13911e-06 5.67257V15.3277C-0.000346249 15.3921 0.0173286 15.4553 0.051029 15.5101C0.0847295 15.565 0.13311 15.6093 0.190695 15.6381L9.84586 20.4657C9.89372 20.4896 9.94649 20.502 10 20.502C10.0535 20.502 10.1063 20.4896 10.1541 20.4657L19.8093 15.6381C19.8669 15.6093 19.9153 15.565 19.949 15.5101C19.9827 15.4553 20.0003 15.3921 20 15.3277V5.67257C20 5.60849 19.9822 5.54567 19.9485 5.49116C19.9148 5.43664 19.8666 5.39259 19.8093 5.36395ZM10 10.1146L7.30448 8.7667L15.9203 4.18981L18.8858 5.67257L10 10.1146ZM4.54586 7.38739L13.1617 2.8105L15.1617 3.8105L6.5469 8.38808L4.54586 7.38739ZM4.13793 7.95464L6.2069 8.98912V11.7367L5.41621 10.946C5.35155 10.8813 5.26386 10.845 5.17241 10.845H4.13793V7.95464ZM10 1.2305L12.4041 2.43119L3.78828 7.00877L1.11587 5.67257L10 1.2305ZM0.68966 6.2305L3.44828 7.60981V11.1898C3.44828 11.2813 3.48461 11.369 3.54928 11.4336C3.61394 11.4983 3.70165 11.5346 3.7931 11.5346H5.02966L6.30793 12.8129C6.35615 12.8611 6.41759 12.8939 6.48447 12.9072C6.55135 12.9205 6.62067 12.9137 6.68367 12.8876C6.74667 12.8615 6.80052 12.8173 6.83841 12.7607C6.8763 12.704 6.89654 12.6373 6.89655 12.5691V9.33394L9.65517 10.7133V19.5974L0.68966 15.1146V6.2305ZM10.3448 19.5974V10.7133L19.3103 6.2305V15.1146L10.3448 19.5974Z" fill="#F89818"/>
</svg>
