<svg width="20" height="21" viewBox="0 0 20 21" fill="none" xmlns="http://www.w3.org/2000/svg">
<path d="M0.358399 3.69168V16.0168C0.358176 16.8619 0.693226 17.6725 1.29003 18.2709C1.88683 18.8693 2.69664 19.2065 3.54175 19.2084H10.9693C11.9191 20.0451 13.1427 20.5046 14.4085 20.5001C17.2935 20.5001 19.6418 18.1559 19.6418 15.2751C19.6418 12.8117 17.9677 10.7459 15.6751 10.1984V3.69168C15.6752 2.84664 15.34 2.03608 14.7433 1.43776C14.1465 0.839446 13.3368 0.502206 12.4918 0.5H3.54175C2.69664 0.501986 1.88683 0.839155 1.29003 1.43752C0.693226 2.03589 0.358176 2.84657 0.358399 3.69168ZM17.9752 15.2751C17.973 16.2196 17.5962 17.1246 16.9276 17.7917C16.2589 18.4588 15.353 18.8334 14.4085 18.8334C12.5068 18.8334 10.8335 17.3018 10.8335 15.2751C10.8346 14.3273 11.2116 13.4186 11.8818 12.7484C12.552 12.0782 13.4607 11.7012 14.4085 11.7001C14.8777 11.6995 15.3424 11.7917 15.776 11.9712C16.2095 12.1508 16.6033 12.4142 16.9347 12.7464C17.2661 13.0786 17.5286 13.473 17.7072 13.907C17.8857 14.3409 17.9768 14.8058 17.9752 15.2751ZM2.02507 3.69168C2.02507 2.85085 2.70591 2.16668 3.54175 2.16668H12.4918C13.3285 2.16668 14.0085 2.85085 14.0085 3.69168V10.0484C11.3351 10.2467 9.16678 12.5184 9.16678 15.2742C9.16678 16.0859 9.37845 16.9143 9.68095 17.5418H3.54175C3.13853 17.5402 2.7524 17.3788 2.46806 17.0929C2.18372 16.807 2.02441 16.42 2.02507 16.0168V3.69168Z" fill="#F89818"/>
<path d="M4.29086 15.1718H6.78004C7.00105 15.1718 7.21302 15.084 7.3693 14.9277C7.52558 14.7715 7.61338 14.5595 7.61338 14.3385C7.61338 14.1175 7.52558 13.9055 7.3693 13.7492C7.21302 13.5929 7.00105 13.5051 6.78004 13.5051H4.29169C4.07068 13.5051 3.85871 13.5929 3.70243 13.7492C3.54615 13.9055 3.45835 14.1175 3.45835 14.3385C3.45835 14.5595 3.54615 14.7715 3.70243 14.9277C3.85871 15.084 4.06984 15.1718 4.29086 15.1718ZM4.29086 6.20427H11.7467C11.9677 6.20427 12.1797 6.11648 12.336 5.96019C12.4923 5.80391 12.5801 5.59195 12.5801 5.37094C12.5801 5.14992 12.4923 4.93796 12.336 4.78168C12.1797 4.6254 11.9677 4.5376 11.7467 4.5376H4.29169C4.07068 4.5376 3.85871 4.6254 3.70243 4.78168C3.54615 4.93796 3.45835 5.14992 3.45835 5.37094C3.45835 5.59195 3.54615 5.80391 3.70243 5.96019C3.85871 6.11648 4.06984 6.20427 4.29086 6.20427ZM4.29086 10.6876H7.66254C7.88356 10.6876 8.09552 10.5998 8.2518 10.4436C8.40808 10.2873 8.49588 10.0753 8.49588 9.85429C8.49588 9.63328 8.40808 9.42132 8.2518 9.26503C8.09552 9.10875 7.88356 9.02096 7.66254 9.02096H4.29086C4.06984 9.02096 3.85788 9.10875 3.7016 9.26503C3.54532 9.42132 3.45752 9.63328 3.45752 9.85429C3.45752 10.0753 3.54532 10.2873 3.7016 10.4436C3.85788 10.5998 4.06984 10.6876 4.29086 10.6876ZM13.6109 13.6443V15.331C13.6109 15.5518 13.6984 15.7643 13.8542 15.9202L14.6501 16.716C14.727 16.7956 14.8189 16.8591 14.9206 16.9028C15.0223 16.9464 15.1316 16.9694 15.2423 16.9704C15.3529 16.9713 15.4626 16.9503 15.565 16.9084C15.6675 16.8664 15.7605 16.8046 15.8388 16.7263C15.917 16.6481 15.9789 16.555 16.0208 16.4526C16.0627 16.3502 16.0838 16.2405 16.0828 16.1298C16.0818 16.0192 16.0588 15.9098 16.0152 15.8082C15.9715 15.7065 15.908 15.6145 15.8284 15.5377L15.2776 14.986V13.6443C15.2776 13.4233 15.1898 13.2113 15.0335 13.0551C14.8772 12.8988 14.6653 12.811 14.4442 12.811C14.2232 12.811 14.0113 12.8988 13.855 13.0551C13.6987 13.2113 13.6109 13.4233 13.6109 13.6443Z" fill="#F89818"/>
</svg>
