<svg width="17" height="16" viewBox="0 0 17 16" fill="none" xmlns="http://www.w3.org/2000/svg">
<g clip-path="url(#clip0_117_56659)">
<path fill-rule="evenodd" clip-rule="evenodd" d="M6.38258 10.3166H11.2715C11.8251 8.68688 14.1349 8.70253 14.6831 10.3166H15.0916V7.96744C15.0916 7.67475 14.8517 7.4349 14.5592 7.4349H10.957C10.6975 7.4349 10.4872 7.22452 10.4872 6.96511V4.14601H2.43724V4.70974H3.30112C3.91964 4.70974 3.91964 5.64941 3.30112 5.64941H2.43724V6.55781H4.69249C5.31114 6.55781 5.31114 7.49752 4.69249 7.49752H2.43724V10.3165H2.9711C3.52456 8.68675 5.8345 8.70263 6.38258 10.3166ZM1.49753 5.64941H0.933808C0.315162 5.64941 0.315162 4.70974 0.933808 4.70974H1.49753V3.67609C1.49753 3.41668 1.70791 3.2063 1.96745 3.2063C2.68648 3.2063 10.589 3.20937 10.589 3.2063C11.8752 3.2063 12.9956 3.84304 13.6548 4.94933L14.576 6.49532C15.38 6.50437 16.0313 7.16202 16.0313 7.96732V10.7864C16.0313 11.0458 15.8209 11.2562 15.5615 11.2562H14.7424C14.574 12.0855 13.8412 12.697 12.9774 12.697C12.1135 12.697 11.3807 12.0855 11.2123 11.2562H6.44188C6.27346 12.0855 5.54071 12.697 4.67687 12.697C3.81299 12.697 3.08022 12.0855 2.9118 11.2562H1.96745C1.70788 11.2562 1.49753 11.0458 1.49753 10.7864V9.37679H0.46389C-0.15463 9.37679 -0.15463 8.43723 0.46389 8.43723H1.49753V7.49749H0.46389C-0.15463 7.49749 -0.15463 6.55778 0.46389 6.55778H1.49753V5.64941ZM13.5865 10.2869C13.9228 10.6233 13.9228 11.1688 13.5865 11.5051C13.0454 12.0462 12.1159 11.6613 12.1159 10.896C12.1159 10.1307 13.0454 9.74579 13.5865 10.2869ZM13.4855 6.49519H11.4268V4.27338C12.0263 4.46551 12.5165 4.86889 12.8509 5.43014L13.4855 6.49519ZM5.28593 10.2869C5.62231 10.6233 5.62231 11.1688 5.28593 11.5051C4.74488 12.0462 3.81541 11.6613 3.81541 10.896C3.81553 10.1307 4.74485 9.74579 5.28593 10.2869Z" fill="#7488A6"/>
</g>
<defs>
<clipPath id="clip0_117_56659">
<rect width="16.0313" height="16" fill="white"/>
</clipPath>
</defs>
</svg>
