<svg width="16" height="16" viewBox="0 0 16 16" fill="none" xmlns="http://www.w3.org/2000/svg">
<g clip-path="url(#clip0_117_56360)">
<path d="M11.7636 0H11.7627L9.88895 0.00365625L4.23623 0C2.94395 0 1.89258 1.05138 1.89258 2.34369V15.5308C1.89258 15.9167 2.33439 16.1369 2.64255 15.9058L6.1388 13.3043L9.60745 15.9058C9.91464 16.1362 10.3574 15.9183 10.3611 15.5308V8.43725H13.6386C13.8975 8.43725 14.1073 8.22738 14.1073 7.9685V2.34369C14.1073 1.05141 13.056 3.125e-05 11.7636 0ZM9.42358 2.34369V14.5933L6.42002 12.3433C6.25333 12.2183 6.0242 12.2183 5.85755 12.3433L2.85764 14.5933V2.34369C2.85764 1.56831 3.48845 0.937469 4.26355 0.937469L9.89073 0.941125C9.59748 1.33247 9.42358 1.81813 9.42358 2.34369ZM13.1422 7.49975H10.3574V2.34369C10.3574 1.56834 10.9881 0.9375 11.7635 0.937469H11.7637C12.539 0.9375 13.1422 1.56831 13.1422 2.34369L13.1422 7.49975Z" fill="#F89818"/>
</g>
<defs>
<clipPath id="clip0_117_56360">
<rect width="16" height="16" fill="white"/>
</clipPath>
</defs>
</svg>
