<svg width="20" height="21" viewBox="0 0 20 21" fill="none" xmlns="http://www.w3.org/2000/svg">
<g clip-path="url(#clip0_75_28477)">
<path d="M20 10.5C20 13.1522 18.9464 15.6957 17.0711 17.5711C15.1957 19.4464 12.6522 20.5 10 20.5C7.34783 20.5 4.8043 19.4464 2.92893 17.5711C1.05357 15.6957 0 13.1522 0 10.5C0 10.279 0.0877974 10.067 0.244078 9.91074C0.400358 9.75446 0.61232 9.66667 0.833333 9.66667C1.05435 9.66667 1.26631 9.75446 1.42259 9.91074C1.57887 10.067 1.66667 10.279 1.66667 10.5C1.66667 12.1482 2.15541 13.7593 3.07109 15.1298C3.98676 16.5002 5.28825 17.5683 6.81097 18.199C8.33369 18.8297 10.0092 18.9948 11.6258 18.6732C13.2423 18.3517 14.7271 17.558 15.8926 16.3926C17.058 15.2271 17.8517 13.7423 18.1732 12.1258C18.4948 10.5092 18.3297 8.83369 17.699 7.31097C17.0683 5.78825 16.0002 4.48676 14.6298 3.57109C13.2593 2.65541 11.6482 2.16667 10 2.16667C9.77899 2.16667 9.56702 2.07887 9.41074 1.92259C9.25446 1.76631 9.16667 1.55435 9.16667 1.33333C9.16667 1.11232 9.25446 0.900358 9.41074 0.744078C9.56702 0.587797 9.77899 0.5 10 0.5C12.6513 0.502868 15.1932 1.55736 17.0679 3.4321C18.9426 5.30684 19.9971 7.84872 20 10.5ZM8.56417 9.66667H6.66667C6.44565 9.66667 6.23369 9.75446 6.07741 9.91074C5.92113 10.067 5.83333 10.279 5.83333 10.5C5.83333 10.721 5.92113 10.933 6.07741 11.0893C6.23369 11.2455 6.44565 11.3333 6.66667 11.3333H8.56417C8.69143 11.5544 8.86786 11.7431 9.0798 11.885C9.29173 12.0269 9.53349 12.1181 9.78633 12.1515C10.0392 12.1849 10.2963 12.1597 10.5378 12.0778C10.7794 11.9959 10.9988 11.8595 11.1792 11.6792C11.3595 11.4988 11.4959 11.2794 11.5778 11.0378C11.6597 10.7963 11.6849 10.5392 11.6515 10.2863C11.6181 10.0335 11.5269 9.79173 11.385 9.5798C11.2431 9.36786 11.0544 9.19143 10.8333 9.06417V6.33333C10.8333 6.11232 10.7455 5.90036 10.5893 5.74408C10.433 5.5878 10.221 5.5 10 5.5C9.77899 5.5 9.56702 5.5878 9.41074 5.74408C9.25446 5.90036 9.16667 6.11232 9.16667 6.33333V9.06417C8.91702 9.2094 8.7094 9.41702 8.56417 9.66667ZM1.5225 7.82C1.68732 7.82 1.84843 7.77113 1.98548 7.67956C2.12252 7.58799 2.22933 7.45784 2.2924 7.30557C2.35547 7.1533 2.37198 6.98574 2.33982 6.82409C2.30767 6.66244 2.2283 6.51395 2.11176 6.39741C1.99521 6.28087 1.84673 6.2015 1.68508 6.16935C1.52342 6.13719 1.35587 6.15369 1.2036 6.21677C1.05133 6.27984 0.921176 6.38665 0.829609 6.52369C0.738041 6.66073 0.689167 6.82185 0.689167 6.98667C0.689167 7.20768 0.776964 7.41964 0.933244 7.57592C1.08952 7.7322 1.30149 7.82 1.5225 7.82ZM3.5175 4.83917C3.68232 4.83917 3.84343 4.79029 3.98048 4.69872C4.11752 4.60716 4.22433 4.47701 4.2874 4.32474C4.35047 4.17246 4.36698 4.00491 4.33482 3.84326C4.30267 3.68161 4.2233 3.53312 4.10676 3.41658C3.99021 3.30003 3.84173 3.22067 3.68008 3.18851C3.51842 3.15636 3.35087 3.17286 3.1986 3.23593C3.04633 3.29901 2.91618 3.40582 2.82461 3.54286C2.73304 3.6799 2.68417 3.84102 2.68417 4.00583C2.68417 4.22685 2.77196 4.43881 2.92824 4.59509C3.08452 4.75137 3.29649 4.83917 3.5175 4.83917ZM6.4825 2.8675C6.64732 2.8675 6.80843 2.81863 6.94547 2.72706C7.08252 2.63549 7.18933 2.50534 7.2524 2.35307C7.31547 2.2008 7.33198 2.03324 7.29982 1.87159C7.26767 1.70994 7.1883 1.56145 7.07176 1.44491C6.95521 1.32837 6.80673 1.249 6.64507 1.21685C6.48342 1.18469 6.31587 1.20119 6.1636 1.26427C6.01133 1.32734 5.88118 1.43415 5.78961 1.57119C5.69804 1.70823 5.64917 1.86935 5.64917 2.03417C5.64917 2.25518 5.73696 2.46714 5.89324 2.62342C6.04952 2.7797 6.26149 2.8675 6.4825 2.8675Z" fill="#7488A6"/>
</g>
<defs>
<clipPath id="clip0_75_28477">
<rect width="20" height="20" fill="white" transform="translate(0 0.5)"/>
</clipPath>
</defs>
</svg>
