<svg width="20" height="20" viewBox="0 0 20 20" fill="none" xmlns="http://www.w3.org/2000/svg">
<path d="M18.2422 0H1.75781C0.788555 0 0 0.788594 0 1.75781V2.65059C0 4.09668 0.497422 5.515 1.4009 6.64414C2.15227 7.58332 3.22098 8.31895 4.41027 8.71535L5.03129 8.92227C5.75258 10.0975 6.88387 11.0028 8.24219 11.4328V12.3438C8.24219 12.6668 7.9793 12.9297 7.65625 12.9297C6.68699 12.9297 5.89844 13.7183 5.89844 14.6875V15.2734H5.3125C4.98887 15.2734 4.72656 15.5357 4.72656 15.8594V18.8281H4.14062C3.81699 18.8281 3.55469 19.0904 3.55469 19.4141C3.55469 19.7377 3.81699 20 4.14062 20H15.8594C16.183 20 16.4453 19.7377 16.4453 19.4141C16.4453 19.0904 16.183 18.8281 15.8594 18.8281H15.2734V15.8594C15.2734 15.5357 15.0111 15.2734 14.6875 15.2734H14.1016V14.6875C14.1016 13.7182 13.313 12.9297 12.3438 12.9297C12.0207 12.9297 11.7578 12.6668 11.7578 12.3438V11.4328C13.1146 11.0033 14.2448 10.0996 14.9663 8.92625L15.6212 8.71781L15.6287 8.71535C16.8004 8.32473 17.8276 7.60848 18.5991 6.64414C19.5026 5.515 20 4.09668 20 2.65059V1.75781C20 0.788555 19.2114 0 18.2422 0ZM2.31602 5.91203C1.57816 4.98977 1.17188 3.83164 1.17188 2.65059V1.75781C1.17188 1.43477 1.43477 1.17188 1.75781 1.17188H3.61617L4.2125 6.53867C4.24728 6.849 4.30719 7.156 4.39164 7.45664C3.57223 7.11227 2.84551 6.57383 2.31602 5.91203ZM5.89844 18.8281V16.4453H14.1016V18.8281H5.89844ZM11.0405 10.4147C10.9113 10.4444 10.796 10.5171 10.7134 10.6208C10.6309 10.7245 10.5859 10.8531 10.5859 10.9857V12.3438C10.5859 13.313 11.3745 14.1016 12.3438 14.1016C12.6668 14.1016 12.9297 14.3645 12.9297 14.6875V15.2734H7.07031V14.6875C7.07031 14.3645 7.3332 14.1016 7.65625 14.1016C8.62551 14.1016 9.41406 13.313 9.41406 12.3438V10.9857C9.41406 10.7127 9.22563 10.4759 8.95949 10.4147C7.03371 9.9716 5.59418 8.36199 5.37719 6.4093L4.79523 1.17188H15.2048L14.6228 6.4093C14.4058 8.36195 12.9663 9.9716 11.0405 10.4148V10.4147ZM18.8281 2.65059C18.8281 3.83164 18.4218 4.98977 17.684 5.91203C17.1338 6.60065 16.4178 7.13837 15.6032 7.4748C15.6904 7.1684 15.752 6.8553 15.7875 6.53871L16.3838 1.17188H18.2422C18.5652 1.17188 18.8281 1.43477 18.8281 1.75781V2.65059Z" fill="#ffffff"/>
<path d="M12.426 4.01213L11.1093 3.82541L10.5229 2.66541C10.474 2.56867 10.3993 2.48739 10.307 2.4306C10.2146 2.37382 10.1084 2.34375 9.99998 2.34375C9.8916 2.34375 9.78533 2.37382 9.69301 2.4306C9.60069 2.48739 9.52594 2.56867 9.47705 2.66541L8.89069 3.82541L7.57385 4.01213C7.46487 4.02762 7.36245 4.0735 7.27834 4.1445C7.19422 4.2155 7.1318 4.30876 7.09823 4.41359C7.06466 4.51843 7.06129 4.6306 7.08852 4.73725C7.11575 4.84391 7.17246 4.94074 7.25217 5.01666L8.1967 5.91557L7.9744 7.18096C7.95552 7.28836 7.96698 7.3989 8.00749 7.50015C8.048 7.6014 8.11595 7.68934 8.20369 7.75408C8.29149 7.81875 8.39557 7.85765 8.50425 7.86641C8.61294 7.87517 8.72191 7.85345 8.81893 7.80369L9.99998 7.1974L11.1808 7.80365C11.2778 7.85347 11.3868 7.87522 11.4955 7.86645C11.6042 7.85769 11.7083 7.81876 11.7961 7.75404C11.8839 7.68933 11.9519 7.6014 11.9924 7.50015C12.0329 7.3989 12.0444 7.28834 12.0256 7.18092L11.8033 5.91553L12.7476 5.01662C12.8274 4.94075 12.8842 4.84393 12.9114 4.73726C12.9387 4.6306 12.9353 4.51842 12.9017 4.41357C12.8682 4.30872 12.8057 4.21545 12.7216 4.14445C12.6374 4.07345 12.535 4.02759 12.426 4.01213ZM10.768 5.28307C10.6979 5.34965 10.6455 5.43253 10.6153 5.5243C10.5851 5.61607 10.578 5.71389 10.5948 5.80904L10.6674 6.22287L10.2675 6.01764C10.1847 5.97514 10.093 5.95297 9.99991 5.95297C9.90684 5.95297 9.81512 5.97514 9.73233 6.01764L9.33241 6.22287L9.40518 5.80904C9.43909 5.61568 9.37409 5.41842 9.23202 5.28307L8.93709 5.00244L9.35803 4.94268C9.45147 4.92944 9.54033 4.89382 9.61703 4.83884C9.69374 4.78387 9.75602 4.71117 9.79858 4.62693L9.99998 4.22854L10.2012 4.62678C10.2438 4.71103 10.3061 4.78376 10.3829 4.83875C10.4596 4.89375 10.5485 4.92939 10.6419 4.94264L11.0629 5.00233L10.768 5.28307Z" fill="#ffffff"/>
</svg>
