<svg width="16" height="21" viewBox="0 0 16 21" fill="none" xmlns="http://www.w3.org/2000/svg">
<path d="M13.9375 10.4082C13.9375 10.5386 13.8866 10.6613 13.7943 10.7535L11.1194 13.4261C11.074 13.4717 11.0201 13.5078 10.9606 13.5324C10.9012 13.557 10.8374 13.5696 10.7731 13.5694H5.22686C5.16254 13.5696 5.09881 13.557 5.03938 13.5325C4.97994 13.5079 4.92596 13.4717 4.88057 13.4262L2.2057 10.7535C2.16017 10.7083 2.12407 10.6545 2.09949 10.5952C2.07491 10.5359 2.06234 10.4724 2.0625 10.4082V4.86341C2.06235 4.79966 2.07476 4.7365 2.09903 4.67755C2.1233 4.61861 2.15895 4.56502 2.20394 4.51985L4.88198 1.81693C4.97421 1.72441 5.09939 1.67226 5.23003 1.67193H10.7699C10.8998 1.67193 11.0266 1.72478 11.118 1.81693L13.796 4.51985C13.841 4.56502 13.8767 4.61861 13.9009 4.67755C13.9252 4.7365 13.9376 4.79966 13.9375 4.86341V10.4082ZM8.92333 18.4132C8.92333 18.9177 8.51291 19.3281 8.00842 19.3281H7.99154C7.48705 19.3281 7.07662 18.9177 7.07662 18.4132V14.7413H8.92333V18.4132ZM14.6284 3.69505L11.9504 0.992169C11.6406 0.679396 11.2103 0.500061 10.7699 0.500061H5.23003C4.78968 0.500061 4.3594 0.679396 4.04956 0.992129L1.37152 3.69505C1.06141 4.00802 0.890625 4.42294 0.890625 4.86341V10.4082C0.890625 10.8518 1.06352 11.2689 1.37742 11.5825L4.05226 14.2551C4.36604 14.5687 4.78319 14.7413 5.22686 14.7413H5.90475V18.4132C5.90475 19.5639 6.84088 20.5 7.99154 20.5H8.00842C9.15908 20.5 10.0952 19.5639 10.0952 18.4132V14.7413H10.7731C11.2168 14.7413 11.6339 14.5687 11.9477 14.2551L14.6226 11.5825C14.9364 11.2689 15.1093 10.8518 15.1093 10.4082V4.86341C15.1093 4.42294 14.9386 4.00802 14.6284 3.69505Z" fill="#F89818"/>
<path d="M5.18751 9.07386H4.77588V8.25062H5.18751C5.41451 8.25062 5.59915 8.43526 5.59915 8.66226C5.59915 8.88921 5.41451 9.07386 5.18751 9.07386ZM4.77588 6.25551H5.18751C5.41451 6.25551 5.59915 6.44015 5.59915 6.66714C5.59915 6.8941 5.41451 7.07875 5.18751 7.07875H4.77588V6.25551ZM5.18751 5.08363H4.18994C3.86635 5.08363 3.604 5.34598 3.604 5.66957V9.65979C3.604 9.98338 3.86635 10.2457 4.18994 10.2457H5.18751C6.06068 10.2457 6.77103 9.53538 6.77103 8.66226C6.77103 8.28448 6.63802 7.93718 6.41638 7.66468C6.63802 7.39222 6.77103 7.04492 6.77103 6.66714C6.77103 5.79398 6.06068 5.08363 5.18751 5.08363Z" fill="#F89818"/>
<path d="M7.979 5.08363C7.65541 5.08363 7.39307 5.34598 7.39307 5.66957V9.65979C7.39307 9.98338 7.65541 10.2457 7.979 10.2457C8.30259 10.2457 8.56494 9.98338 8.56494 9.65979V5.66957C8.56494 5.34598 8.30259 5.08363 7.979 5.08363Z" fill="#F89818"/>
<path d="M11.2241 8.80304C11.224 8.87484 11.1955 8.94368 11.1447 8.99446C11.0939 9.04523 11.0251 9.07378 10.9533 9.07386H10.4009V6.25551H10.9533C11.1026 6.25551 11.2241 6.37699 11.2241 6.52629V8.80304ZM10.9533 5.08363H9.81494C9.49135 5.08363 9.229 5.34598 9.229 5.66957V9.65979C9.229 9.98338 9.49135 10.2457 9.81494 10.2457H10.9533C11.7488 10.2457 12.396 9.59854 12.396 8.80304V6.52629C12.396 5.73082 11.7488 5.08363 10.9533 5.08363Z" fill="#F89818"/>
</svg>
