<svg width="20" height="19" viewBox="0 0 20 19" fill="none" xmlns="http://www.w3.org/2000/svg">
<path fill-rule="evenodd" clip-rule="evenodd" d="M10.0185 0.331543C7.58312 0.334043 5.2482 1.30237 3.52586 3.02412C1.80352 4.74587 0.834389 7.08046 0.831055 9.5158C0.835218 11.9512 1.80451 14.2856 3.52658 16.0077C5.24865 17.7297 7.58308 18.699 10.0185 18.7032C12.4532 18.699 14.787 17.7295 16.5081 16.0073C18.2292 14.285 19.1971 11.9506 19.1996 9.5158C19.1971 7.08075 18.2286 4.74615 16.5068 3.02431C14.785 1.30247 12.4535 0.334044 10.0185 0.331543ZM10.0185 2.00083C11.0058 1.99876 11.9838 2.19174 12.8963 2.56871C13.8088 2.94567 14.6379 3.49919 15.3359 4.19748C16.0338 4.89576 16.587 5.72505 16.9636 6.63773C17.3402 7.5504 17.5328 8.52848 17.5303 9.5158C17.5319 10.5031 17.3387 11.4811 16.9616 12.3936C16.5845 13.3061 16.031 14.1352 15.3329 14.8334C14.6347 15.5315 13.8056 16.085 12.8931 16.4621C11.9806 16.8392 11.0027 17.0324 10.0153 17.0308C9.02793 17.0316 8.05008 16.8377 7.13775 16.4601C6.22541 16.0825 5.3965 15.5287 4.69846 14.8304C4.00043 14.1321 3.44698 13.3029 3.0698 12.3904C2.69261 11.4779 2.4991 10.5 2.50035 9.51265C2.49952 8.52542 2.69346 7.54772 3.07106 6.63556C3.44866 5.7234 4.00251 4.8947 4.70088 4.19691C5.39925 3.49913 6.22842 2.94598 7.1409 2.56914C8.05337 2.1923 9.03123 1.99918 10.0185 2.00083ZM10.0059 5.32997C9.89544 5.33078 9.78629 5.3535 9.68471 5.39679C9.58314 5.44009 9.49117 5.50311 9.41412 5.58221C9.33708 5.6613 9.27649 5.7549 9.23588 5.85758C9.19526 5.96025 9.17542 6.06997 9.17751 6.18036V8.68115H6.67987C6.6505 8.6796 6.62106 8.6796 6.59168 8.68115C6.38103 8.7069 6.18801 8.81163 6.05159 8.9742C5.91517 9.13676 5.84552 9.34503 5.85672 9.55695C5.86791 9.76888 5.95912 9.96865 6.1119 10.1159C6.26469 10.2632 6.46768 10.347 6.67987 10.3504H9.17751V12.8512C9.17751 13.073 9.26561 13.2857 9.42243 13.4425C9.57926 13.5993 9.79195 13.6874 10.0137 13.6874C10.2355 13.6874 10.4482 13.5993 10.605 13.4425C10.7619 13.2857 10.85 13.073 10.85 12.8512V10.3536H13.3507C13.5725 10.3536 13.7852 10.2655 13.942 10.1087C14.0989 9.95185 14.187 9.73915 14.187 9.51737C14.187 9.29559 14.0989 9.08289 13.942 8.92607C13.7852 8.76925 13.5725 8.68115 13.3507 8.68115H10.85V6.18036C10.8521 6.06864 10.8317 5.95763 10.7901 5.85391C10.7485 5.75019 10.6866 5.65588 10.6078 5.57657C10.5291 5.49726 10.4353 5.43457 10.3319 5.39221C10.2285 5.34985 10.1176 5.32868 10.0059 5.32997Z" fill="#A3B7D5"/>
</svg>
