<svg width="20" height="21" viewBox="0 0 20 21" fill="none" xmlns="http://www.w3.org/2000/svg">
<path d="M7.70828 7.16672H1.45828C0.654141 7.16672 0 6.51258 0 5.70828V1.95828C0 1.15414 0.654141 0.5 1.45828 0.5H7.70828C8.51258 0.5 9.16672 1.15414 9.16672 1.95828V5.70828C9.16672 6.51258 8.51258 7.16672 7.70828 7.16672ZM1.45828 1.75C1.40305 1.75004 1.3501 1.772 1.31105 1.81105C1.272 1.8501 1.25004 1.90305 1.25 1.95828V5.70828C1.25001 5.76353 1.27195 5.81652 1.31101 5.8556C1.35006 5.89468 1.40303 5.91667 1.45828 5.91672H7.70828C7.76356 5.9167 7.81656 5.89473 7.85565 5.85565C7.89473 5.81656 7.9167 5.76356 7.91672 5.70828V1.95828C7.91667 1.90303 7.89468 1.85006 7.8556 1.81101C7.81652 1.77195 7.76353 1.75001 7.70828 1.75H1.45828ZM7.70828 20.5H1.45828C0.654141 20.5 0 19.8459 0 19.0417V10.2917C0 9.48742 0.654141 8.83328 1.45828 8.83328H7.70828C8.51258 8.83328 9.16672 9.48742 9.16672 10.2917V19.0417C9.16672 19.8459 8.51258 20.5 7.70828 20.5ZM1.45828 10.0833C1.40303 10.0833 1.35006 10.1053 1.31101 10.1444C1.27195 10.1835 1.25001 10.2365 1.25 10.2917V19.0417C1.25004 19.0969 1.272 19.1499 1.31105 19.1889C1.3501 19.228 1.40305 19.25 1.45828 19.25H7.70828C7.76353 19.25 7.81652 19.228 7.8556 19.189C7.89468 19.1499 7.91667 19.097 7.91672 19.0417V10.2917C7.9167 10.2364 7.89473 10.1834 7.85565 10.1444C7.81656 10.1053 7.76356 10.0833 7.70828 10.0833H1.45828ZM18.5417 20.5H12.2917C11.4874 20.5 10.8333 19.8459 10.8333 19.0417V15.2917C10.8333 14.4874 11.4874 13.8333 12.2917 13.8333H18.5417C19.3459 13.8333 20 14.4874 20 15.2917V19.0417C20 19.8459 19.3459 20.5 18.5417 20.5ZM12.2917 15.0833C12.2364 15.0833 12.1834 15.1053 12.1444 15.1444C12.1053 15.1834 12.0833 15.2364 12.0833 15.2917V19.0417C12.0833 19.097 12.1053 19.1499 12.1444 19.189C12.1835 19.228 12.2365 19.25 12.2917 19.25H18.5417C18.5969 19.25 18.6499 19.228 18.6889 19.1889C18.728 19.1499 18.75 19.0969 18.75 19.0417V15.2917C18.75 15.2365 18.728 15.1835 18.689 15.1444C18.6499 15.1053 18.597 15.0833 18.5417 15.0833H12.2917ZM18.5417 12.1667H12.2917C11.4874 12.1667 10.8333 11.5126 10.8333 10.7083V1.95828C10.8333 1.15414 11.4874 0.5 12.2917 0.5H18.5417C19.3459 0.5 20 1.15414 20 1.95828V10.7083C20 11.5126 19.3459 12.1667 18.5417 12.1667ZM12.2917 1.75C12.2365 1.75001 12.1835 1.77195 12.1444 1.81101C12.1053 1.85006 12.0833 1.90303 12.0833 1.95828V10.7083C12.0833 10.7636 12.1053 10.8166 12.1444 10.8556C12.1834 10.8947 12.2364 10.9167 12.2917 10.9167H18.5417C18.597 10.9167 18.6499 10.8947 18.689 10.8556C18.728 10.8165 18.75 10.7635 18.75 10.7083V1.95828C18.75 1.90305 18.728 1.8501 18.6889 1.81105C18.6499 1.772 18.5969 1.75004 18.5417 1.75H12.2917Z" fill="#F89818"/>
</svg>
