<svg width="20" height="21" viewBox="0 0 20 21" fill="none" xmlns="http://www.w3.org/2000/svg">
<path d="M19.9574 6.54324V5.37383H14.9291V3.16617L9.97879 0.5L5.0284 3.16617V5.37383H0.0129687V6.54324H0.649688V19.3306H0V20.5H19.9574V19.3305H19.3208V6.54324H19.9574ZM9.97879 1.82812L13.7598 3.86457V19.3306H10.5634V17.2496H9.39406V19.3306H6.19766V3.86453L9.97879 1.82812ZM1.81902 19.3306V6.54324H5.0284V7.69957H3.39129V8.86898H5.0284V10.0386H3.39129V11.2079H5.0284V12.3774H3.39129V13.5469H5.0284V14.7164H3.39129V15.8857H5.0284V19.3307H1.81902V19.3306ZM18.1514 19.3306H14.9291V15.8857H16.5793V14.7163H14.9291V13.5469H16.5793V12.3774H14.9291V11.2079H16.5793V10.0386H14.9291V8.86902H16.5793V7.69957H14.9291V6.54324H18.1514V19.3306Z" fill="#A3B7D5"/>
<path d="M7.13281 5.20508H8.30234V6.37453H7.13281V5.20508ZM9.39367 5.20508H10.5631V6.37453H9.39367V5.20508ZM11.6157 5.20508H12.7853V6.37453H11.6156L11.6157 5.20508ZM7.13281 7.66086H8.30234V8.83027H7.13281V7.66086ZM9.39367 7.66086H10.5631V8.83027H9.39367V7.66086ZM11.6157 7.66086H12.7853V8.83027H11.6156L11.6157 7.66086ZM7.13281 10.1166H8.30234V11.2859H7.13281V10.1166ZM9.39367 10.1166H10.5631V11.2859H9.39367V10.1166ZM11.6157 10.1166H12.7853V11.2859H11.6156L11.6157 10.1166ZM7.13281 12.5722H8.30234V13.7416H7.13281V12.5722ZM9.39367 12.5722H10.5631V13.7416H9.39367V12.5722ZM11.6157 12.5722H12.7853V13.7416H11.6156L11.6157 12.5722ZM7.13281 15.0279H8.30234V16.1974H7.13281V15.0279ZM9.39367 15.0279H10.5631V16.1974H9.39367V15.0279ZM11.6157 15.0279H12.7853V16.1974H11.6156L11.6157 15.0279Z" fill="#A3B7D5"/>
</svg>
