<svg width="16" height="21" viewBox="0 0 16 21" fill="none" xmlns="http://www.w3.org/2000/svg">
<path d="M8.00008 0.5C4.00613 0.5 0.756836 3.7493 0.756836 7.7432C0.756836 12.6998 7.23883 19.9763 7.5148 20.2836C7.77402 20.5723 8.2266 20.5718 8.48535 20.2836C8.76133 19.9763 15.2433 12.6998 15.2433 7.7432C15.2432 3.7493 11.994 0.5 8.00008 0.5ZM8.00008 18.8488C5.81855 16.2575 2.06121 11.145 2.06121 7.74328C2.06121 4.46852 4.72535 1.80438 8.00008 1.80438C11.2748 1.80438 13.9389 4.46852 13.9389 7.74324C13.9389 11.1451 10.1821 16.2566 8.00008 18.8488Z" fill="#A3B7D5"/>
<path d="M7.99969 4.09912C5.99023 4.09912 4.35547 5.73393 4.35547 7.74338C4.35547 9.75283 5.99027 11.3876 7.99969 11.3876C10.0091 11.3876 11.6439 9.75283 11.6439 7.74338C11.6439 5.73393 10.0091 4.09912 7.99969 4.09912ZM7.99969 10.0833C6.70945 10.0833 5.65984 9.03361 5.65984 7.74338C5.65984 6.45314 6.70949 5.4035 7.99969 5.4035C9.28988 5.4035 10.3395 6.45314 10.3395 7.74338C10.3395 9.03361 9.28988 10.0833 7.99969 10.0833Z" fill="#A3B7D5"/>
</svg>
