<svg width="18" height="18" viewBox="0 0 18 18" fill="none" xmlns="http://www.w3.org/2000/svg">
<path d="M13.9998 17.9584C13.217 17.9584 12.4517 17.7263 11.8007 17.2913C11.1498 16.8564 10.6424 16.2382 10.3428 15.5149C10.0432 14.7916 9.96483 13.9957 10.1176 13.2279C10.2703 12.46 10.6473 11.7547 11.2009 11.2011C11.7545 10.6475 12.4598 10.2705 13.2276 10.1178C13.9954 9.96507 14.7913 10.0435 15.5146 10.3431C16.2379 10.6427 16.8561 11.15 17.2911 11.801C17.726 12.4519 17.9582 13.2172 17.9582 14.0001C17.9582 15.0499 17.5411 16.0567 16.7988 16.799C16.0565 17.5414 15.0497 17.9584 13.9998 17.9584ZM13.9998 11.2918C13.4642 11.2918 12.9406 11.4506 12.4952 11.7482C12.0498 12.0458 11.7027 12.4688 11.4977 12.9636C11.2927 13.4585 11.239 14.0031 11.3435 14.5285C11.448 15.0538 11.706 15.5364 12.0848 15.9152C12.4635 16.2939 12.9461 16.5519 13.4715 16.6564C13.9968 16.7609 14.5414 16.7072 15.0363 16.5023C15.5312 16.2973 15.9541 15.9501 16.2517 15.5048C16.5493 15.0594 16.7082 14.5357 16.7082 14.0001C16.706 13.2825 16.4199 12.5949 15.9125 12.0874C15.4051 11.58 14.7175 11.2939 13.9998 11.2918Z" fill="#F89818"/>
<path d="M11.7998 17.1251H1.49984C1.11374 17.1229 0.744075 16.9685 0.471057 16.6955C0.198039 16.4225 0.0436915 16.0528 0.0415039 15.6667V1.50008C0.0436915 1.11398 0.198039 0.744319 0.471057 0.471301C0.744075 0.198283 1.11374 0.0439356 1.49984 0.041748H13.9998C14.3859 0.0439356 14.7556 0.198283 15.0286 0.471301C15.3016 0.744319 15.456 1.11398 15.4582 1.50008V10.7751C15.4582 10.9408 15.3923 11.0998 15.2751 11.217C15.1579 11.3342 14.9989 11.4001 14.8332 11.4001C14.6674 11.4001 14.5084 11.3342 14.3912 11.217C14.274 11.0998 14.2082 10.9408 14.2082 10.7751V1.50008C14.2082 1.44483 14.1862 1.39184 14.1472 1.35277C14.1081 1.3137 14.0551 1.29175 13.9998 1.29175H1.49984C1.44458 1.29175 1.39159 1.3137 1.35252 1.35277C1.31345 1.39184 1.2915 1.44483 1.2915 1.50008V15.6667C1.2915 15.722 1.31345 15.775 1.35252 15.8141C1.39159 15.8531 1.44458 15.8751 1.49984 15.8751H11.7998C11.9656 15.8751 12.1246 15.9409 12.2418 16.0581C12.359 16.1754 12.4248 16.3343 12.4248 16.5001C12.4248 16.6658 12.359 16.8248 12.2418 16.942C12.1246 17.0592 11.9656 17.1251 11.7998 17.1251Z" fill="#F89818"/>
<path d="M14.833 15.7833C14.7341 15.7824 14.6368 15.7585 14.5486 15.7137C14.4604 15.6689 14.3838 15.6043 14.3247 15.525L13.4913 14.3667C13.4159 14.2593 13.3751 14.1313 13.3747 14V12.3333C13.3747 12.1676 13.4405 12.0086 13.5577 11.8914C13.6749 11.7742 13.8339 11.7083 13.9997 11.7083C14.1654 11.7083 14.3244 11.7742 14.4416 11.8914C14.5588 12.0086 14.6247 12.1676 14.6247 12.3333V13.8L15.3413 14.8333C15.4245 14.9653 15.456 15.1233 15.4299 15.2771C15.4037 15.4309 15.3218 15.5696 15.1997 15.6667C15.0936 15.7448 14.9647 15.7858 14.833 15.7833ZM7.74967 12.125H3.58301C3.41725 12.125 3.25828 12.0592 3.14107 11.9419C3.02386 11.8247 2.95801 11.6658 2.95801 11.5C2.95801 11.3342 3.02386 11.1753 3.14107 11.0581C3.25828 10.9408 3.41725 10.875 3.58301 10.875H7.74967C7.91543 10.875 8.07441 10.9408 8.19162 11.0581C8.30883 11.1753 8.37467 11.3342 8.37467 11.5C8.37467 11.6658 8.30883 11.8247 8.19162 11.9419C8.07441 12.0592 7.91543 12.125 7.74967 12.125ZM11.9163 8.375H3.58301C3.41725 8.375 3.25828 8.30915 3.14107 8.19194C3.02386 8.07473 2.95801 7.91576 2.95801 7.75C2.95801 7.58424 3.02386 7.42527 3.14107 7.30806C3.25828 7.19085 3.41725 7.125 3.58301 7.125H11.9163C12.0821 7.125 12.2411 7.19085 12.3583 7.30806C12.4755 7.42527 12.5413 7.58424 12.5413 7.75C12.5413 7.91576 12.4755 8.07473 12.3583 8.19194C12.2411 8.30915 12.0821 8.375 11.9163 8.375ZM11.9163 4.625H3.58301C3.41725 4.625 3.25828 4.55915 3.14107 4.44194C3.02386 4.32473 2.95801 4.16576 2.95801 4C2.95801 3.83424 3.02386 3.67527 3.14107 3.55806C3.25828 3.44085 3.41725 3.375 3.58301 3.375H11.9163C12.0821 3.375 12.2411 3.44085 12.3583 3.55806C12.4755 3.67527 12.5413 3.83424 12.5413 4C12.5413 4.16576 12.4755 4.32473 12.3583 4.44194C12.2411 4.55915 12.0821 4.625 11.9163 4.625Z" fill="#F89818"/>
</svg>
