<svg width="54" height="44" viewBox="0 0 54 44" fill="none" xmlns="http://www.w3.org/2000/svg">
<path d="M35.7089 25.6439C35.7089 30.4462 31.8023 34.3528 27 34.3528C22.1977 34.3528 18.2926 30.4462 18.2926 25.6439C18.2926 20.8416 22.1977 16.935 27 16.935C31.8023 16.935 35.7089 20.8431 35.7089 25.6439ZM54 13.2776V38.0131C54 39.5967 53.3709 41.1155 52.2511 42.2353C51.1313 43.3551 49.6125 43.9842 48.0289 43.9842H5.97114C4.38749 43.9842 2.86871 43.3551 1.74891 42.2353C0.629101 41.1155 0 39.5967 0 38.0131V13.2776C0 11.694 0.629101 10.1752 1.74891 9.05542C2.86871 7.93561 4.38749 7.30651 5.97114 7.30651H13.3156V5.24049C13.3156 3.8548 13.8661 2.52587 14.8459 1.54604C15.8258 0.56621 17.1547 0.0157471 18.5404 0.0157471H35.4596C36.8453 0.0157471 38.1742 0.56621 39.1541 1.54604C40.1339 2.52587 40.6844 3.8548 40.6844 5.24049V7.30502H48.0289C51.3264 7.30651 54 9.98009 54 13.2776ZM40.1873 25.6439C40.1873 18.3725 34.2714 12.4566 27 12.4566C19.7301 12.4566 13.8142 18.3725 13.8142 25.6439C13.8142 32.9152 19.7301 38.8311 27 38.8311C34.2714 38.8311 40.1873 32.9152 40.1873 25.6439Z" fill="white"/>
</svg>
