<svg width="138" height="40" viewBox="0 0 138 40" fill="none" xmlns="http://www.w3.org/2000/svg">
<path d="M14.1835 29.0509H24.0415L27.6673 10.7764H17.8092L14.1835 29.0509Z" fill="white"/>
<path d="M27.9766 9.15917L29.7822 0.0146484H19.9242L18.104 9.15917H27.9766Z" fill="white"/>
<path d="M36.1016 29.05L39.8584 9.15917H41.7223L37.9509 29.05H47.8089L51.5803 9.15917H53.517L49.7456 29.05H59.6036L65.2825 0.0146484H64.9622H36.4511H31.9079L26.229 29.05H36.1016Z" fill="white"/>
<path d="M119.257 39.9994H129.115L134.91 11.6484H125.052L119.257 39.9994Z" fill="white"/>
<path d="M127.588 0.0146484V0.0292062H123.365C125.913 1.86394 126.292 4.74708 126.117 6.96041L125.447 10.1639H125.462C125.462 10.1785 125.447 10.1785 125.447 10.1785L125.462 10.1639H135.291L137.446 0.0146484H127.588Z" fill="white"/>
<path d="M70.9395 29.0499L72.2354 22.3808H74.1721L72.8761 29.0499H82.7341L88.6024 0H66.9496L61.0814 29.0499H70.9395ZM74.9147 9.15909H76.8514L75.337 16.2068H73.4003L74.9147 9.15909Z" fill="white"/>
<path d="M118.369 0.0146484H90.3532L83.9607 30.7391H12.0859L18.2163 0.0146484H8.35822L0 40.0001H1.68912H2.99964H20.2112H20.9392H82.0387H83.3201H90.8337H91.3725H108.584H110.084H117.51L124.31 7.32444C125.097 3.55305 122.228 0.0146484 118.369 0.0146484ZM113.011 14.2411L110.608 25.8319C109.996 28.7587 107.419 30.8556 104.419 30.8556H93.7897L98.3037 9.14461H108.861C111.555 9.15917 113.564 11.62 113.011 14.2411Z" fill="white"/>
</svg>
