<svg width="30" height="24" viewBox="0 0 30 24" fill="none" xmlns="http://www.w3.org/2000/svg">
<path d="M27.1875 4.5H2.8125C2.31522 4.5 1.83831 4.30246 1.48667 3.95083C1.13504 3.59919 0.9375 3.12228 0.9375 2.625C0.9375 2.12772 1.13504 1.65081 1.48667 1.29917C1.83831 0.947544 2.31522 0.75 2.8125 0.75H27.1875C27.6848 0.75 28.1617 0.947544 28.5133 1.29917C28.865 1.65081 29.0625 2.12772 29.0625 2.625C29.0625 3.12228 28.865 3.59919 28.5133 3.95083C28.1617 4.30246 27.6848 4.5 27.1875 4.5ZM27.1875 23.25H2.8125C2.31522 23.25 1.83831 23.0525 1.48667 22.7008C1.13504 22.3492 0.9375 21.8723 0.9375 21.375C0.9375 20.8777 1.13504 20.4008 1.48667 20.0492C1.83831 19.6975 2.31522 19.5 2.8125 19.5H27.1875C27.6848 19.5 28.1617 19.6975 28.5133 20.0492C28.865 20.4008 29.0625 20.8777 29.0625 21.375C29.0625 21.8723 28.865 22.3492 28.5133 22.7008C28.1617 23.0525 27.6848 23.25 27.1875 23.25ZM27.1875 13.875H2.8125C2.31522 13.875 1.83831 13.6775 1.48667 13.3258C1.13504 12.9742 0.9375 12.4973 0.9375 12C0.9375 11.5027 1.13504 11.0258 1.48667 10.6742C1.83831 10.3225 2.31522 10.125 2.8125 10.125H27.1875C27.6848 10.125 28.1617 10.3225 28.5133 10.6742C28.865 11.0258 29.0625 11.5027 29.0625 12C29.0625 12.4973 28.865 12.9742 28.5133 13.3258C28.1617 13.6775 27.6848 13.875 27.1875 13.875Z" fill="white"/>
</svg>
