<svg width="161" height="160" viewBox="0 0 161 160" fill="none" xmlns="http://www.w3.org/2000/svg">
<path d="M80.0036 0C35.8234 0 0 35.8164 0 80C0 124.184 35.8199 160 80.0036 160C124.191 160 160.007 124.184 160.007 80C160.007 35.8164 124.191 0 80.0036 0ZM80.0036 23.9209C94.6225 23.9209 106.469 35.7707 106.469 50.3826C106.469 64.998 94.6225 76.8443 80.0036 76.8443C65.3917 76.8443 53.5454 64.998 53.5454 50.3826C53.5454 35.7707 65.3917 23.9209 80.0036 23.9209ZM79.986 139.084C65.4057 139.084 52.0519 133.774 41.7518 124.985C39.2427 122.845 37.7949 119.707 37.7949 116.414C37.7949 101.595 49.7888 89.7342 64.6115 89.7342H95.4027C110.229 89.7342 122.177 101.595 122.177 116.414C122.177 119.71 120.736 122.841 118.224 124.981C107.927 133.774 94.5698 139.084 79.986 139.084Z" fill="#A3B7D5"/>
</svg>
