<svg width="20" height="12" viewBox="0 0 20 12" fill="none" xmlns="http://www.w3.org/2000/svg">
<path fill-rule="evenodd" clip-rule="evenodd" d="M7.96264 8.89572H14.0619C14.7525 6.85854 17.6341 6.87811 18.318 8.89572H18.8276V5.95924C18.8276 5.59337 18.5284 5.29357 18.1634 5.29357H13.6696C13.3458 5.29357 13.0833 5.03059 13.0833 4.70633V1.18245H3.04061V1.88711H4.11834C4.88998 1.88711 4.88998 3.06171 4.11834 3.06171H3.04061V4.19721H5.85416C6.62596 4.19721 6.62596 5.37184 5.85416 5.37184H3.04061V8.89556H3.70662C4.39709 6.85838 7.27889 6.87822 7.96264 8.89572ZM1.86826 3.06171H1.16498C0.393184 3.06171 0.393184 1.88711 1.16498 1.88711H1.86826V0.595053C1.86826 0.270787 2.13072 0.0078125 2.45451 0.0078125C3.35154 0.0078125 13.2104 0.0116481 13.2104 0.0078125C14.8151 0.0078125 16.2128 0.803742 17.0352 2.1866L18.1845 4.11908C19.1875 4.1304 20 4.95247 20 5.95908V9.48296C20 9.80723 19.7375 10.0702 19.4139 10.0702H18.392C18.1819 11.1068 17.2678 11.8712 16.19 11.8712C15.1123 11.8712 14.1981 11.1068 13.988 10.0702H8.03662C7.8265 11.1068 6.91236 11.8712 5.83467 11.8712C4.75693 11.8712 3.84275 11.1068 3.63264 10.0702H2.45451C2.13068 10.0702 1.86826 9.80723 1.86826 9.48296V7.72093H0.57873C-0.19291 7.72093 -0.19291 6.54648 0.57873 6.54648H1.86826V5.37181H0.57873C-0.19291 5.37181 -0.19291 4.19717 0.57873 4.19717H1.86826V3.06171ZM16.9499 8.85858C17.3695 9.27901 17.3695 9.96089 16.9499 10.3813C16.2749 11.0577 15.1153 10.5765 15.1153 9.61995C15.1153 8.66335 16.2749 8.18218 16.9499 8.85858ZM16.824 4.11893H14.2556V1.34167C15.0035 1.58182 15.6151 2.08605 16.0322 2.78762L16.824 4.11893ZM6.59451 8.85858C7.01416 9.27901 7.01416 9.96089 6.59451 10.3813C5.91951 11.0577 4.75994 10.5765 4.75994 9.61995C4.7601 8.66331 5.91947 8.18218 6.59451 8.85858Z" fill="#F89818"/>
</svg>
