<svg width="20" height="21" viewBox="0 0 20 21" fill="none" xmlns="http://www.w3.org/2000/svg">
<path d="M14.8438 7.28133V5.96871M10.1562 1.28125H2.34375C1.48082 1.28125 0.78125 1.98082 0.78125 2.84375V18.1562C0.78125 19.0192 1.48082 19.7188 2.34375 19.7188H5.84875M10.1562 1.28125V4.40625C10.1562 5.26918 10.8558 5.96875 11.7188 5.96875H14.8438L10.1562 1.28125ZM3.90625 8.78125H11.7188M3.90625 11.9062H10.2188M3.90625 15.0312H7.26449M10.8695 19.3519L9.03512 19.7188L9.40199 17.8844C9.52298 17.2794 9.82034 16.7238 10.2566 16.2876L17.009 9.53516L19.2188 11.7448L12.4663 18.4973C12.0301 18.9335 11.4744 19.2309 10.8695 19.3519Z" stroke="#F89818" stroke-width="1.5625" stroke-miterlimit="10" stroke-linecap="round" stroke-linejoin="round"/>
</svg>
