<svg width="16" height="21" viewBox="0 0 16 21" fill="none" xmlns="http://www.w3.org/2000/svg">
<path d="M12.7046 0.5H12.7033L10.3612 0.50457L3.29529 0.5C1.67994 0.5 0.365723 1.81422 0.365723 3.42961V19.9135C0.365723 20.3958 0.917988 20.6711 1.30318 20.3822L5.6735 17.1304L10.0093 20.3822C10.3933 20.6703 10.9468 20.3979 10.9513 19.9135V11.0466H15.0482C15.3718 11.0466 15.6342 10.7842 15.6342 10.4606V3.42961C15.6341 1.81426 14.3199 0.500039 12.7046 0.5ZM9.77947 3.42961V18.7416L6.02502 15.9292C5.81666 15.7729 5.53025 15.7729 5.32193 15.9292L1.57205 18.7416V3.42961C1.57205 2.46039 2.36057 1.67184 3.32943 1.67184L10.3634 1.67641C9.99686 2.16559 9.77947 2.77266 9.77947 3.42961ZM14.4278 9.87469H10.9467V3.42961C10.9467 2.46043 11.7352 1.67188 12.7044 1.67184H12.7046C13.6738 1.67188 14.4278 2.46039 14.4278 3.42961L14.4278 9.87469Z" fill="#A3B7D5"/>
</svg>
