<svg width="20" height="21" viewBox="0 0 20 21" fill="none" xmlns="http://www.w3.org/2000/svg">
<path d="M19.1217 12.0897L18.2897 11.4047C17.7198 10.9356 17.7208 10.0635 18.2897 9.59528L19.1217 8.91036C19.4081 8.67585 19.6016 8.34704 19.6676 7.98284C19.7336 7.61864 19.6677 7.24284 19.4818 6.92278L17.8389 4.07723C17.6547 3.75622 17.3622 3.5113 17.0138 3.38634C16.6654 3.26138 16.2839 3.26455 15.9376 3.39528L14.9284 3.77337C14.2372 4.03227 13.4825 3.59559 13.3613 2.86864L13.1842 1.80559C13.1243 1.44034 12.9363 1.10835 12.6539 0.869109C12.3715 0.62987 12.0131 0.499019 11.643 0.500006H8.35724C7.9871 0.499011 7.62871 0.629863 7.34628 0.869111C7.06386 1.10836 6.87586 1.44037 6.81599 1.80563L6.6388 2.86864C6.51744 3.59688 5.76173 4.03184 5.07177 3.7734L4.06259 3.39528C3.71632 3.26455 3.33482 3.26138 2.98642 3.38634C2.63803 3.5113 2.34551 3.75622 2.16126 4.07723L0.518411 6.92274C0.332488 7.24279 0.266615 7.6186 0.332597 7.98281C0.398578 8.34702 0.592102 8.67583 0.878489 8.91032L1.71048 9.59524C2.28048 10.0645 2.27935 10.9364 1.71048 11.4047L0.87845 12.0896C0.59207 12.3241 0.398551 12.6529 0.33257 13.0171C0.266588 13.3813 0.332457 13.7571 0.518372 14.0772L2.16126 16.9227C2.54478 17.5869 3.34431 17.8737 4.06259 17.6047L5.07173 17.2266C5.7631 16.9676 6.51763 17.4046 6.63876 18.1313L6.81595 19.1943C6.87581 19.5596 7.0638 19.8916 7.34623 20.1309C7.62865 20.3701 7.98705 20.501 8.3572 20.5H11.6429C12.0131 20.501 12.3715 20.3701 12.6539 20.1309C12.9363 19.8916 13.1243 19.5596 13.1842 19.1944L13.3613 18.1314C13.4826 17.4034 14.2383 16.9681 14.9284 17.2267L15.9376 17.6047C16.2839 17.7355 16.6654 17.7387 17.0138 17.6137C17.3622 17.4888 17.6547 17.2438 17.8389 16.9228L19.4818 14.0772C19.6677 13.7571 19.7336 13.3813 19.6676 13.0171C19.6016 12.6529 19.4081 12.3242 19.1217 12.0897ZM16.4858 16.1415L15.4766 15.7634C13.8633 15.1591 12.1027 16.1787 11.8201 17.8745L11.643 18.9375H8.35724L8.18005 17.8745C7.89689 16.1754 6.13372 15.1603 4.52361 15.7634L3.51443 16.1415L1.87158 13.296L2.70357 12.6111C4.03361 11.5161 4.03083 9.48161 2.70357 8.38895L1.87158 7.70403L3.51447 4.85848L4.52361 5.23657C6.13689 5.84087 7.89743 4.82133 8.18005 3.12551L8.3572 2.06251H11.6429L11.8201 3.12551C12.1033 4.82481 13.8665 5.83961 15.4765 5.23657L16.4857 4.85848L18.129 7.70364L18.1285 7.70399L17.2966 8.38891C15.9666 9.48376 15.9692 11.5183 17.2965 12.611L18.1286 13.2959L16.4858 16.1415ZM10.0001 6.64583C7.8749 6.64583 6.14591 8.37481 6.14591 10.5C6.14591 12.6252 7.8749 14.3542 10.0001 14.3542C12.1253 14.3542 13.8543 12.6252 13.8543 10.5C13.8543 8.37481 12.1253 6.64583 10.0001 6.64583ZM10.0001 12.7917C8.73646 12.7917 7.70841 11.7636 7.70841 10.5C7.70841 9.23637 8.73646 8.20833 10.0001 8.20833C11.2637 8.20833 12.2918 9.23637 12.2918 10.5C12.2918 11.7636 11.2637 12.7917 10.0001 12.7917Z" fill="#F89818"/>
</svg>
