<svg width="44" height="44" viewBox="0 0 44 44" fill="none" xmlns="http://www.w3.org/2000/svg">
<circle cx="22" cy="22" r="22" fill="#2257AA"/>
<g clip-path="url(#clip0_1391_41934)">
<path d="M29.6063 21.0501L22.9509 14.3947C22.4259 13.8697 21.5746 13.8697 21.0497 14.3947C20.5247 14.9196 20.5247 15.7709 21.0497 16.2959L26.7539 22.0001L21.0497 27.7042C20.5247 28.2292 20.5247 29.0805 21.0497 29.6054C21.5746 30.1304 22.4259 30.1304 22.9509 29.6054L29.6063 22.95C30.1312 22.4264 30.1312 21.5751 29.6063 21.0501ZM21.6039 20.6471L16.32 15.0782C15.7891 14.5193 14.9291 14.5193 14.3982 15.0782C13.8673 15.637 13.8673 16.5437 14.3982 17.1032L18.7215 21.6597L14.3982 26.2161C13.8673 26.775 13.8673 27.6823 14.3982 28.2412C14.9291 28.8001 15.7891 28.8001 16.32 28.2412L21.6039 22.6722C22.1348 22.1133 22.1348 21.2067 21.6039 20.6471Z" fill="white"/>
</g>
<defs>
<clipPath id="clip0_1391_41934">
<rect width="16" height="16" fill="white" transform="translate(14 14)"/>
</clipPath>
</defs>
</svg>
